<svg width="200" height="200" viewBox="0 0 200 200" fill="none" xmlns="http://www.w3.org/2000/svg">
<path fill-rule="evenodd" clip-rule="evenodd" d="M32.3689 145.464C33.7991 145.489 35.1209 146.023 36.161 146.894C35.1585 148.077 33.7192 148.89 32.053 149.033C30.3862 149.175 28.8297 148.618 27.6406 147.623C28.6432 146.44 30.0832 145.627 31.7493 145.485C31.9576 145.467 32.1646 145.461 32.3689 145.464ZM169.715 144.613C169.919 144.609 170.126 144.616 170.334 144.634C172.001 144.776 173.44 145.59 174.442 146.772C173.253 147.768 171.697 148.324 170.031 148.182C168.365 148.04 166.925 147.227 165.922 146.044C166.962 145.172 168.284 144.637 169.715 144.613ZM40.6682 139.159C41.0949 140.65 40.9702 142.299 40.1629 143.763C39.3555 145.228 38.0281 146.214 36.5394 146.649C36.1127 145.158 36.2373 143.51 37.0447 142.045C37.8517 140.58 39.1791 139.594 40.6682 139.159ZM161.416 138.308C162.904 138.743 164.232 139.729 165.039 141.194C165.846 142.659 165.971 144.308 165.544 145.798C164.055 145.363 162.728 144.377 161.921 142.912C161.113 141.448 160.988 139.799 161.416 138.308ZM174.33 139.257C175.76 139.305 177.074 139.862 178.099 140.751C177.078 141.917 175.624 142.706 173.955 142.821C172.289 142.935 170.744 142.355 169.572 141.342C169.632 141.276 169.693 141.21 169.753 141.145C170.762 140.088 172.138 139.377 173.711 139.268C173.919 139.253 174.126 139.25 174.33 139.257ZM168.892 132.558C170.037 133.605 170.795 135.074 170.875 136.745C170.955 138.416 170.34 139.95 169.3 141.101C168.156 140.054 167.398 138.585 167.318 136.914C167.239 135.254 167.845 133.727 168.892 132.558ZM158.44 132.41C159.871 132.443 161.189 132.986 162.225 133.864C161.215 135.041 159.77 135.845 158.102 135.977C156.435 136.109 154.882 135.543 153.699 134.54C154.709 133.362 156.153 132.559 157.821 132.427C158.03 132.41 158.236 132.405 158.44 132.41ZM148.957 126.981C150.458 127.37 151.816 128.314 152.668 129.753C153.52 131.192 153.695 132.836 153.315 134.34C151.814 133.95 150.456 133.006 149.604 131.567C148.752 130.129 148.576 128.484 148.957 126.981ZM161.09 126.196C161.294 126.192 161.501 126.199 161.709 126.217C163.375 126.359 164.816 127.172 165.819 128.355C164.63 129.35 163.072 129.907 161.405 129.764C159.739 129.622 158.299 128.81 157.297 127.627C158.337 126.755 159.659 126.22 161.09 126.196ZM152.79 119.891C154.279 120.325 155.606 121.312 156.414 122.777C157.221 124.242 157.346 125.891 156.919 127.381C155.43 126.947 154.103 125.96 153.295 124.496C152.488 123.031 152.364 121.382 152.79 119.891ZM165.33 124.403C163.664 124.518 162.119 123.938 160.948 122.925C161.044 122.819 161.145 122.714 161.244 122.608C162.241 121.617 163.573 120.955 165.086 120.851C165.294 120.836 165.501 120.833 165.705 120.839C167.135 120.888 168.449 121.444 169.474 122.333C168.453 123.499 167 124.288 165.331 124.403H165.33ZM160.268 114.141C161.412 115.187 162.17 116.657 162.25 118.328C162.329 119.998 161.715 121.533 160.675 122.683C159.53 121.637 158.773 120.167 158.693 118.497V118.497C158.613 116.826 159.228 115.291 160.268 114.141ZM53.7697 80.1236L52.2487 80.3214C52.1654 80.3322 52.1029 80.4041 52.1029 80.4878C52.1029 80.4975 52.1036 80.5072 52.1052 80.5166C52.3774 82.0494 52.0559 83.5102 50.8077 84.9321C50.7842 84.959 50.7697 84.9926 50.7664 85.0278C49.4883 93.3477 48.1646 98.6266 45.7354 101.011C43.8959 102.738 41.0499 102.787 39.1526 101.123C37.255 99.4588 36.9311 96.6295 38.404 94.58C38.777 94.0613 39.0783 93.6416 39.2484 93.4048C39.3481 93.2664 39.452 93.1313 39.5605 92.9996V92.9989C41.1742 91.0321 42.1529 88.6218 42.3669 86.0872C42.459 84.9983 42.5547 83.8674 42.6303 82.9737C42.7197 81.917 43.2186 80.937 44.0213 80.2438C44.6304 79.7177 45.2234 79.206 45.2234 79.206C45.2294 79.2003 45.2352 79.1946 45.2402 79.1882C45.2402 79.1882 45.3544 79.0561 45.5352 78.8458C46.8028 77.3749 48.6259 76.5212 50.5419 76.4701C50.8158 76.4631 51.0909 76.4718 51.3671 76.4977C52.2447 76.5807 53.2009 76.671 54.1369 76.7594C55.3585 76.8746 56.4615 77.5372 57.1362 78.5616C57.8112 79.5863 57.9845 80.861 57.6086 82.0285C57.2702 83.0781 57.1197 83.5472 56.9931 83.9396C56.8946 83.3741 56.7905 82.7751 56.7045 82.2829C56.4632 80.8953 55.1677 79.9415 53.771 80.1232L53.7697 80.1236Z" fill="#D25412"/>
<path fill-rule="evenodd" clip-rule="evenodd" d="M51.8094 121.946C51.8188 122.119 51.9243 124.011 52.0227 125.77C52.1188 127.477 52.6285 129.133 53.5087 130.598L54.7912 132.732L53.1566 149.609C53.1563 149.615 53.156 149.62 53.156 149.625C53.156 149.769 53.1486 149.914 53.1338 150.06V150.06C53.1072 150.325 53.0572 150.58 52.9863 150.826C52.9849 150.832 52.9839 150.837 52.9829 150.842L50.8958 161.678L49.1161 163.805C49.1161 163.805 47.8979 165.261 46.9501 166.395C46.2852 167.189 46.3907 168.377 47.1853 169.042C47.738 169.504 48.4553 170.104 49.1588 170.692L48.3441 174.925L42.03 174.288L43.2933 161.739C43.2983 161.721 43.3004 161.702 43.2993 161.684L44.5213 149.553C44.5226 149.539 44.5223 149.525 44.5206 149.511L42.1053 132.987C41.5976 129.514 41.9148 125.971 43.0289 122.644L51.8094 121.946ZM63.9755 120.976L72.766 145.271C72.7687 145.279 72.7721 145.286 72.7758 145.293C73.571 146.795 73.4313 148.693 72.2731 150.078C72.1028 150.282 71.9177 150.466 71.7205 150.63C71.7168 150.633 71.7131 150.637 71.7094 150.64L54.349 167.964L49.4807 163.892L63.62 146.989C63.6657 146.934 63.6717 146.856 63.6351 146.795L53.7967 130.425C52.9446 129.006 52.4511 127.403 52.358 125.751C52.2592 123.988 52.1531 122.085 52.144 121.919L63.9755 120.976ZM123.543 158.844H111.821C111.103 158.844 110.523 158.264 110.523 157.547V145.824C110.523 145.107 111.103 144.527 111.821 144.527H123.543C124.261 144.527 124.84 145.107 124.84 145.824V157.547C124.84 158.264 124.261 158.844 123.543 158.844ZM123.543 103.047C124.261 103.047 124.84 103.627 124.84 104.344V116.066C124.84 116.784 124.261 117.364 123.543 117.364H111.821C111.103 117.364 110.524 116.784 110.524 116.066V104.344C110.524 103.627 111.103 103.047 111.821 103.047H123.543ZM81.2438 81.6193H89.8132C90.5312 81.6193 91.1111 82.1985 91.1111 82.9161V94.6384C91.1111 95.3561 90.5312 95.936 89.8132 95.936H78.0913C77.3733 95.936 76.7944 95.3564 76.7944 94.6384V92.3078L77.0242 92.1492L78.436 91.1755C78.4541 91.1627 78.4696 91.1463 78.4813 91.1275L78.482 91.1268C79.2017 90.6097 79.7393 89.8323 79.9116 88.8925L81.2438 81.6193ZM106.678 74.5073H94.9564C94.2384 74.5073 93.6585 73.928 93.6585 73.2104V61.4881C93.6585 60.7805 94.2223 60.207 94.9564 60.1906H106.678C107.396 60.1906 107.976 60.7705 107.976 61.4881V73.2104C107.976 73.928 107.396 74.5073 106.678 74.5073Z" fill="#3F3F3F"/>
<path fill-rule="evenodd" clip-rule="evenodd" d="M78.0915 59.855C77.1918 59.855 76.459 60.5888 76.459 61.4882V67.3077C76.0955 67.2008 75.6879 67.2643 75.3701 67.5166C74.8514 67.9282 74.7637 68.6875 75.1756 69.2063L76.5994 71.0017L73.2776 86.0207L71.3427 87.2104V49.3677C71.3427 48.4176 72.1014 47.6499 73.0777 47.6334H84.6656C84.7567 50.6925 87.2533 53.1519 90.3339 53.1519H111.301C114.382 53.1519 116.879 50.6925 116.97 47.6334H128.557C129.517 47.6334 130.292 48.4075 130.292 49.3677V163.844C130.292 164.804 129.517 165.579 128.557 165.579H73.0774C72.1175 165.579 71.3424 164.804 71.3424 163.844V151.48L71.9462 150.878C72.1548 150.704 72.351 150.509 72.5311 150.294C73.7739 148.807 73.9288 146.768 73.0787 145.15L71.3424 140.351V96.0715L76.4587 92.5397V94.6382C76.4587 95.5379 77.1914 96.2714 78.0912 96.2714H89.8131C90.7129 96.2714 91.4467 95.5379 91.4467 94.6382V82.9159C91.4467 82.0165 90.7129 81.2834 89.8131 81.2834H81.3055C81.7497 78.8589 81.962 77.7015 82.4861 74.8426H89.8131C90.7129 74.8426 91.4467 74.1095 91.4467 73.2101V61.4878C91.4467 60.5884 90.7129 59.8546 89.8131 59.8546L78.0915 59.855ZM106.679 144.191H94.9567C94.0569 144.191 93.3231 144.925 93.3231 145.825V157.547C93.3231 158.446 94.0569 159.179 94.9567 159.179H106.679C107.578 159.179 108.311 158.447 108.311 157.547V145.825C108.311 144.925 107.578 144.191 106.679 144.191ZM89.8135 144.191H78.0915C77.1918 144.191 76.459 144.925 76.459 145.825V157.547C76.459 158.446 77.1918 159.179 78.0915 159.179H89.8135C90.7132 159.179 91.447 158.446 91.447 157.547V145.825C91.447 144.925 90.7132 144.191 89.8135 144.191ZM123.543 144.191H111.821C110.921 144.191 110.188 144.925 110.188 145.825V157.547C110.188 158.447 110.921 159.179 111.821 159.179H123.543C124.443 159.179 125.176 158.447 125.176 157.547V145.825C125.176 144.925 124.443 144.191 123.543 144.191ZM31.4782 116.458L37.5157 118.653L31.1641 134.326C31.1449 134.373 31.1483 134.426 31.1725 134.47L32.3165 136.547C32.548 136.968 32.3954 137.494 31.9741 137.726C31.5535 137.958 31.028 137.805 30.7962 137.384L30.4639 136.781C30.4343 136.727 30.3779 136.694 30.3174 136.694C30.2492 136.694 30.1874 136.736 30.1622 136.799L29.3756 138.74C29.1206 139.369 28.4164 139.682 27.7784 139.45C27.0399 139.182 26.1032 138.841 25.2952 138.548C24.3927 138.219 23.9298 137.226 24.2577 136.324C26.1368 131.154 31.3945 116.687 31.4782 116.458ZM106.679 102.712H94.9567C94.0569 102.712 93.3231 103.445 93.3231 104.344V116.067C93.3231 116.966 94.0569 117.7 94.9567 117.7H106.679C107.578 117.7 108.311 116.966 108.311 116.067V104.344C108.311 103.445 107.578 102.712 106.679 102.712ZM89.8135 102.712H78.0915C77.1918 102.712 76.459 103.445 76.459 104.344V116.067C76.459 116.966 77.1918 117.7 78.0915 117.7H89.8135C90.7132 117.7 91.447 116.966 91.447 116.067V104.344C91.447 103.445 90.7132 102.712 89.8135 102.712ZM123.543 102.712H111.821C110.921 102.712 110.188 103.445 110.188 104.344V116.067C110.188 116.966 110.921 117.7 111.821 117.7H123.543C124.443 117.7 125.176 116.966 125.176 116.067V104.344C125.176 103.445 124.443 102.712 123.543 102.712ZM106.679 81.2837H94.9567C94.0569 81.2837 93.3231 82.0168 93.3231 82.9162V94.6385C93.3231 95.5383 94.0569 96.2717 94.9567 96.2717H106.679C107.578 96.2717 108.311 95.5383 108.311 94.6385V82.9162C108.311 82.0168 107.578 81.2837 106.679 81.2837ZM123.543 81.2837H111.821C110.921 81.2837 110.188 82.0168 110.188 82.9162V94.6385C110.188 95.5383 110.921 96.2717 111.821 96.2717H123.543C124.443 96.2717 125.176 95.5383 125.176 94.6385V82.9162C125.176 82.0168 124.443 81.2837 123.543 81.2837ZM54.0418 80.4384C55.1734 80.4024 56.1753 81.2017 56.3739 82.3404C56.684 84.1237 57.109 86.5707 57.4171 88.3416C57.569 89.2131 57.3489 90.1085 56.8103 90.8094C56.2721 91.5105 55.4647 91.9544 54.5838 92.033C52.3825 92.2295 51.7223 92.1566 51.7223 92.1566C51.7152 92.1556 51.7081 92.1553 51.7011 92.1553C51.6087 92.1553 51.5334 92.2309 51.5334 92.3229C51.5334 92.4093 51.6003 92.4822 51.686 92.4899C51.686 92.4899 52.3616 92.5474 54.2579 92.3935L54.568 95.1374L48.9367 95.5924C49.7719 92.876 50.4341 89.3949 51.0923 85.1149C52.323 83.6927 52.6771 82.175 52.4483 80.6339C52.5736 80.6175 53.0857 80.5509 53.8134 80.4562C53.8903 80.4468 53.9666 80.4407 54.0418 80.4384ZM79.1808 65.3583C79.2628 65.357 79.3454 65.364 79.4291 65.3795C80.2018 65.5209 81.1822 65.701 82.0279 65.8559C82.9723 66.0286 83.5942 66.93 83.4215 67.8745C82.4223 73.3294 79.5813 88.8318 79.5813 88.8318C79.4217 89.7057 78.9221 90.4307 78.2451 90.8987C78.2404 90.9018 78.236 90.9048 78.232 90.9085L76.9815 91.7716L73.6049 86.0979L76.9448 70.9967C76.9556 70.9473 76.9435 70.8956 76.9119 70.8566L75.4386 68.9986C75.1396 68.622 75.2025 68.0787 75.5788 67.78C75.955 67.481 76.4993 67.5439 76.7977 67.9202L77.225 68.4587C77.257 68.4994 77.3053 68.5229 77.3571 68.5229C77.4354 68.5229 77.5036 68.4678 77.5207 68.3912L77.9726 66.3464C78.1013 65.7659 78.6086 65.367 79.1808 65.3583ZM94.9567 59.855C94.0569 59.855 93.3231 60.5884 93.3231 61.4882V73.2105C93.3231 74.1099 94.0569 74.843 94.9567 74.843H106.679C107.578 74.843 108.311 74.1099 108.311 73.2105V61.4882C108.311 60.5884 107.578 59.855 106.679 59.855H94.9567ZM111.821 59.855C110.921 59.855 110.188 60.5884 110.188 61.4882V73.2105C110.188 74.1099 110.921 74.843 111.821 74.843H123.543C124.443 74.843 125.176 74.1099 125.176 73.2105V61.4882C125.176 60.5884 124.443 59.855 123.543 59.855H111.821Z" fill="#FFD2BB"/>
<path fill-rule="evenodd" clip-rule="evenodd" d="M65.6379 161.528H61.2732L65.6379 157.172V161.528ZM42.9785 161.528H26.6553C26.7453 156.038 31.2242 151.611 36.7363 151.611C37.5141 151.611 38.2704 151.7 38.9981 151.867C39.0126 151.873 39.0277 151.877 39.0435 151.878C39.1113 151.898 40.421 152.277 41.311 153.315C41.3429 153.352 41.3896 153.374 41.4387 153.374C41.5311 153.374 41.6063 153.298 41.6063 153.206C41.6063 153.166 41.5922 153.128 41.566 153.097C40.7422 152.136 39.6466 151.722 39.276 151.601C40.0333 149.272 41.6167 147.315 43.6796 146.073L44.1863 149.54L42.9785 161.528ZM175.102 161.528H145.501V134.282C149.112 135.816 151.652 139.391 151.653 143.561L151.611 144.382C151.253 144.425 149.754 144.665 148.697 145.852C148.666 145.884 148.649 145.926 148.649 145.97C148.649 146.062 148.725 146.138 148.816 146.138C148.867 146.138 148.916 146.114 148.947 146.075C150.033 144.854 151.765 144.698 151.78 144.697C151.784 144.697 151.788 144.696 151.792 144.696C152.152 144.653 152.518 144.633 152.89 144.633C157.364 144.633 161.154 147.554 162.471 151.59C162.473 151.596 162.474 151.603 162.476 151.608C162.069 151.727 160.751 152.176 159.805 153.345C159.78 153.375 159.766 153.414 159.766 153.453C159.766 153.545 159.842 153.621 159.933 153.621C159.985 153.621 160.034 153.597 160.066 153.556C161.098 152.281 162.727 151.883 162.731 151.882C162.732 151.882 162.733 151.882 162.733 151.882C162.733 151.882 162.734 151.882 162.734 151.882C163.463 151.702 164.231 151.611 165.021 151.611C170.533 151.611 175.012 156.038 175.102 161.528ZM57.0341 138.98C57.5895 138.98 58.1301 139.041 58.6515 139.154L63.286 146.865L51.3403 161.146L53.3125 150.905C53.3871 150.644 53.4405 150.373 53.4684 150.094C53.4838 149.942 53.4909 149.791 53.4912 149.642L54.4804 139.423C55.2793 139.138 56.1374 138.98 57.0341 138.98ZM106.679 158.844H94.9567C94.2387 158.844 93.6588 158.264 93.6588 157.547V145.824C93.6588 145.107 94.2387 144.527 94.9567 144.527H106.679C107.396 144.527 107.976 145.107 107.976 145.824V157.547C107.976 158.264 107.396 158.844 106.679 158.844ZM37.6115 99.5817C37.9106 100.249 38.3487 100.865 38.9309 101.375C39.7988 102.136 40.8544 102.56 41.9319 102.652L42.5827 106.713L37.6451 118.342L31.5921 116.142L37.6115 99.5817ZM89.8135 117.364H78.0916C77.3739 117.364 76.7947 116.784 76.7947 116.066V104.344C76.7947 103.626 77.3736 103.047 78.0916 103.047H89.8135C90.5315 103.047 91.1114 103.626 91.1114 104.344V116.066C91.1114 116.784 90.5315 117.364 89.8135 117.364ZM73.3694 86.3582L76.7047 91.962L63.074 101.371C61.3904 102.534 59.0846 102.111 57.9225 100.427C56.7603 98.7438 57.183 96.4373 58.8666 95.2751C58.9764 95.1995 59.0896 95.1303 59.2049 95.0675C59.2072 95.0661 59.2096 95.0645 59.2119 95.0631L73.3694 86.3582ZM106.679 81.6193C107.397 81.6193 107.976 82.1985 107.976 82.9161V94.6384C107.976 95.3561 107.397 95.936 106.679 95.936H94.9567C94.2387 95.936 93.6588 95.3561 93.6588 94.6384V82.9161C93.6588 82.1985 94.2387 81.6193 94.9567 81.6193H106.679ZM123.543 74.5073H111.821C111.103 74.5073 110.523 73.928 110.523 73.2104V61.4881C110.523 60.7805 111.087 60.207 111.821 60.1906H123.543C124.261 60.1906 124.841 60.7705 124.841 61.4881V73.2104C124.841 73.928 124.261 74.5073 123.543 74.5073Z" fill="#F48850"/>
<path fill-rule="evenodd" clip-rule="evenodd" d="M137.723 170.948H130.995C133.893 170.027 135.996 167.313 135.996 164.113V49.0982C135.996 45.899 133.893 43.185 130.995 42.2644H137.723C139.697 42.2644 141.589 43.0482 142.985 44.4442C144.381 45.8399 145.165 47.7321 145.165 49.706V161.669C145.162 161.687 145.162 161.705 145.165 161.724V163.506C145.165 165.48 144.381 167.372 142.985 168.768C141.589 170.164 139.697 170.948 137.723 170.948ZM58.4664 95.1602C56.812 96.4682 56.431 98.8583 57.6459 100.618C58.5067 101.865 59.9481 102.475 61.3592 102.341L63.9002 120.647L43.1387 122.3L44.6358 117.515C44.6432 117.49 44.6452 117.464 44.6409 117.438L42.2749 102.668C43.6013 102.695 44.9338 102.225 45.967 101.255C45.968 101.254 45.969 101.253 45.9697 101.252C47.1536 100.091 48.0631 98.3204 48.8282 95.9377L58.4664 95.1602ZM140.92 79.2385H140.919C139.841 79.2385 138.964 80.1158 138.964 81.1939V90.8452C138.964 91.9234 139.841 92.801 140.919 92.801H140.92C141.998 92.801 142.876 91.9234 142.876 90.8452V81.1939C142.876 80.1158 141.998 79.2385 140.92 79.2385ZM140.92 63.8799H140.919C139.841 63.8799 138.964 64.7578 138.964 65.8357V75.4866C138.964 76.5645 139.841 77.4424 140.919 77.4424H140.92C141.998 77.4424 142.876 76.5645 142.876 75.4866V65.8357C142.876 64.7578 141.998 63.8799 140.92 63.8799ZM108.973 49.0193H92.9217C92.537 49.0193 92.2292 48.7115 92.2292 48.3268V48.3261C92.2292 47.9414 92.5373 47.6337 92.9217 47.6337H108.973C109.358 47.6337 109.666 47.9418 109.666 48.3261V48.3268C109.666 48.7115 109.358 49.0193 108.973 49.0193Z" fill="#DDDDDD"/>
<path fill-rule="evenodd" clip-rule="evenodd" d="M41.9961 174.622L48.3972 175.267C48.462 175.343 50.4265 177.64 51.0514 178.371C51.1395 178.474 51.1818 178.609 51.168 178.743C51.1673 178.748 51.167 178.753 51.1667 178.758L51.1673 178.744C51.0803 179.608 50.313 180.236 49.4475 180.149C47.6476 179.968 44.8462 179.685 43.0561 179.504C42.2058 179.419 41.5893 178.664 41.6749 177.814C41.8157 176.417 41.9787 174.796 41.9961 174.622ZM49.266 164.149L54.1996 168.275C54.2103 168.373 54.5466 171.379 54.6535 172.335C54.6686 172.47 54.6283 172.604 54.5412 172.708C54.5409 172.708 54.5409 172.709 54.5406 172.709C53.9832 173.376 52.9954 173.463 52.3285 172.905C50.9406 171.745 48.7812 169.939 47.4014 168.784C46.7455 168.236 46.6592 167.265 47.2075 166.61C48.1083 165.532 49.1545 164.281 49.266 164.149ZM73.0775 47.2981C71.9362 47.2981 71.0072 48.2267 71.0072 49.3681V87.417L65.9736 90.512V49.0983C65.9736 45.3249 69.0344 42.2645 72.8084 42.2645H128.826C132.6 42.2645 135.661 45.3249 135.661 49.0983V164.113C135.661 167.887 132.6 170.948 128.826 170.948H72.8084C69.0344 170.948 65.9736 167.887 65.9736 164.113V156.837L71.0072 151.815V163.843C71.0072 164.985 71.9365 165.914 73.0775 165.914H128.557C129.698 165.914 130.627 164.985 130.627 163.843V49.3677C130.627 48.2264 129.698 47.2978 128.557 47.2978H116.819C116.727 47.2978 116.651 47.3737 116.651 47.4654C116.651 50.422 114.258 52.8162 111.301 52.8162H90.3337C87.3768 52.8162 84.9836 50.4227 84.9836 47.4654C84.9836 47.3733 84.9077 47.2978 84.8159 47.2978L73.0775 47.2981ZM89.8136 158.844H78.0917C77.3737 158.844 76.7948 158.264 76.7948 157.547V145.824C76.7948 145.107 77.3737 144.527 78.0917 144.527H89.8136C90.5316 144.527 91.1115 145.107 91.1115 145.824V157.547C91.1115 158.264 90.5316 158.844 89.8136 158.844ZM71.0072 96.3029V139.423L65.9736 125.51V99.7776L71.0072 96.3029ZM106.679 103.047C107.397 103.047 107.976 103.627 107.976 104.344V116.067C107.976 116.784 107.397 117.364 106.679 117.364H94.9568C94.2388 117.364 93.6589 116.784 93.6589 116.067V104.344C93.6589 103.627 94.2388 103.047 94.9568 103.047H106.679ZM123.543 81.6193C124.277 81.6358 124.841 82.2086 124.841 82.9162V94.6385C124.841 95.3561 124.261 95.936 123.543 95.936H111.821C111.104 95.936 110.524 95.3561 110.524 94.6385V82.9162C110.524 82.1985 111.104 81.6193 111.821 81.6193H123.543ZM140.92 92.4654H140.919C140.023 92.4654 139.299 91.7423 139.299 90.8453V81.194C139.299 80.2969 140.023 79.5742 140.919 79.5742H140.92C141.817 79.5742 142.54 80.2969 142.54 81.194V90.8453C142.54 91.7423 141.817 92.4654 140.92 92.4654ZM140.92 77.1068H140.919C140.023 77.1068 139.299 76.3834 139.299 75.4867V65.8357C139.299 64.939 140.023 64.2156 140.919 64.2156H140.92C141.817 64.2156 142.54 64.939 142.54 65.8357V75.4867C142.54 76.3834 141.817 77.1068 140.92 77.1068ZM89.8136 74.5073H82.5477C83.0789 71.6085 83.4384 69.6457 83.7519 67.9349C83.9575 66.8121 83.2113 65.7312 82.0885 65.5256C81.2428 65.3707 80.2628 65.1913 79.4897 65.0499C78.6474 64.896 77.8303 65.4376 77.6455 66.2738L77.2692 67.9745L77.0609 67.7118C77.0609 67.7115 77.0609 67.7115 77.0609 67.7111C76.9839 67.614 76.8919 67.5378 76.7948 67.4713V61.4888C76.7948 60.7708 77.374 60.1913 78.0917 60.1913H89.8136C90.5316 60.1913 91.1115 60.7712 91.1115 61.4888V73.2111C91.1115 73.9281 90.5316 74.5073 89.8136 74.5073ZM172.074 67.094H166.753C166.845 65.6949 167.972 64.5805 169.413 64.5674C170.843 64.5674 171.982 65.6875 172.074 67.094ZM163.369 67.094H145.501V58.976C146.151 58.8178 146.828 58.7301 147.526 58.7301C150.953 58.7301 153.909 60.754 155.265 63.6686C155.293 63.7278 155.353 63.7654 155.417 63.7654C155.458 63.7654 155.498 63.7503 155.529 63.7231C156.363 62.9836 157.458 62.5354 158.659 62.5354C161.212 62.5357 163.278 64.5634 163.369 67.094ZM108.973 47.2981H92.9218C92.356 47.2981 91.8937 47.7604 91.8937 48.3262V48.3269C91.8937 48.8926 92.356 49.3546 92.9218 49.3546H108.973C109.539 49.3546 110.002 48.8926 110.002 48.3269V48.3262C110.002 47.7604 109.539 47.2981 108.973 47.2981ZM85.2749 30.0073H60.9171C61.0088 25.7313 64.4899 22.2878 68.7874 22.2878C72.2547 22.2878 75.1999 24.5285 76.2545 27.639C76.2777 27.7065 76.3419 27.7522 76.4131 27.7522C76.4709 27.7522 76.5247 27.7226 76.5552 27.6736C77.3888 26.3377 78.8735 25.4477 80.5655 25.4477C83.1179 25.4477 85.1838 27.4747 85.2749 30.0073ZM56.7644 30.0073H50.0122C50.104 28.2162 51.5467 26.7816 53.3885 26.7644C55.2119 26.7644 56.6707 28.2038 56.7644 30.0073Z" fill="#A0A0A0"/>
<path d="M112.736 19.0961C112.554 19.0991 112.406 19.2496 112.406 19.4317C112.406 19.4337 112.406 19.4354 112.406 19.4371V21.9072C112.406 21.9089 112.406 21.9106 112.406 21.9122C112.406 22.096 112.557 22.2479 112.741 22.2479C112.925 22.2479 113.077 22.0964 113.077 21.9122C113.077 21.9106 113.077 21.9089 113.077 21.9072V19.4371C113.077 19.4354 113.077 19.4337 113.077 19.4317C113.077 19.2479 112.925 19.0961 112.741 19.0961C112.739 19.0961 112.738 19.0961 112.736 19.0961ZM108.503 20.8522C108.319 20.8526 108.168 21.0038 108.168 21.1879C108.168 21.2786 108.204 21.3649 108.269 21.4284L110.016 23.1759C110.079 23.2417 110.167 23.279 110.258 23.279C110.442 23.279 110.594 23.1278 110.594 22.9434C110.594 22.852 110.556 22.7646 110.491 22.7015L108.744 20.954C108.681 20.8885 108.593 20.8519 108.503 20.8522ZM116.97 20.8522C116.883 20.8549 116.8 20.8912 116.74 20.954L114.992 22.7015C114.926 22.7646 114.889 22.852 114.889 22.9434C114.889 23.1275 115.04 23.279 115.224 23.279C115.316 23.279 115.403 23.2417 115.466 23.1759L117.214 21.4284C117.279 21.3649 117.316 21.2786 117.316 21.1875C117.316 21.0038 117.164 20.8519 116.98 20.8519C116.977 20.8519 116.973 20.8522 116.97 20.8522ZM68.7873 21.7859C64.1602 21.7859 60.3966 25.5489 60.3966 30.1766C60.3966 30.3608 60.5481 30.5123 60.7322 30.5123H85.4596C85.6433 30.5123 85.7952 30.3608 85.7952 30.1766C85.7952 30.1763 85.7952 30.1763 85.7952 30.176C85.7942 27.2909 83.4474 24.9458 80.5657 24.9458C78.9107 24.9458 77.4613 25.7437 76.5034 26.9476C75.2361 23.9221 72.2667 21.7859 68.7873 21.7859ZM68.7873 22.4572C72.1824 22.4572 75.063 24.6501 76.0955 27.6941C76.1415 27.8298 76.2695 27.9216 76.4133 27.9216C76.5289 27.9216 76.6364 27.8618 76.6976 27.764C77.5019 26.4758 78.9328 25.6171 80.566 25.6171C82.97 25.6171 84.9149 27.4794 85.0903 29.8413H76.842H61.1025C61.2812 25.736 64.6383 22.4572 68.7873 22.4572ZM106.752 25.0906C106.751 25.0906 106.749 25.0906 106.748 25.0906C106.563 25.0906 106.412 25.2418 106.412 25.4262C106.412 25.61 106.563 25.7619 106.748 25.7619C106.749 25.7619 106.751 25.7619 106.752 25.7619H109.223C109.225 25.7619 109.226 25.7619 109.228 25.7619C109.412 25.7619 109.564 25.6104 109.564 25.4262C109.564 25.2421 109.412 25.0906 109.228 25.0906C109.226 25.0906 109.225 25.0906 109.223 25.0906H106.752ZM116.259 25.0906C116.258 25.0906 116.256 25.0906 116.255 25.0906C116.071 25.0906 115.919 25.2418 115.919 25.4262C115.919 25.61 116.07 25.7619 116.255 25.7619C116.256 25.7619 116.258 25.7619 116.259 25.7619H118.73C118.732 25.7619 118.734 25.7619 118.735 25.7619C118.919 25.7619 119.071 25.6104 119.071 25.4262C119.071 25.2421 118.919 25.0906 118.735 25.0906C118.734 25.0906 118.732 25.0906 118.73 25.0906H116.259ZM53.3887 26.2625C51.2324 26.2625 49.4749 28.02 49.4749 30.1766C49.4752 30.3608 49.6264 30.5123 49.8106 30.5123H56.9666C57.1503 30.5123 57.3022 30.3608 57.3022 30.1766C57.3022 30.1763 57.3022 30.1763 57.3022 30.176C57.2998 28.0176 55.5437 26.2625 53.3887 26.2625ZM53.3887 26.9334C55.0616 26.9334 56.3863 28.2115 56.563 29.8407H50.2141C50.3888 28.2139 51.7149 26.9334 53.3887 26.9334ZM115.226 27.5745C115.226 27.5745 115.226 27.5745 115.225 27.5745C115.041 27.5745 114.89 27.7257 114.89 27.9101C114.89 28.0012 114.927 28.0879 114.992 28.1514L116.74 29.8988C116.803 29.9646 116.89 30.0019 116.981 30.0019C117.166 30.0019 117.317 29.8507 117.317 29.6663C117.317 29.5749 117.28 29.4876 117.214 29.4244L115.466 27.677C115.403 27.6118 115.317 27.5748 115.226 27.5745ZM110.247 27.5752C110.159 27.5778 110.077 27.6141 110.016 27.677L108.269 29.4244C108.203 29.4876 108.166 29.5749 108.166 29.6663C108.166 29.8504 108.317 30.0019 108.502 30.0019C108.593 30.0019 108.68 29.9646 108.744 29.8988L110.491 28.1514C110.555 28.0882 110.592 28.0015 110.592 27.9108C110.592 27.7267 110.441 27.5752 110.257 27.5752C110.253 27.5752 110.25 27.5752 110.247 27.5752ZM112.736 28.6039C112.554 28.607 112.406 28.7575 112.406 28.9396C112.406 28.9416 112.406 28.9433 112.406 28.9449V31.4151C112.406 31.4167 112.406 31.4184 112.406 31.4201C112.406 31.6039 112.557 31.7557 112.741 31.7557C112.925 31.7557 113.077 31.6042 113.077 31.4201C113.077 31.4184 113.077 31.4167 113.077 31.4151V28.9449C113.077 28.9433 113.077 28.9416 113.077 28.9396C113.077 28.7558 112.925 28.6039 112.741 28.6039C112.739 28.6039 112.738 28.6039 112.736 28.6039ZM72.8083 41.7622C68.7618 41.7622 65.4702 45.0534 65.4702 49.0996V90.6259L58.9828 94.614L55.0511 94.9315L54.7777 92.5151C55.7399 92.3888 56.6161 91.8899 57.2091 91.1171C57.8334 90.3044 58.0891 89.2672 57.913 88.2573C57.7286 87.1969 57.5065 85.9215 57.2878 84.6643C57.3093 84.5968 57.6479 83.5472 58.0867 82.1848C58.509 80.8725 58.3138 79.4378 57.5552 78.2858C56.7966 77.134 55.5558 76.3892 54.183 76.2598C53.2469 76.1714 52.2907 76.0814 51.4132 75.9984C49.0418 75.7753 46.7075 76.7141 45.1529 78.5186C45.1529 78.5186 45.1529 78.5189 45.1529 78.5193C44.9832 78.7161 44.8891 78.8247 44.876 78.8398C44.8606 78.8532 44.2921 79.3454 43.691 79.8645C42.7889 80.6437 42.2275 81.7457 42.1274 82.9334C42.0518 83.8271 41.9567 84.957 41.8647 86.0459C41.6594 88.479 40.7193 90.7932 39.1701 92.6814C39.0549 92.8219 38.9443 92.966 38.8385 93.1132C38.6685 93.35 38.3678 93.769 37.9949 94.2877C36.96 95.7277 36.7356 97.5212 37.2486 99.1077L31.0613 116.13C31.0613 116.13 25.6779 130.942 23.7836 136.155C23.363 137.312 23.9644 138.602 25.1225 139.023C25.9305 139.317 26.8676 139.657 27.6057 139.926C28.4941 140.249 29.4865 139.806 29.8417 138.931L30.3644 137.64C30.7317 138.29 31.5619 138.529 32.2167 138.169C32.8766 137.805 33.1191 136.966 32.7559 136.307L31.6895 134.369L38.0473 118.682L42.6085 107.94L44.1305 117.442L42.583 122.389C42.583 122.389 42.583 122.39 42.583 122.39C41.4175 125.82 41.0825 129.477 41.6066 133.062L43.4431 145.629C41.4447 146.825 39.8888 148.668 39.0287 150.862C38.4434 149.655 37.7449 148.381 36.9093 147.072C38.4279 146.568 39.7708 145.518 40.6027 144.009C41.5089 142.365 41.6379 140.497 41.1107 138.837C41.065 138.693 40.9286 138.597 40.7781 138.603C40.7536 138.603 40.729 138.607 40.7055 138.613C39.0193 139.054 37.509 140.16 36.6032 141.804C35.9672 142.958 35.7216 144.221 35.8097 145.446C35.3732 144.838 34.9106 144.226 34.4083 143.614C34.3448 143.533 34.248 143.486 34.1455 143.486C33.9618 143.486 33.8096 143.638 33.8096 143.822C33.8096 143.902 33.8378 143.978 33.8892 144.039C34.3182 144.563 34.714 145.084 35.094 145.605C34.0723 145.117 32.9135 144.882 31.706 144.985C29.836 145.145 28.2105 146.076 27.1229 147.437C27.0117 147.576 27.0292 147.78 27.1622 147.898C28.4652 149.055 30.2247 149.696 32.0947 149.536C33.7908 149.391 35.2801 148.608 36.3553 147.45C37.2003 148.775 37.9018 150.065 38.4871 151.283C37.9166 151.18 37.335 151.11 36.7353 151.11C31.0075 151.11 26.3337 155.677 26.1553 161.363H17.0405C17.0389 161.363 17.0375 161.363 17.0358 161.363C16.8517 161.363 16.7002 161.514 16.7002 161.699C16.7002 161.882 16.8514 162.034 17.0358 162.034C17.0375 162.034 17.0389 162.034 17.0405 162.034H42.759L41.5126 174.407C41.5126 174.407 41.3221 176.296 41.1735 177.766C41.0607 178.887 41.8845 179.894 43.0053 180.007C44.7957 180.188 47.5968 180.47 49.397 180.652C50.5033 180.763 51.4928 179.971 51.649 178.88V178.879C51.6514 178.863 51.6554 178.847 51.6574 178.829C51.6578 178.828 51.6578 178.828 51.6581 178.827C51.6594 178.816 51.6668 178.807 51.6682 178.796C51.6682 178.795 51.6682 178.794 51.6682 178.793C51.6682 178.791 51.6652 178.789 51.6655 178.786V178.785C51.6893 178.518 51.6084 178.25 51.4333 178.046C50.8225 177.332 48.9894 175.189 48.8399 175.014L49.5646 171.252C50.4422 171.986 51.3177 172.719 52.0052 173.294C52.8451 173.997 54.0755 173.898 54.8217 173.117C54.8281 173.114 54.8344 173.111 54.8408 173.107C54.8412 173.107 54.8415 173.107 54.8422 173.107C54.8428 173.106 54.8438 173.105 54.8449 173.105C54.8449 173.105 54.8475 173.103 54.8482 173.103C54.8613 173.095 54.8741 173.085 54.8862 173.075C54.8865 173.075 54.8868 173.074 54.8875 173.074C54.8882 173.073 54.8919 173.07 54.8919 173.07C54.8922 173.07 54.907 173.056 54.907 173.056C54.9144 173.049 54.9211 173.041 54.9275 173.034C55.1022 172.825 55.1845 172.553 55.1543 172.282C55.0495 171.348 54.736 168.544 54.7105 168.316L61.0064 162.034H65.4705V164.116C65.4705 168.162 68.7621 171.453 72.8083 171.453H137.723C139.83 171.453 141.851 170.616 143.341 169.126C144.831 167.636 145.669 165.615 145.669 163.507V162.033H182.716C182.718 162.033 182.72 162.033 182.721 162.033C182.905 162.033 183.057 161.882 183.057 161.698C183.057 161.514 182.905 161.362 182.721 161.362C182.72 161.362 182.718 161.362 182.716 161.362H175.601C175.423 155.677 170.749 151.109 165.021 151.109C164.366 151.109 163.734 151.196 163.114 151.319C163.778 149.823 164.627 148.231 165.708 146.576C166.784 147.747 168.282 148.539 169.989 148.685C171.859 148.845 173.618 148.203 174.921 147.046C175.054 146.928 175.071 146.724 174.96 146.586C173.872 145.224 172.248 144.294 170.377 144.134C169.163 144.03 167.997 144.269 166.971 144.762C167.683 143.799 168.473 142.821 169.357 141.83C170.611 142.864 172.245 143.445 173.991 143.325C175.863 143.195 177.503 142.291 178.613 140.948C178.726 140.811 178.712 140.607 178.581 140.488C177.298 139.309 175.549 138.639 173.676 138.768C173.09 138.808 172.526 138.925 171.994 139.107C172.324 138.793 172.662 138.478 173.011 138.163C173.084 138.099 173.125 138.007 173.125 137.911C173.125 137.729 172.979 137.579 172.797 137.575C172.71 137.573 172.626 137.605 172.562 137.665C172.038 138.138 171.542 138.61 171.06 139.081C171.302 138.341 171.417 137.545 171.378 136.723C171.288 134.848 170.419 133.189 169.099 132.051C169.04 131.999 168.963 131.97 168.885 131.969C168.792 131.968 168.703 132.006 168.638 132.073C167.433 133.331 166.726 135.065 166.816 136.94C166.899 138.697 167.674 140.259 168.855 141.386C167.894 142.464 167.039 143.529 166.274 144.577C166.359 143.357 166.113 142.101 165.48 140.953C164.574 139.309 163.064 138.203 161.378 137.762C161.345 137.754 161.312 137.75 161.278 137.751C161.137 137.757 161.015 137.851 160.973 137.985C160.445 139.646 160.574 141.514 161.48 143.158C162.306 144.657 163.638 145.704 165.145 146.211C164.129 147.767 163.31 149.271 162.658 150.695C161.072 146.848 157.302 144.132 152.89 144.132C152.661 144.132 152.435 144.151 152.208 144.169C152.147 143.654 151.904 140.961 153.066 136.827C153.219 136.281 153.399 135.712 153.605 135.124C154.854 136.088 156.449 136.614 158.143 136.48C160.014 136.332 161.645 135.411 162.741 134.057C162.853 133.918 162.836 133.714 162.704 133.596C161.408 132.431 159.653 131.779 157.782 131.927C156.484 132.03 155.307 132.511 154.339 133.244C155.023 131.649 155.919 129.941 157.083 128.159C158.159 129.33 159.656 130.122 161.363 130.268C163.233 130.428 164.992 129.786 166.295 128.629C166.428 128.511 166.445 128.308 166.335 128.17C165.247 126.808 163.622 125.877 161.752 125.718C160.538 125.613 159.373 125.852 158.347 126.345C159.059 125.383 159.849 124.404 160.732 123.414C161.986 124.447 163.619 125.028 165.364 124.908C167.237 124.779 168.877 123.875 169.987 122.532C170.101 122.395 170.087 122.191 169.955 122.071C168.672 120.893 166.923 120.222 165.051 120.352C164.468 120.392 163.907 120.507 163.379 120.687C163.707 120.374 164.038 120.061 164.385 119.747C164.458 119.683 164.5 119.591 164.5 119.494C164.5 119.313 164.353 119.162 164.171 119.159C164.084 119.157 164 119.189 163.936 119.249C163.411 119.722 162.915 120.195 162.433 120.666C162.676 119.926 162.791 119.13 162.752 118.306C162.662 116.431 161.793 114.773 160.474 113.634C160.414 113.583 160.338 113.554 160.259 113.553C160.166 113.552 160.077 113.589 160.012 113.656C158.807 114.914 158.1 116.649 158.19 118.524C158.274 120.281 159.048 121.842 160.231 122.97C159.27 124.047 158.413 125.113 157.649 126.16C157.733 124.94 157.487 123.684 156.855 122.536C156.854 122.536 156.854 122.536 156.854 122.536C155.948 120.892 154.438 119.786 152.752 119.346C152.719 119.337 152.686 119.334 152.652 119.335C152.511 119.341 152.39 119.435 152.347 119.568C151.819 121.229 151.948 123.097 152.855 124.741C152.855 124.741 152.855 124.741 152.855 124.742C153.681 126.242 155.013 127.288 156.521 127.795C155.482 129.386 154.653 130.921 153.993 132.373C153.922 131.389 153.636 130.405 153.1 129.5V129.499C152.144 127.884 150.599 126.825 148.901 126.436C148.879 126.431 148.857 126.428 148.835 126.428C148.682 126.424 148.546 126.525 148.504 126.672C148.028 128.348 148.214 130.211 149.171 131.826C150.059 133.326 151.456 134.339 153.01 134.788C152.782 135.43 152.586 136.051 152.418 136.645C152.028 138.035 151.797 139.283 151.66 140.359C150.719 137.399 148.507 135.005 145.668 133.809V67.5986H163.553C163.737 67.5983 163.888 67.4471 163.888 67.263C163.888 64.3799 161.541 62.0335 158.658 62.0335C157.478 62.0335 156.418 62.4726 155.542 63.1358C154.041 60.2272 151.019 58.2282 147.525 58.2282C146.888 58.2282 146.268 58.2977 145.668 58.4234V49.7071C145.668 47.6002 144.831 45.5796 143.341 44.0895C141.85 42.5995 139.829 41.7619 137.722 41.7619H128.826L72.8083 41.7622ZM72.8083 42.4331H128.826C132.509 42.4331 135.493 45.4166 135.493 49.0996V164.115C135.493 167.798 132.509 170.781 128.826 170.781H72.8083C69.125 170.781 66.1411 167.798 66.1411 164.115V156.909L70.8391 152.221V163.845C70.8391 165.077 71.8454 166.083 73.0774 166.083H128.557C129.789 166.083 130.795 165.077 130.795 163.845V49.3687C130.795 48.1367 129.789 47.1311 128.557 47.1311H116.819C116.635 47.1311 116.483 47.2827 116.483 47.4668C116.483 50.3333 114.167 52.6499 111.301 52.6499H90.3336C87.4674 52.6499 85.1515 50.333 85.1515 47.4668C85.1515 47.283 84.9999 47.1311 84.8158 47.1311H73.0771C71.845 47.1311 70.8388 48.1367 70.8388 49.3687V87.3246L66.1408 90.213V49.0996C66.1415 45.417 69.1253 42.4331 72.8083 42.4331ZM131.886 42.4331H137.723C139.652 42.4331 141.502 43.1995 142.867 44.5639C144.231 45.9283 144.997 47.7776 144.997 49.7067V161.641C144.991 161.677 144.991 161.714 144.997 161.75V163.507C144.997 165.436 144.231 167.286 142.867 168.65C141.502 170.015 139.652 170.781 137.723 170.781H131.886C134.409 169.619 136.164 167.068 136.164 164.114V49.0996C136.164 46.1454 134.408 43.5953 131.886 42.4331ZM92.9216 47.1311C92.2651 47.1311 91.7256 47.6707 91.7256 48.3276V48.3282C91.7256 48.9847 92.2651 49.5236 92.9216 49.5236H108.973C109.63 49.5236 110.17 48.9847 110.17 48.3282V48.3276C110.17 47.6707 109.63 47.1311 108.973 47.1311H92.9216ZM73.0774 47.8024H84.5145C84.6922 50.8726 87.2198 53.3212 90.3339 53.3212H111.301C114.415 53.3212 116.943 50.8729 117.121 47.8024H128.557C129.426 47.8024 130.124 48.4996 130.124 49.3687V163.845C130.124 164.715 129.426 165.412 128.557 165.412H73.0774C72.2082 165.412 71.5104 164.715 71.5104 163.845V151.551L72.0651 150.998C72.2768 150.82 72.4763 150.622 72.6594 150.403C73.9426 148.868 74.1068 146.763 73.235 145.088L71.5104 140.322V96.1602L76.2914 92.8602V94.6399C76.2914 95.63 77.1014 96.4407 78.0915 96.4407H89.8135C90.804 96.4407 91.6147 95.63 91.6147 94.6399V82.9176C91.6147 81.9274 90.804 81.1174 89.8135 81.1174H81.5071C81.9341 78.7854 82.1283 77.728 82.6259 75.012H89.8135C90.804 75.012 91.6147 74.2019 91.6147 73.2118V61.4895C91.6147 60.4994 90.804 59.6887 89.8135 59.6887H78.0915C77.1011 59.6887 76.2914 60.4994 76.2914 61.4895V67.1061C75.9369 67.06 75.566 67.1484 75.2663 67.3866C74.6763 67.8543 74.5759 68.7221 75.0442 69.3121L76.4184 71.0451L73.1298 85.9168L71.5107 86.9123V49.3687C71.5104 48.4996 72.2086 47.8024 73.0774 47.8024ZM92.9216 47.8024H108.973C109.267 47.8024 109.498 48.0336 109.498 48.3276V48.3282C109.498 48.6219 109.267 48.8524 108.973 48.8524H92.9216C92.628 48.8524 92.3968 48.6219 92.3968 48.3282V48.3276C92.3968 48.0336 92.628 47.8024 92.9216 47.8024ZM48.516 51.1525C48.3322 51.1551 48.1831 51.3087 48.1858 51.4925V53.9636C48.1858 53.9649 48.1858 53.9666 48.1858 53.9683C48.1858 54.1521 48.3369 54.3039 48.5214 54.3039C48.7052 54.3039 48.857 54.1524 48.857 53.9683C48.857 53.9666 48.857 53.9649 48.857 53.9636V51.4925C48.857 51.4911 48.857 51.4894 48.857 51.4881C48.857 51.304 48.7055 51.1525 48.5214 51.1525C48.5194 51.1525 48.5177 51.1525 48.516 51.1525ZM44.283 52.9079C44.0989 52.9079 43.9474 53.0595 43.9474 53.2436C43.9474 53.3343 43.984 53.421 44.0492 53.4841L45.7966 55.2316C45.8594 55.2944 45.9448 55.33 46.0338 55.33C46.2176 55.33 46.3695 55.1785 46.3695 54.994C46.3695 54.9047 46.3338 54.8197 46.271 54.7565L44.5236 53.0097C44.4601 52.9446 44.3734 52.9079 44.283 52.9079ZM52.75 52.9079C52.663 52.9106 52.5804 52.9473 52.5195 53.0097L50.7721 54.7565C50.709 54.8197 50.6733 54.9047 50.6733 54.994C50.6733 55.1782 50.8249 55.33 51.0093 55.33C51.0984 55.33 51.1834 55.2944 51.2465 55.2316L52.9939 53.4841C53.0588 53.421 53.0957 53.3343 53.0957 53.2436C53.0957 53.0595 52.9442 52.9079 52.7601 52.9079C52.7567 52.9079 52.7534 52.9079 52.75 52.9079ZM42.5322 57.1467C42.5306 57.1467 42.5292 57.1467 42.5275 57.1467C42.3434 57.1467 42.1919 57.2978 42.1919 57.4823C42.1919 57.6668 42.3431 57.8179 42.5275 57.8179C42.5292 57.8179 42.5306 57.8179 42.5322 57.8179H45.0024C45.004 57.8179 45.0057 57.8179 45.0071 57.8179C45.1912 57.8179 45.343 57.6668 45.343 57.4823C45.343 57.2978 45.1915 57.1467 45.0071 57.1467C45.0057 57.1467 45.004 57.1467 45.0024 57.1467H42.5322ZM52.0398 57.1467C52.0381 57.1467 52.0367 57.1467 52.0351 57.1467C51.8509 57.1467 51.6994 57.2978 51.6994 57.4823C51.6994 57.6668 51.8506 57.8179 52.0351 57.8179C52.0367 57.8179 52.0381 57.8179 52.0398 57.8179H54.5106C54.5122 57.8179 54.5139 57.8179 54.5153 57.8179C54.6994 57.8179 54.8512 57.6668 54.8512 57.4823C54.8512 57.2978 54.6997 57.1467 54.5153 57.1467C54.5139 57.1467 54.5122 57.1467 54.5106 57.1467H52.0398ZM147.526 58.8995C150.886 58.8995 153.783 60.8837 155.113 63.7406C155.168 63.8588 155.287 63.9344 155.417 63.9344C155.499 63.9344 155.579 63.9045 155.64 63.8501C156.444 63.1365 157.499 62.7044 158.659 62.7044C161.063 62.7044 163.01 64.5674 163.185 66.9273H145.669V59.1108C146.266 58.9754 146.887 58.8995 147.526 58.8995ZM46.0268 59.6312C45.9394 59.6339 45.8571 59.6705 45.7963 59.733L44.0489 61.4798C43.9827 61.5433 43.9454 61.6303 43.9454 61.7217C43.9454 61.9058 44.0969 62.0577 44.281 62.0577C44.3724 62.0577 44.4598 62.0204 44.5233 61.9542L46.2707 60.2074C46.3355 60.1443 46.3725 60.0576 46.3725 59.9669C46.3725 59.7827 46.221 59.6312 46.0368 59.6312C46.0335 59.6312 46.0301 59.6312 46.0268 59.6312ZM51.006 59.6312C50.8218 59.6312 50.6703 59.7827 50.6703 59.9669C50.6703 60.0576 50.7069 60.1443 50.7721 60.2074L52.5195 61.9542C52.5827 62.0204 52.6701 62.0577 52.7614 62.0577C52.9456 62.0577 53.0971 61.9061 53.0971 61.7217C53.0971 61.6303 53.0598 61.5433 52.9939 61.4798L51.2465 59.733C51.1837 59.6682 51.0967 59.6312 51.006 59.6312ZM94.9567 59.6883C93.9662 59.6883 93.1555 60.4991 93.1555 61.4892V73.2115C93.1555 74.2016 93.9665 75.0116 94.9567 75.0116H106.679C107.669 75.0116 108.479 74.2016 108.479 73.2115V61.4892C108.479 60.4991 107.669 59.6883 106.679 59.6883H94.9567ZM111.821 59.6883C110.831 59.6883 110.02 60.4991 110.02 61.4892V73.2115C110.02 74.2016 110.831 75.0116 111.821 75.0116H123.543C124.533 75.0116 125.344 74.2016 125.344 73.2115V61.4892C125.344 60.4991 124.533 59.6883 123.543 59.6883H111.821ZM78.0915 60.3593H89.8135C90.4408 60.3593 90.9437 60.8622 90.9437 61.4892V73.2115C90.9437 73.8387 90.4408 74.3407 89.8135 74.3407H82.7492C83.2619 71.5417 83.613 69.6259 83.9171 67.9668C83.9171 67.9668 83.9171 67.9665 83.9171 67.9662C84.1388 66.7543 83.3305 65.5837 82.1189 65.3613C81.2733 65.2064 80.2932 65.027 79.5201 64.8856C78.5905 64.7159 77.6857 65.316 77.4814 66.2386L77.1807 67.5979C77.1152 67.5173 77.0413 67.4484 76.9627 67.3869V61.4892C76.9623 60.8622 77.4646 60.3593 78.0915 60.3593ZM94.9567 60.3593H106.679C107.306 60.3593 107.808 60.8622 107.808 61.4892V73.2115C107.808 73.8387 107.306 74.3407 106.679 74.3407H94.9567C94.3294 74.3407 93.8264 73.8387 93.8264 73.2115V61.4892C93.8264 60.8626 94.3294 60.3593 94.9567 60.3593ZM111.821 60.3593H123.543C124.17 60.3593 124.673 60.8622 124.673 61.4892V73.2115C124.673 73.8387 124.17 74.3407 123.543 74.3407H111.821C111.194 74.3407 110.691 73.8387 110.691 73.2115V61.4892C110.691 60.8626 111.194 60.3593 111.821 60.3593ZM48.516 60.6603C48.3322 60.663 48.1831 60.8165 48.1858 61.0003V63.4715C48.1858 63.4728 48.1858 63.4745 48.1858 63.4762C48.1858 63.6599 48.3369 63.8118 48.5214 63.8118C48.7052 63.8118 48.857 63.6603 48.857 63.4762C48.857 63.4745 48.857 63.4728 48.857 63.4715V61.0003C48.857 60.999 48.857 60.9973 48.857 60.996C48.857 60.8118 48.7055 60.6603 48.5214 60.6603C48.5194 60.6603 48.5177 60.6603 48.516 60.6603ZM140.919 63.713C139.75 63.713 138.796 64.6682 138.796 65.8367V75.4874C138.796 76.6563 139.751 77.6108 140.919 77.6108H140.92C142.089 77.6108 143.043 76.6559 143.043 75.4874V65.8367C143.043 64.6679 142.089 63.713 140.92 63.713H140.919ZM169.413 64.0651C167.653 64.0651 166.217 65.5008 166.216 67.263C166.216 67.4468 166.367 67.5983 166.551 67.5986H172.276C172.46 67.5983 172.611 67.4471 172.611 67.263C172.611 65.5014 171.174 64.0651 169.413 64.0651ZM140.919 64.3843H140.92C141.726 64.3843 142.372 65.0311 142.372 65.8371V75.4877C142.372 76.2937 141.726 76.9402 140.92 76.9402H140.919C140.113 76.9402 139.467 76.2937 139.467 75.4877V65.8371C139.467 65.0311 140.113 64.3843 140.919 64.3843ZM169.413 64.7364C170.692 64.7364 171.702 65.6963 171.873 66.9277H166.954C167.126 65.6953 168.135 64.7364 169.413 64.7364ZM79.1835 65.5276C79.2544 65.5266 79.3263 65.5327 79.3988 65.5458C80.1716 65.6872 81.1523 65.8673 81.9976 66.0222C82.853 66.1788 83.4128 66.9902 83.2559 67.8456C82.2567 73.3005 79.4166 88.8029 79.4166 88.8029C79.2651 89.6321 78.7921 90.3178 78.15 90.7613C78.144 90.7654 78.1382 90.7694 78.1329 90.7738L77.0336 91.5321L73.783 86.0704L77.1085 71.034C77.1303 70.9352 77.1065 70.8321 77.0436 70.7528L75.57 68.8948C75.5697 68.8948 75.5697 68.8948 75.5694 68.8948C75.3271 68.5894 75.3775 68.154 75.6829 67.9117C75.9883 67.6695 76.4237 67.7199 76.666 68.0253L77.0937 68.5639C77.1575 68.6442 77.2543 68.6912 77.3568 68.6912C77.5133 68.6912 77.6501 68.5814 77.6843 68.4285L78.1362 66.3834C78.2484 65.8787 78.6862 65.5344 79.1835 65.5276ZM50.5453 76.6395C50.8124 76.6324 51.0812 76.6408 51.3507 76.6663C52.2283 76.7493 53.1844 76.8394 54.1205 76.9277C55.2914 77.0383 56.3484 77.6733 56.9955 78.6557C57.6425 79.6377 57.8089 80.8597 57.448 81.9792C57.2246 82.6733 57.19 82.7805 57.0408 83.2428C56.9847 82.9192 56.9202 82.549 56.8695 82.2557C56.6128 80.7811 55.2326 79.7651 53.7482 79.9586C52.9368 80.0644 52.2272 80.1562 52.2272 80.1562C52.0609 80.178 51.9349 80.3211 51.9349 80.4891C51.9349 80.5089 51.9366 80.5284 51.94 80.5476C52.2047 82.0393 51.901 83.4336 50.6817 84.8232C50.6367 84.8746 50.6082 84.9388 50.6004 85.0067C49.3237 93.3168 47.9818 98.5708 45.6192 100.891C43.8416 102.559 41.0963 102.606 39.2632 100.999C37.4294 99.3909 37.1169 96.6601 38.5405 94.6795C38.9134 94.1608 39.2145 93.7418 39.3845 93.5049C39.4822 93.3688 39.5834 93.2365 39.6892 93.1075C39.6895 93.1075 39.6899 93.1075 39.6899 93.1075C41.3254 91.1144 42.3169 88.6719 42.5339 86.103C42.626 85.0141 42.7217 83.8835 42.7973 82.9898C42.883 81.9768 43.3611 81.0371 44.1305 80.3725C44.7396 79.8464 45.3326 79.3337 45.3326 79.3337C45.3451 79.3229 45.3565 79.3115 45.3672 79.2991C45.3672 79.2991 45.4815 79.167 45.6622 78.9567C46.8986 77.5217 48.6763 76.6889 50.5453 76.6395ZM140.919 79.0723C139.75 79.0723 138.796 80.0265 138.796 81.195V90.8467C138.796 92.0155 139.751 92.97 140.919 92.97H140.92C142.089 92.97 143.043 92.0152 143.043 90.8467V81.195C143.043 80.0261 142.089 79.0723 140.92 79.0723H140.919ZM140.919 79.7432H140.92C141.726 79.7432 142.372 80.3886 142.372 81.195V90.8467C142.372 91.653 141.726 92.2991 140.92 92.2991H140.919C140.113 92.2991 139.467 91.653 139.467 90.8467V81.195C139.467 80.3886 140.113 79.7432 140.919 79.7432ZM54.0469 80.6064C55.0968 80.5728 56.0241 81.3129 56.2079 82.3702C56.518 84.1536 56.9437 86.6009 57.2518 88.3718C57.3953 89.197 57.187 90.0443 56.6769 90.7086C56.1673 91.3728 55.4029 91.7928 54.5687 91.8674C52.3744 92.0629 51.7397 91.9907 51.7397 91.9907C51.728 91.9893 51.7159 91.9886 51.7038 91.9886C51.5197 91.9886 51.3678 92.1402 51.3678 92.3246C51.3678 92.4953 51.4982 92.6404 51.6678 92.6586C51.6678 92.6586 52.3371 92.7107 54.1091 92.5739L54.3815 94.9859L49.1779 95.4059C49.9785 92.7221 50.6139 89.3227 51.2502 85.1891C52.4379 83.7978 52.8068 82.2923 52.626 80.7811C52.8374 80.7535 53.1905 80.7075 53.8356 80.6238C53.9065 80.6141 53.9774 80.6087 54.0469 80.6064ZM94.9567 81.1171C93.9665 81.1171 93.1555 81.9271 93.1555 82.9172V94.6395C93.1555 95.6297 93.9665 96.4404 94.9567 96.4404H106.679C107.669 96.4404 108.479 95.6297 108.479 94.6395V82.9172C108.479 81.9271 107.669 81.1171 106.679 81.1171H94.9567ZM111.821 81.1171C110.831 81.1171 110.02 81.9271 110.02 82.9172V94.6395C110.02 95.6297 110.831 96.4404 111.821 96.4404H123.543C124.533 96.4404 125.344 95.6297 125.344 94.6395V82.9172C125.344 81.9271 124.533 81.1171 123.543 81.1171H111.821ZM81.3841 81.7883H89.8132C90.4404 81.7883 90.9434 82.2903 90.9434 82.9176V94.6399C90.9434 95.2668 90.4404 95.7698 89.8132 95.7698H78.0915C77.4643 95.7698 76.9623 95.2668 76.9623 94.6399V92.3975L77.1192 92.2887L78.531 91.314C78.5666 91.2895 78.5972 91.2582 78.621 91.2223C79.3505 90.6807 79.9005 89.8864 80.0768 88.9235C80.0768 88.9235 80.9104 84.374 81.3841 81.7883ZM94.9567 81.7883H106.679C107.306 81.7883 107.808 82.2903 107.808 82.9176V94.6399C107.808 95.2668 107.306 95.7698 106.679 95.7698H94.9567C94.3294 95.7698 93.8264 95.2668 93.8264 94.6399V82.9176C93.8264 82.2903 94.3294 81.7883 94.9567 81.7883ZM111.821 81.7883H123.543C124.17 81.7883 124.673 82.2903 124.673 82.9176V94.6399C124.673 95.2668 124.17 95.7698 123.543 95.7698H111.821C111.194 95.7698 110.691 95.2668 110.691 94.6399V82.9176C110.691 82.2903 111.194 81.7883 111.821 81.7883ZM73.3126 86.5925L76.4809 91.9144L62.9796 101.235C61.3706 102.346 59.1712 101.942 58.0605 100.333C56.9501 98.7243 57.3536 96.5257 58.9626 95.415C59.0674 95.3427 59.1753 95.2762 59.2851 95.2164C59.2902 95.2137 59.2952 95.2103 59.3003 95.2073L73.3126 86.5925ZM158.934 87.971C158.75 87.9737 158.601 88.1269 158.604 88.311V90.7818C158.604 90.7835 158.603 90.7852 158.603 90.7868C158.603 90.9706 158.755 91.1225 158.939 91.1225C159.123 91.1225 159.275 90.971 159.275 90.7868C159.275 90.7852 159.275 90.7835 159.275 90.7818V88.311C159.275 88.3097 159.275 88.308 159.275 88.3063C159.275 88.1225 159.124 87.9707 158.939 87.9707C158.937 87.9707 158.936 87.9707 158.934 87.971ZM154.701 89.7258C154.517 89.7262 154.366 89.8774 154.366 90.0615C154.366 90.1522 154.402 90.2389 154.467 90.302L156.214 92.0495C156.277 92.1153 156.365 92.1526 156.456 92.1526C156.64 92.1526 156.792 92.0014 156.792 91.817C156.792 91.7256 156.755 91.6382 156.689 91.5751L154.942 89.8276C154.878 89.7625 154.791 89.7255 154.701 89.7258ZM163.168 89.7258C163.08 89.7285 162.998 89.7648 162.937 89.8276L161.19 91.5751C161.124 91.6382 161.087 91.7256 161.087 91.817C161.087 92.0011 161.239 92.1526 161.423 92.1526C161.514 92.1526 161.601 92.1153 161.665 92.0495L163.412 90.302C163.476 90.2389 163.513 90.1522 163.513 90.0615C163.513 89.8774 163.362 89.7258 163.178 89.7258C163.174 89.7258 163.171 89.7258 163.168 89.7258ZM152.95 93.9645C152.948 93.9645 152.947 93.9645 152.945 93.9645C152.761 93.9645 152.61 94.1157 152.61 94.3002C152.61 94.484 152.761 94.6358 152.945 94.6358C152.947 94.6358 152.948 94.6358 152.95 94.6358H155.421C155.422 94.6358 155.424 94.6358 155.425 94.6358C155.61 94.6358 155.761 94.4843 155.761 94.3002C155.761 94.1161 155.61 93.9645 155.425 93.9645C155.424 93.9645 155.422 93.9645 155.421 93.9645H152.95ZM162.458 93.9645C162.456 93.9645 162.455 93.9645 162.453 93.9645C162.269 93.9645 162.118 94.1157 162.118 94.3002C162.118 94.484 162.269 94.6358 162.453 94.6358C162.455 94.6358 162.456 94.6358 162.458 94.6358H164.928C164.93 94.6358 164.932 94.6358 164.933 94.6358C165.117 94.6358 165.269 94.4843 165.269 94.3002C165.269 94.1161 165.117 93.9645 164.933 93.9645C164.932 93.9645 164.93 93.9645 164.928 93.9645H162.458ZM57.9802 95.3689C56.5876 96.7777 56.3426 99.0267 57.5078 100.715C58.3709 101.965 59.7968 102.598 61.2143 102.518L63.7093 120.495L43.3729 122.114L44.7957 117.566C44.8112 117.516 44.8149 117.464 44.8068 117.413L42.4721 102.841C43.774 102.82 45.0682 102.331 46.0815 101.379C46.0832 101.377 46.0852 101.375 46.0869 101.373C47.284 100.199 48.1972 98.4431 48.9602 96.097L57.9802 95.3689ZM156.445 96.4491C156.357 96.4518 156.275 96.4884 156.214 96.5509L154.467 98.2983C154.401 98.3615 154.364 98.4488 154.364 98.5402C154.364 98.7243 154.515 98.8759 154.7 98.8759C154.791 98.8759 154.878 98.8386 154.942 98.7727L156.689 97.0253C156.754 96.9621 156.791 96.8755 156.791 96.7847C156.791 96.6006 156.639 96.4491 156.455 96.4491C156.452 96.4491 156.448 96.4491 156.445 96.4491ZM161.424 96.4491C161.24 96.4494 161.089 96.6006 161.089 96.7847C161.089 96.8755 161.126 96.9621 161.191 97.0253L162.938 98.7727C163.001 98.8386 163.088 98.8759 163.179 98.8759C163.364 98.8759 163.515 98.7247 163.515 98.5402C163.515 98.4488 163.478 98.3615 163.412 98.2983L161.665 96.5509C161.602 96.4857 161.514 96.4491 161.424 96.4491ZM70.8395 96.6235V138.468L66.1415 125.483V99.8663L70.8395 96.6235ZM158.934 97.4782C158.75 97.4809 158.601 97.6341 158.604 97.8182V100.289C158.604 100.291 158.603 100.292 158.603 100.294C158.603 100.478 158.755 100.63 158.939 100.63C159.123 100.63 159.275 100.478 159.275 100.294C159.275 100.292 159.275 100.291 159.275 100.289V97.8182C159.275 97.8169 159.275 97.8152 159.275 97.8139C159.275 97.6297 159.124 97.4779 158.939 97.4779C158.937 97.4779 158.936 97.4779 158.934 97.4782ZM37.635 100.01C37.9324 100.561 38.3258 101.069 38.8207 101.503C39.6808 102.257 40.7203 102.687 41.7864 102.804L42.4099 106.692L37.5527 118.131L31.8081 116.044C31.8078 116.044 37.635 100.01 37.635 100.01ZM65.4702 100.33V123.628L64.4186 120.721L61.8792 102.429C62.3956 102.316 62.8989 102.105 63.3599 101.787L65.4702 100.33ZM78.0915 102.545C77.1014 102.545 76.2914 103.355 76.2914 104.345V116.068C76.2914 117.058 77.1011 117.869 78.0915 117.869H89.8135C90.804 117.869 91.6147 117.058 91.6147 116.068V104.345C91.6147 103.355 90.804 102.545 89.8135 102.545H78.0915ZM94.9567 102.545C93.9665 102.545 93.1555 103.355 93.1555 104.345V116.068C93.1555 117.058 93.9662 117.869 94.9567 117.869H106.679C107.669 117.869 108.479 117.058 108.479 116.068V104.345C108.479 103.355 107.669 102.545 106.679 102.545H94.9567ZM111.821 102.545C110.831 102.545 110.02 103.355 110.02 104.345V116.068C110.02 117.058 110.831 117.869 111.821 117.869H123.543C124.533 117.869 125.344 117.058 125.344 116.068V104.345C125.344 103.355 124.533 102.545 123.543 102.545H111.821ZM78.0915 103.216H89.8135C90.4408 103.216 90.9437 103.718 90.9437 104.345V116.068C90.9437 116.695 90.4408 117.197 89.8135 117.197H78.0915C77.4643 117.197 76.9623 116.695 76.9623 116.068V104.345C76.9623 103.718 77.4646 103.216 78.0915 103.216ZM94.9567 103.216H106.679C107.306 103.216 107.808 103.718 107.808 104.345V116.068C107.808 116.695 107.306 117.197 106.679 117.197H94.9567C94.3294 117.197 93.8264 116.695 93.8264 116.068V104.345C93.8264 103.718 94.3294 103.216 94.9567 103.216ZM111.821 103.216H123.543C124.17 103.216 124.673 103.718 124.673 104.345V116.068C124.673 116.695 124.17 117.197 123.543 117.197H111.821C111.194 117.197 110.691 116.695 110.691 116.068V104.345C110.691 103.719 111.194 103.216 111.821 103.216ZM160.28 114.397C161.318 115.406 162.008 116.776 162.082 118.337C162.156 119.897 161.6 121.327 160.663 122.43C159.624 121.421 158.935 120.05 158.86 118.49C158.786 116.93 159.342 115.5 160.28 114.397ZM31.5783 116.675L37.2957 118.752L31.0082 134.265C30.9702 134.358 30.9766 134.464 31.0253 134.552L32.169 136.63C32.3568 136.971 32.2355 137.392 31.8938 137.58C31.5525 137.768 31.1315 137.647 30.9433 137.305L30.6117 136.702C30.5526 136.595 30.44 136.528 30.3174 136.528C30.181 136.528 30.058 136.612 30.0066 136.738L29.2201 138.679C29.2198 138.679 29.2198 138.679 29.2194 138.679C28.9977 139.226 28.3909 139.496 27.8359 139.294C27.0974 139.026 26.1607 138.685 25.3527 138.392C24.5356 138.095 24.1183 137.201 24.4153 136.384C26.28 131.254 31.4137 117.128 31.5783 116.675ZM152.913 120.116C154.29 120.564 155.513 121.491 156.267 122.859C157.021 124.227 157.152 125.755 156.796 127.158C155.419 126.71 154.196 125.783 153.442 124.415H153.443C152.689 123.048 152.558 121.519 152.913 120.116ZM165.676 121.008C167.011 121.049 168.237 121.552 169.219 122.352C168.233 123.411 166.877 124.129 165.319 124.237C163.761 124.344 162.319 123.819 161.197 122.905C161.201 122.901 161.205 122.897 161.209 122.892C162.194 121.84 163.545 121.126 165.097 121.019C165.292 121.006 165.485 121.002 165.676 121.008ZM63.8618 121.156L72.6084 145.33C72.6138 145.345 72.6201 145.359 72.6275 145.373C73.3915 146.816 73.2592 148.64 72.1451 149.972C71.9814 150.167 71.803 150.344 71.6135 150.502C71.6058 150.508 71.5984 150.515 71.5914 150.522L54.3392 167.737L49.7182 163.872L63.7486 147.097C63.84 146.988 63.8521 146.831 63.7785 146.709L53.9404 130.339C53.1025 128.944 52.6173 127.367 52.5259 125.743V125.742C52.4312 124.055 52.3381 122.384 52.321 122.075L63.8618 121.156ZM51.651 122.128C51.6692 122.45 51.7622 124.1 51.856 125.781C51.9534 127.514 52.4715 129.197 53.3655 130.685L54.6194 132.771L52.9899 149.594C52.9889 149.605 52.9886 149.616 52.9886 149.626C52.9886 149.765 52.9818 149.904 52.9677 150.044C52.9677 150.044 52.9677 150.044 52.9677 150.044C52.9422 150.298 52.8935 150.544 52.8256 150.781C52.8226 150.791 52.8202 150.801 52.8182 150.81L50.7395 161.604L48.9968 163.687C48.9934 163.691 48.9904 163.694 48.9874 163.698V163.698C48.9871 163.699 47.7691 165.155 46.8213 166.288C46.0987 167.152 46.2139 168.448 47.0784 169.171C47.6099 169.616 48.3023 170.195 48.9763 170.759L48.2083 174.743L42.2141 174.139L43.4579 161.788C43.4679 161.751 43.472 161.713 43.4696 161.675L44.6889 149.571C44.6916 149.544 44.6909 149.516 44.6869 149.489L42.2715 132.964C41.7733 129.553 42.077 126.076 43.1545 122.804L51.651 122.128ZM161.117 126.365C161.307 126.362 161.5 126.368 161.695 126.385C163.251 126.518 164.594 127.259 165.564 128.334C164.426 129.23 162.976 129.732 161.42 129.598C159.864 129.465 158.52 128.725 157.551 127.649C158.546 126.866 159.781 126.383 161.117 126.365ZM149.087 127.202C150.477 127.608 151.727 128.496 152.523 129.84C153.32 131.184 153.497 132.708 153.185 134.122C151.795 133.716 150.545 132.828 149.748 131.484V131.483C148.953 130.139 148.774 128.615 149.087 127.202ZM158.413 132.578C159.748 132.605 160.98 133.095 161.971 133.885C160.995 134.954 159.647 135.687 158.09 135.81C156.533 135.934 155.086 135.423 153.954 134.521C154.929 133.451 156.278 132.719 157.835 132.595C158.03 132.58 158.222 132.574 158.413 132.578ZM168.904 132.814C169.943 133.823 170.633 135.193 170.707 136.754C170.782 138.314 170.226 139.744 169.288 140.847C168.25 139.838 167.56 138.468 167.486 136.907C167.411 135.347 167.966 133.917 168.904 132.814ZM55.2 133.737L58.0918 138.55C57.745 138.504 57.3929 138.478 57.0341 138.478C56.2254 138.478 55.4456 138.602 54.7071 138.823L55.2 133.737ZM145.669 134.54C149.094 136.101 151.482 139.549 151.485 143.559L151.45 144.236C150.876 144.331 149.536 144.657 148.571 145.742C148.516 145.804 148.486 145.883 148.486 145.965C148.486 146.149 148.637 146.301 148.822 146.301C148.918 146.301 149.009 146.26 149.072 146.188C150.108 145.025 151.794 144.866 151.798 144.865C151.802 144.865 151.806 144.864 151.811 144.864C151.815 144.863 151.82 144.863 151.824 144.862C151.827 144.862 151.83 144.862 151.832 144.862C152.179 144.822 152.531 144.802 152.889 144.802C157.237 144.802 160.924 147.607 162.261 151.501C161.686 151.697 160.521 152.195 159.674 153.241C159.625 153.3 159.599 153.375 159.599 153.452C159.599 153.636 159.75 153.788 159.935 153.788C160.036 153.788 160.132 153.742 160.196 153.663C161.18 152.448 162.745 152.053 162.765 152.048C162.768 152.048 162.771 152.047 162.774 152.046C163.489 151.87 164.244 151.78 165.021 151.78C170.385 151.78 174.752 156.04 174.929 161.362H145.668L145.669 134.54ZM161.539 138.533C162.915 138.981 164.138 139.908 164.892 141.276C165.646 142.643 165.777 144.173 165.42 145.576C164.044 145.127 162.821 144.201 162.067 142.833C161.313 141.465 161.182 139.936 161.539 138.533ZM57.0341 139.149C57.5528 139.149 58.0582 139.205 58.547 139.306L63.081 146.85L51.6279 160.542L53.4778 150.938C53.553 150.672 53.6074 150.396 53.6357 150.111L53.635 150.112C53.6504 149.96 53.6568 149.809 53.6578 149.659L53.6585 149.651L54.6369 139.55C55.3895 139.294 56.1941 139.149 57.0341 139.149ZM40.5449 139.383C40.9011 140.787 40.77 142.316 40.0161 143.684C39.2622 145.052 38.0389 145.978 36.6624 146.427C36.3062 145.023 36.4373 143.495 37.1912 142.126C37.9451 140.759 39.1681 139.832 40.5449 139.383ZM174.301 139.425C175.636 139.467 176.863 139.969 177.845 140.769C176.859 141.829 175.502 142.547 173.944 142.654C172.386 142.761 170.944 142.236 169.821 141.322C170.808 140.262 172.164 139.544 173.722 139.437C173.917 139.423 174.11 139.42 174.301 139.425ZM78.0915 144.025C77.1014 144.025 76.2914 144.836 76.2914 145.826V157.548C76.2914 158.538 77.1014 159.348 78.0915 159.348H89.8135C90.804 159.348 91.6147 158.538 91.6147 157.548V145.826C91.6147 144.836 90.804 144.025 89.8135 144.025H78.0915ZM94.9567 144.025C93.9665 144.025 93.1555 144.836 93.1555 145.826V157.548C93.1555 158.538 93.9665 159.348 94.9567 159.348H106.679C107.669 159.348 108.479 158.538 108.479 157.548V145.826C108.479 144.835 107.669 144.025 106.679 144.025H94.9567ZM111.821 144.025C110.831 144.025 110.02 144.835 110.02 145.826V157.548C110.02 158.538 110.831 159.348 111.821 159.348H123.543C124.533 159.348 125.344 158.538 125.344 157.548V145.826C125.344 144.835 124.533 144.025 123.543 144.025H111.821ZM78.0915 144.696H89.8135C90.4408 144.696 90.9437 145.199 90.9437 145.826V157.548C90.9437 158.175 90.4408 158.677 89.8135 158.677H78.0915C77.4643 158.677 76.9623 158.175 76.9623 157.548V145.826C76.9623 145.199 77.4646 144.696 78.0915 144.696ZM94.9567 144.696H106.679C107.306 144.696 107.808 145.199 107.808 145.826V157.548C107.808 158.175 107.306 158.677 106.679 158.677H94.9567C94.3294 158.677 93.8264 158.175 93.8264 157.548V145.826C93.8264 145.199 94.3297 144.696 94.9567 144.696ZM111.821 144.696H123.543C124.17 144.696 124.673 145.199 124.673 145.826V157.548C124.673 158.175 124.17 158.677 123.543 158.677H111.821C111.194 158.677 110.691 158.175 110.691 157.548V145.826C110.691 145.199 111.194 144.696 111.821 144.696ZM169.742 144.782C169.933 144.779 170.126 144.785 170.32 144.802C171.876 144.936 173.22 145.676 174.189 146.751C173.051 147.647 171.601 148.149 170.045 148.015C168.489 147.882 167.145 147.143 166.176 146.067C167.171 145.283 168.406 144.801 169.742 144.782ZM32.342 145.633C33.6775 145.652 34.9119 146.134 35.9074 146.918C34.9385 147.993 33.5945 148.733 32.0386 148.867C30.4817 149 29.032 148.498 27.8943 147.602C28.8633 146.526 30.2079 145.787 31.7638 145.654C31.9583 145.637 32.1512 145.63 32.342 145.633ZM43.5493 146.349L44.0166 149.545L42.8262 161.362H26.8269C27.004 156.04 31.371 151.78 36.7356 151.78C37.4929 151.78 38.2287 151.866 38.9369 152.027C38.9652 152.039 38.9947 152.047 39.025 152.05C39.1607 152.091 40.3595 152.465 41.183 153.426C41.2468 153.502 41.3409 153.546 41.4403 153.546C41.6244 153.546 41.776 153.395 41.776 153.21C41.776 153.129 41.7464 153.05 41.6923 152.989C40.9538 152.127 39.9865 151.686 39.4863 151.5C40.2224 149.358 41.6705 147.546 43.5493 146.349ZM65.4702 157.578V161.362H61.679L65.4702 157.578ZM49.2871 164.387L54.0409 168.364C54.0624 168.557 54.3822 171.415 54.487 172.355C54.4971 172.444 54.4702 172.533 54.4128 172.602C54.4128 172.602 54.4124 172.603 54.4121 172.603C53.9128 173.2 53.0333 173.278 52.4362 172.778C51.0483 171.618 48.8886 169.812 47.5088 168.657C46.9225 168.167 46.8462 167.305 47.3364 166.719C48.1901 165.698 49.0818 164.632 49.2871 164.387ZM42.1469 174.807L48.3131 175.428C48.4391 175.575 50.3085 177.762 50.9236 178.481C50.9236 178.481 50.9236 178.482 50.9236 178.482C50.9818 178.55 51.01 178.638 51.0009 178.727C50.9999 178.737 50.9992 178.747 50.9989 178.757L51.0003 178.728C50.9223 179.503 50.2393 180.061 49.4642 179.982C47.6643 179.801 44.8629 179.519 43.0725 179.339C42.3129 179.262 41.7652 178.592 41.8415 177.832C41.9749 176.508 42.115 175.124 42.1469 174.807Z" fill="#828282"/>
</svg>
