<svg width="200" height="200" viewBox="0 0 200 200" fill="none" xmlns="http://www.w3.org/2000/svg">
<path fill-rule="evenodd" clip-rule="evenodd" d="M129.897 133.533V135.449H99.3596V133.533H129.897ZM123.37 35.9332H104.528V43.1185H123.37V35.9332ZM39.7352 64.0355H31.8652C30.8337 65.4614 29.9031 67.0942 29.0937 68.8423H36.3821C36.3821 68.8423 38.4578 68.6827 38.4578 70.918V89.9885C40.095 89.0773 41.9902 87.8241 43.8865 86.1412V79.3642C43.8865 79.3642 43.7269 74.4142 43.8865 68.9855C44.0464 63.5564 39.7352 64.0355 39.7352 64.0355ZM38.4578 98.9339V124.711H19.2905L19.307 126.957H38.4578V154.134L35.9406 154.171C36.4772 154.536 39.0142 156.119 39.3327 156.303H43.8868V92.3259C42.1035 93.7773 35.6765 98.1904 34.5839 98.9339H38.4578Z" fill="#D25412"/>
<path fill-rule="evenodd" clip-rule="evenodd" d="M103.648 56.6806C103.648 58.5325 102.146 60.0336 100.294 60.0336C98.4426 60.0336 96.9414 58.5325 96.9414 56.6806C96.9414 54.8287 98.4426 53.3275 100.294 53.3275C102.146 53.3275 103.648 54.8287 103.648 56.6806ZM100.294 67.4618C98.4426 67.4618 96.9414 68.9629 96.9414 70.8149C96.9414 72.6668 98.4426 74.1679 100.294 74.1679C102.146 74.1679 103.648 72.6668 103.648 70.8149C103.648 68.9629 102.146 67.4618 100.294 67.4618ZM100.294 81.2601C98.4426 81.2601 96.9414 82.7613 96.9414 84.6132C96.9414 86.4651 98.4426 87.9662 100.294 87.9662C102.146 87.9662 103.648 86.4651 103.648 84.6132C103.648 82.7613 102.146 81.2601 100.294 81.2601ZM130.273 54.3485H107.041C106.756 54.3485 106.522 54.5821 106.522 54.8673C106.522 55.1525 106.755 55.3861 107.041 55.3861H130.273C130.559 55.3861 130.792 55.1525 130.792 54.8673C130.792 54.5821 130.558 54.3485 130.273 54.3485ZM130.273 56.6638H107.041C106.756 56.6638 106.522 56.8973 106.522 57.1829C106.522 57.4684 106.755 57.702 107.041 57.702H130.273C130.559 57.702 130.792 57.4684 130.792 57.1829C130.792 56.8973 130.558 56.6638 130.273 56.6638ZM107.041 60.0172H127.189C127.475 60.0172 127.708 59.7837 127.708 59.4981C127.708 59.2125 127.475 58.979 127.189 58.979H107.041C106.755 58.979 106.522 59.2125 106.522 59.4981C106.522 59.7837 106.755 60.0172 107.041 60.0172ZM107.041 62.3324H116.142C116.427 62.3324 116.661 62.0989 116.661 61.8133C116.661 61.5281 116.427 61.2942 116.142 61.2942H107.041C106.755 61.2942 106.522 61.5277 106.522 61.8133C106.522 62.0989 106.755 62.3324 107.041 62.3324ZM130.273 67.9409H107.041C106.756 67.9409 106.522 68.1744 106.522 68.4597C106.522 68.7449 106.755 68.9787 107.041 68.9787H130.273C130.559 68.9787 130.792 68.7452 130.792 68.4597C130.792 68.1744 130.558 67.9409 130.273 67.9409ZM130.273 70.2561H107.041C106.756 70.2561 106.522 70.4896 106.522 70.7752C106.522 71.0608 106.755 71.2943 107.041 71.2943H130.273C130.559 71.2943 130.792 71.0608 130.792 70.7752C130.792 70.4896 130.558 70.2561 130.273 70.2561ZM130.273 72.5714H107.041C106.756 72.5714 106.522 72.8049 106.522 73.0904C106.522 73.3757 106.755 73.6095 107.041 73.6095H130.273C130.559 73.6095 130.792 73.376 130.792 73.0904C130.792 72.8049 130.558 72.5714 130.273 72.5714ZM107.041 75.9244H119.096C119.381 75.9244 119.615 75.6909 119.615 75.4053C119.615 75.1201 119.381 74.8863 119.096 74.8863H107.041C106.755 74.8863 106.522 75.1198 106.522 75.4053C106.522 75.6909 106.755 75.9244 107.041 75.9244ZM130.273 81.5329H107.041C106.756 81.5329 106.522 81.7664 106.522 82.052C106.522 82.3372 106.755 82.5711 107.041 82.5711H130.273C130.559 82.5711 130.792 82.3376 130.792 82.052C130.792 81.7664 130.558 81.5329 130.273 81.5329ZM130.273 83.8481H107.041C106.756 83.8481 106.522 84.0816 106.522 84.3672C106.522 84.6528 106.755 84.8863 107.041 84.8863H130.273C130.559 84.8863 130.792 84.6528 130.792 84.3672C130.792 84.0816 130.558 83.8481 130.273 83.8481ZM117.399 86.1634H107.041C106.755 86.1634 106.522 86.3969 106.522 86.6825C106.522 86.9677 106.755 87.2015 107.041 87.2015H117.399C117.685 87.2015 117.919 86.968 117.919 86.6825C117.918 86.3969 117.685 86.1634 117.399 86.1634ZM167.155 99.28C166.234 96.4174 163.674 96.4336 163.538 96.5038C162.179 97.2053 160.483 97.7405 158.649 97.7815C158.184 99.9163 156.833 104.123 155.774 107.295C154.586 103.138 156.729 97.6102 156.729 97.6102C154.454 97.2906 153.673 95.4814 153.673 95.4814L150.661 97.7301C149.065 95.934 149.184 93.6785 149.184 93.6785L147.268 94.324C147.187 94.9895 146.909 95.8137 146.001 96.529C145.093 97.2443 144.873 99.2067 144.873 99.2067C144.674 106.352 142.391 116.598 142.391 116.598L155.612 115.733L156.356 112.935C159.987 114.9 165.402 114.492 165.402 114.492C165.402 114.492 167.387 104.936 167.155 99.28ZM159.533 122.875L160.485 127.984L164.393 126.671L164.274 115.653C164.274 115.653 163.176 121.714 159.533 122.875ZM158.166 129.844L157.148 123.317L141.34 122L139.484 138.885C150.202 142.418 158.944 139.364 158.944 139.364C157.747 132.958 158.166 129.844 158.166 129.844Z" fill="#BEBEBE"/>
<path fill-rule="evenodd" clip-rule="evenodd" d="M60.1725 74.0164C58.9878 69.438 62.4951 70.3626 63.8484 72.1215C64.5617 73.0485 66.6098 73.3737 66.5057 71.8383C66.4015 70.3028 63.3129 64.6245 65.4194 62.5011C67.9994 59.8999 71.6807 61.7542 75.2757 61.5009C79.3881 61.2113 80.7239 60.1785 80.7239 60.1785C80.7239 60.1785 83.1295 68.3441 82.1952 74.2687C81.7053 77.3749 79.795 79.722 77.2718 80.9124C77.4058 84.2517 78.1036 84.5104 78.1036 84.5104C74.3914 88.4622 68.7628 85.3486 68.7628 85.3486C69.0544 83.405 68.6361 81.2275 68.4681 80.4753C66.0195 79.0306 64.2499 76.5161 64.2499 76.5161C64.2499 76.5161 61.009 77.2502 60.1725 74.0164ZM156.023 112.746L155.342 115.809L142.391 116.598C143.952 111.248 144.518 102.699 144.684 100.96C144.923 98.4451 145.006 97.1623 146.001 96.529C147.319 95.6907 147.418 93.1692 147.778 92.0914C148.134 91.0213 147.276 89.9227 146.373 89.591C147.045 89.6791 147.714 89.7234 148.376 89.7261C148.802 91.0058 149.392 93.1245 149.115 94.3737C149.115 94.3737 149.741 96.8781 150.471 97.6085C150.847 97.9841 152.325 96.7598 153.674 95.4814C151.642 91.5555 154.541 83.8351 154.541 83.8351C158.889 84.6733 158.947 79.6437 157.498 78.2067C156.049 76.7698 153.905 79.8833 153.905 79.8833C149.892 78.4463 152.758 72.5781 144.955 71.7398C141.937 71.4156 140.373 70.3559 139.606 69.179C139.531 69.3856 139.465 69.599 139.415 69.8237C139.415 69.8237 139.175 76.5299 138.456 79.5238C137.851 82.0483 137.926 85.6799 141.124 87.8335C139.819 87.5349 140.326 89.0565 140.682 90.9239C140.682 90.9239 140.652 91.9419 140.532 94.3367C140.412 96.7316 134.864 108.864 134.624 113.654C134.458 116.982 135.16 119.557 136.848 120.579C136.148 125.538 140.612 126.228 140.612 126.228L140.971 121.797C140.971 121.797 155.701 124.073 159.533 122.875C163.365 121.678 164.074 114.655 164.074 114.655C162.068 114.571 158.194 114.053 156.023 112.746ZM91.6224 117.071C88.9326 118.063 86.5374 117.773 85.8587 117.122C85.18 116.472 88.7757 114.363 87.9478 113.485C87.12 112.607 87.2355 112.591 85.8506 113.65C84.4657 114.71 82.3518 114.753 81.5783 115.976C81.5783 115.976 68.9136 115.109 67.2787 115.211L65.959 111.562C63.758 113.54 58.9613 114.135 56.7808 114.306C57.4937 116.433 58.7566 119.646 60.3327 121.319C62.8159 123.953 66.2255 123.526 70.6274 122.821C76.2736 121.918 78.9466 120.805 80.8462 120.915C82.7459 121.026 85.8701 122.331 87.423 122.489C88.9759 122.647 96.4316 118.641 96.2804 117.545C96.1296 116.45 94.3119 116.08 91.6224 117.071ZM122.008 102.895C121.57 102.785 119.161 103.114 116.86 102.895C114.56 102.676 112.696 100.582 112.696 100.582C112.696 100.582 114.328 100.438 115.314 99.6714C116.3 98.9047 115.437 97.966 115.437 97.966C115.437 97.966 112.26 98.6232 111.274 98.6232C110.289 98.6232 110.179 99.828 108.755 101.471C107.331 103.114 96.8751 105.818 96.8751 105.818C96.6564 105.38 96.228 104.288 95.7919 103.135C94.9395 103.828 93.3665 104.698 90.5248 105.268C90.1495 107.042 89.9177 108.569 89.922 110.316C90.9424 112.2 92.3612 113.921 94.1651 114.007C98.7653 114.226 109.851 106.728 109.851 106.728C114.451 108.152 119.362 107.925 121.005 106.501C122.648 105.077 122.446 103.005 122.008 102.895Z" fill="#FFD2BB"/>
<path fill-rule="evenodd" clip-rule="evenodd" d="M107.112 125.902L107.031 120.44C107.031 120.44 121.32 120.52 121.401 120.44L121.361 125.902H107.112ZM117.569 110.623H110.684V112.659H117.569V110.623ZM21.9727 111.978C21.9338 112.063 21.8934 112.147 21.8555 112.233C21.4533 113.14 21.0905 114.078 20.7676 115.038L20.7965 116.976H33.7441L33.781 111.972C33.7209 112.031 25.2267 111.994 21.9727 111.978ZM23.8596 141.829C24.8904 143.526 26.1083 145.195 27.5285 146.818H33.644V141.814C33.5942 141.864 27.6504 141.846 23.8596 141.829ZM30.2297 74.9857H26.8689C26.6952 75.6257 26.538 76.2668 26.3982 76.9058H30.2297V74.9857ZM30.1884 104.928V103.079H29.118C28.4366 103.67 27.7811 104.284 27.1545 104.928H30.1884ZM30.348 132.738H23.7017V134.771H30.348V132.738ZM165.688 92.9364C161.564 93.2955 165.019 85.1524 165.019 85.1524C165.019 85.1524 169.137 77.3832 163.681 67.9076C156.993 56.2915 139.382 65.1533 139.382 65.1533C139.047 65.1533 137.153 70.9015 144.955 71.7398C152.757 72.5781 149.892 78.4459 153.905 79.8833C153.905 79.8833 156.048 76.7697 157.497 78.2067C158.947 79.6437 158.888 84.6733 154.541 83.835C154.541 83.835 149.86 96.2894 156.548 97.6068C163.236 98.9242 169.175 92.6326 165.688 92.9364ZM139.601 86.4311C138.969 89.2779 138.425 93.6029 140.089 96.2031C140.349 95.3742 140.513 94.7258 140.532 94.3371C140.652 91.9419 140.682 90.9242 140.682 90.9242C140.326 89.0568 139.819 87.5352 141.124 87.8339C140.504 87.4156 140.004 86.9412 139.601 86.4311ZM146.373 89.591C147.276 89.9226 148.134 91.0213 147.778 92.0914C147.603 92.6145 147.489 93.478 147.268 94.3239C147.779 94.1462 148.434 93.9228 149.184 93.6785C149.197 92.4361 148.731 90.7915 148.376 89.7261C147.714 89.7234 147.045 89.6791 146.373 89.591ZM102.134 156.047H127.123V135.449H102.134V156.047ZM78.4571 54.0599C77.843 54.1016 68.4698 48.351 60.2068 55.5362C50.0982 64.3261 60.4416 76.466 60.4416 76.466C60.4416 76.466 56.2022 84.0531 62.2142 85.9087C67.2217 87.4542 68.3583 81.6599 68.5128 80.6849C68.4974 80.611 68.4826 80.5421 68.4698 80.484L68.4463 80.4618C66.0091 79.0151 64.2499 76.5161 64.2499 76.5161C64.2499 76.5161 61.0094 77.2502 60.1728 74.0167C58.9882 69.4384 62.4954 70.363 63.8488 72.1218C64.562 73.0488 66.6102 73.374 66.506 71.8386C66.4019 70.3032 63.3132 64.6248 65.4198 62.5014C67.9998 59.9003 71.6811 61.7545 75.2761 61.5012C79.3885 61.2116 80.7243 60.1788 80.7243 60.1788C80.7243 60.1788 80.7267 60.1872 80.7314 60.2033C80.7334 60.2104 80.7364 60.2204 80.7394 60.2312C80.7438 60.246 80.7478 60.2611 80.7542 60.2829C80.7579 60.2964 80.7623 60.3118 80.767 60.328C80.7744 60.3542 80.7821 60.382 80.7915 60.4153C80.7969 60.4345 80.8026 60.455 80.8083 60.4768C80.8184 60.5131 80.8288 60.5514 80.8402 60.5941C80.8473 60.6199 80.8543 60.6461 80.8617 60.6743C80.8745 60.7217 80.8879 60.7721 80.902 60.8255C80.9098 60.8554 80.9175 60.884 80.9256 60.9156C80.9407 60.9737 80.9568 61.0362 80.9733 61.1007C80.982 61.1343 80.9901 61.1662 80.9991 61.2015C81.019 61.2798 81.0398 61.3634 81.0613 61.4495C81.0677 61.475 81.0734 61.4978 81.0798 61.524C81.1087 61.641 81.1382 61.7633 81.1691 61.8926C81.4477 61.8069 84.9553 60.6384 84.2682 56.3396C83.5522 51.863 79.0713 54.0183 78.4571 54.0599ZM33.5415 88.7481V84.1972H25.9171C25.6776 86.4725 26.5158 88.7481 26.5158 88.7481H33.5415Z" fill="#D25412"/>
<path fill-rule="evenodd" clip-rule="evenodd" d="M178.335 143.113C178.335 143.113 168.635 147.784 167.318 148.263C166 148.742 161.569 148.143 161.569 148.143C161.569 148.143 159.534 142.275 158.695 137.246C157.857 132.216 158.216 129.94 158.216 129.94L158.311 129.858L157.268 123.257L159.543 123.078L160.382 128.073L160.485 127.984L168.963 125.055C168.963 125.055 169.621 124.796 170.475 124.712L166.708 107.629L167.307 102.759L172.993 125.279C173.354 125.548 173.672 125.927 173.908 126.453C174.612 128.019 177.058 135.063 177.058 135.063C177.058 135.063 178.397 137.113 177.083 137.818L177.078 138.203L178.335 143.113ZM77.5555 94.8084C77.5763 94.3129 77.1913 93.8942 76.6957 93.8737C76.2002 93.8529 75.7815 94.2379 75.761 94.7335C75.7402 95.2291 76.1253 95.6477 76.6208 95.6682C77.1161 95.689 77.5347 95.304 77.5555 94.8084ZM77.5622 100.382C78.0578 100.403 78.4764 100.018 78.4969 99.5222C78.5178 99.0266 78.1327 98.608 77.6372 98.5872C77.1416 98.5663 76.723 98.9514 76.7025 99.4469C76.6816 99.9428 77.0667 100.361 77.5622 100.382ZM137.678 37.5298H123.37V40.8173H136.463V96.5582H94.3326C94.9354 97.8988 95.4934 99.1664 95.9198 100.145H109.732C110.319 99.2202 110.581 98.6231 111.274 98.6231C112.26 98.6231 115.436 97.966 115.436 97.966C115.436 97.966 116.299 98.9047 115.313 99.6714C115.061 99.8673 114.767 100.022 114.469 100.145H137.677C138.072 100.145 138.448 100.063 138.791 99.9173C139.295 98.5435 139.559 97.8148 139.873 96.8216C139.949 96.5837 140.083 96.2229 140.089 96.2027C138.425 93.6026 138.969 89.2775 139.6 86.4308C139.61 86.4429 139.621 86.4543 139.631 86.4664C137.926 84.3424 137.965 81.5699 138.456 79.5234C139.175 76.5295 139.415 69.8234 139.415 69.8234C139.465 69.5986 139.53 69.3853 139.605 69.1786C138.389 67.3133 139.177 65.1529 139.382 65.1529C139.382 65.1529 139.802 64.9419 140.534 64.6278V40.3866C140.535 38.8156 139.249 37.5298 137.678 37.5298ZM91.4351 90.4333V40.8173H104.528V37.5298H90.2206C88.6492 37.5298 87.3634 38.8156 87.3634 40.3869V86.9069C88.3905 87.3003 89.6356 87.8688 90.272 88.5051C90.5162 88.7497 90.9315 89.4617 91.4351 90.4333ZM157.116 97.6992C155.322 100.504 155.951 105.893 155.951 105.893C155.951 105.893 157.777 101.013 158.525 97.8695C157.953 97.8947 157.711 97.7795 157.116 97.6992ZM166.819 98.0792C166.592 96.0583 166.25 95.0997 165.944 94.7829C165.41 95.3356 165.18 95.7394 164.214 96.2528C166.819 97.0313 166.856 98.4111 166.819 98.0792ZM69.5612 94.41C75.8682 93.7713 74.6308 86.4264 74.6308 86.4264C75.2295 89.6599 79.0617 93.7316 82.7743 92.0551C86.4865 90.3785 85.6482 84.9894 85.6482 84.9894L77.9839 83.792L77.6939 83.8411C77.9016 84.4307 78.1038 84.5107 78.1038 84.5107C74.3916 88.4625 68.763 85.3489 68.763 85.3489L61.7373 88.5024C61.7373 88.5024 62.888 95.0856 69.5612 94.41ZM81.2241 141.999C70.8054 143.017 67.2127 140.862 66.0751 138.706C64.9375 136.55 65.2369 132.599 65.2369 132.599C65.2369 132.599 64.5783 134.634 64.3986 136.311C64.3048 137.185 64.1288 138.302 63.8382 139.189L63.6866 140.12C63.6866 140.12 62.1096 151.358 62.0854 156.304L101.043 156.31C98.4873 148.301 95.2754 137.525 95.0002 136.738C93.5545 138.071 89.3621 141.204 81.2241 141.999Z" fill="#F48850"/>
<path fill-rule="evenodd" clip-rule="evenodd" d="M33.6441 146.818H33.715L33.6874 152.545C31.3127 150.725 29.2757 148.805 27.537 146.818H33.6441ZM30.2295 135.795V134.771H23.9209V135.795C23.9209 135.795 22.7157 136.307 21.7844 137.816C22.3683 139.166 23.0607 140.506 23.8644 141.829C23.8789 141.829 23.894 141.829 23.9088 141.829C25.7718 141.837 28.384 141.846 30.5715 141.847C32.3472 141.846 33.6572 141.837 33.6804 141.814L33.68 141.838C33.6992 141.838 33.7197 141.838 33.7385 141.838L33.7405 141.445C33.7405 141.445 33.5759 137.44 30.2295 135.795ZM33.715 116.976H20.7744C20.8446 120.693 20.9585 124.615 20.9585 124.615H33.6807L33.715 116.976ZM30.2295 105.953V104.929H26.989C25.0007 106.918 23.2979 109.19 22.0367 111.986C25.7677 111.999 31.3201 112.014 33.7385 111.997L33.7405 111.603C33.7405 111.603 33.5759 107.598 30.2295 105.953ZM107.446 133.709H121.332L121.37 125.902H107.246C107.322 129.959 107.446 133.709 107.446 133.709ZM117.565 113.87V112.752H110.68V113.87C110.68 113.87 107.265 115.317 107.19 120.447C110.437 120.46 117.806 120.486 121.396 120.471L121.398 120.037C121.398 120.037 121.218 115.666 117.565 113.87ZM167.12 148.32C165.609 148.689 161.569 148.143 161.569 148.143C161.569 148.143 159.024 139.604 159.024 139.644C159.024 139.644 150.429 142.305 140.283 139.385L137.978 156.406H168.994L167.12 148.32ZM90.2716 88.5055C91.469 89.703 96.7382 102.038 96.7382 102.038C96.7382 102.038 95.9009 104.19 90.5239 105.269C89.7438 108.955 89.5812 111.571 90.876 117.314C88.4996 118.002 86.473 117.712 85.8578 117.123C85.1792 116.472 88.7748 114.363 87.947 113.485C87.1191 112.607 87.2347 112.591 85.8498 113.651C84.4649 114.71 82.3509 114.754 81.5775 115.976C81.5775 115.976 68.9128 115.109 67.2779 115.211L65.9582 111.562C64.1711 113.168 60.6722 113.862 58.2525 114.158C58.2505 114.159 58.2481 114.159 58.2461 114.159C58.0704 114.18 57.9014 114.2 57.7381 114.217C57.7233 114.219 57.7079 114.22 57.6931 114.222C57.5375 114.238 57.3887 114.253 57.2469 114.266C57.2298 114.268 57.2126 114.269 57.1958 114.271C57.0557 114.284 56.923 114.295 56.7987 114.305C56.0989 114.36 55.6621 114.373 55.6621 114.373C54.7039 109.343 53.5753 98.2392 54.9434 95.3316C56.8595 91.2599 61.7695 89.3438 61.7695 89.3438L61.9533 89.321C62.5167 91.0623 64.3643 94.9365 69.5602 94.4104C74.1893 93.9417 74.7534 89.8629 74.7265 87.7244L75.0098 87.6891C76.2035 90.6037 79.5337 93.5183 82.7736 92.0552C85.2961 90.9159 85.7171 88.0641 85.7281 86.3523C85.878 86.3953 89.1021 87.3357 90.2716 88.5055ZM72.8293 101.897L72.4167 99.0855L65.9847 100.029L66.3973 102.84L72.8293 101.897ZM76.6201 95.6683C77.1157 95.6891 77.5343 95.3041 77.5548 94.8085C77.5756 94.3129 77.1906 93.8943 76.695 93.8738C76.1995 93.853 75.7808 94.238 75.7603 94.7336C75.7395 95.2292 76.1245 95.6474 76.6201 95.6683ZM78.4969 99.5223C78.5177 99.0267 78.1327 98.6081 77.6371 98.5873C77.1415 98.5664 76.7229 98.9515 76.7024 99.447C76.6816 99.9426 77.0666 100.361 77.5622 100.382C78.0574 100.403 78.4761 100.018 78.4969 99.5223ZM88.7681 122.359C87.1658 122.928 86.2758 122.47 84.6376 121.795C81.1635 120.623 79.1423 121.056 78.8943 121.104C67.6911 123.857 64.4577 123.318 64.4577 123.318C64.4577 123.318 64.4577 126.072 64.3979 127.689C64.3381 129.305 62.7213 140.682 62.7213 140.682C63.7394 140.562 64.2181 137.987 64.3979 136.311C64.5776 134.634 65.2361 132.599 65.2361 132.599C65.2361 132.599 64.9368 136.55 66.0744 138.706C67.212 140.862 70.8047 143.017 81.2234 141.999C91.6421 140.981 95.5938 136.132 95.5938 136.132L91.7617 121.042C91.7617 121.042 90.6244 121.701 88.7681 122.359ZM33.5413 91.862V89.1476H26.6752C28.6713 94.1772 33.5413 91.862 33.5413 91.862ZM30.2295 77.9299V76.9059H26.4024C25.8645 79.3669 25.5819 81.7913 25.6081 83.9712C28.4979 83.9819 32.2783 83.9886 33.7385 83.9695L33.7405 83.5804C33.7405 83.5804 33.5759 79.5759 30.2295 77.9299Z" fill="#3F3F3F"/>
<path d="M25.4432 156.307C25.4432 156.492 25.293 156.643 25.1076 156.643L23.2432 156.646C23.0578 156.646 22.9072 156.496 22.9069 156.311C22.9066 156.125 23.0567 155.974 23.2425 155.974L25.1072 155.971C25.292 155.971 25.4429 156.122 25.4432 156.307ZM175.108 156.304C175.108 156.49 174.958 156.64 174.772 156.64C174.772 156.64 174.772 156.64 174.772 156.64C125.915 156.567 76.3446 156.567 27.4389 156.64C27.2535 156.64 27.1029 156.49 27.1026 156.304C27.1023 156.119 27.2524 155.968 27.4382 155.968C30.9852 155.962 34.5418 155.958 38.0951 155.954C17.3417 143.336 16.187 124.529 21.6171 112.098C24.6221 105.219 30.2437 101.441 36.1955 97.4416C42.4246 93.2556 48.8653 88.9272 53.4295 80.5915C54.6948 78.2803 56.2521 75.9954 58.0607 73.7658C57.3004 72.5314 56.6724 71.1563 56.2148 69.6736C54.4674 64.01 55.8187 58.5268 59.7412 55.3643C67.42 49.1728 75.2557 52.4144 77.831 53.4797C78.0914 53.5873 78.3598 53.6985 78.4552 53.7223C78.5295 53.7092 78.7066 53.6561 78.8641 53.6091C79.783 53.3346 81.6958 52.7624 83.0955 53.642C83.3841 53.8231 83.633 54.057 83.8447 54.3385C84.8973 53.8473 85.9583 53.3766 87.0281 52.9304V40.387C87.0281 38.6265 88.4607 37.1939 90.2212 37.1939H104.193V35.9333C104.193 35.7478 104.343 35.5973 104.529 35.5973H123.37C123.556 35.5973 123.706 35.7478 123.706 35.9333V37.1939H137.678C139.439 37.1939 140.871 38.6265 140.871 40.387V52.8579C145.385 54.9483 149.732 57.5421 153.729 60.5874C154.263 60.9949 154.785 61.4122 155.302 61.8332C159.144 62.4887 162.093 64.475 163.973 67.74C165.075 69.6538 165.785 71.5023 166.224 73.2387C172.407 81.669 176.082 91.4258 176.831 101.797C177.6 112.439 176.742 121.583 175.27 129.036C176.159 131.455 177.22 134.503 177.363 134.916C177.518 135.162 178.185 136.296 177.947 137.231C177.863 137.562 177.664 137.83 177.38 138.024L178.661 143.031C178.701 143.186 178.626 143.347 178.481 143.417C178.171 143.566 172.397 146.346 169.263 147.78C168.814 148.741 168.375 149.621 167.954 150.428L169.236 155.961C171.081 155.964 172.931 155.965 174.773 155.968C174.958 155.968 175.108 156.119 175.108 156.304ZM168.315 148.207C167.967 148.361 167.696 148.477 167.517 148.546L167.718 149.414C167.914 149.028 168.113 148.626 168.315 148.207ZM173.603 126.591C172.467 124.065 169.225 125.313 169.088 125.367L160.752 128.248L160.81 128.608C160.81 128.608 160.904 129.016 160.622 129.106C160.242 129.225 160.149 128.729 160.149 128.729L159.269 123.34C158.796 123.429 158.238 123.49 157.607 123.524L158.617 129.646C158.617 129.646 158.655 129.83 158.547 129.97C158.546 129.978 158.55 129.985 158.548 129.993C158.544 130.015 158.21 132.292 159.027 137.191C159.765 141.624 161.462 146.778 161.82 147.837C162.988 147.985 165.45 148.222 166.713 148.055L166.228 145.961C166.228 145.961 166.125 145.521 166.39 145.413C166.695 145.287 166.851 145.672 166.851 145.672L167.364 147.885C168.965 147.238 176.475 143.635 177.941 142.93L176.77 138.354C174.449 139.479 168.817 141.641 168.561 141.739C168.549 141.743 168.194 141.865 167.701 141.865C166.891 141.865 165.706 141.537 165.042 139.827C163.425 135.664 162.301 131.948 162.29 131.911C162.236 131.733 162.337 131.546 162.515 131.492C162.692 131.437 162.88 131.54 162.933 131.717C162.944 131.754 164.061 135.446 165.668 139.583C166.498 141.718 168.255 141.134 168.329 141.108C168.388 141.086 175.063 138.523 176.925 137.523C177.126 137.416 177.243 137.27 177.296 137.066C177.45 136.464 176.974 135.549 176.777 135.247C176.762 135.224 176.75 135.199 176.741 135.174C176.717 135.103 174.292 128.126 173.603 126.591ZM151.44 89.4268C151.411 89.1661 151.636 89.0377 151.717 89.0186C152.126 88.9228 152.521 88.8035 152.908 88.6718C153.357 86.0636 154.163 83.8872 154.227 83.7165C154.285 83.5629 154.445 83.4732 154.605 83.5048C156.051 83.783 157.099 83.3902 157.638 82.3679C158.32 81.0777 157.989 79.1667 157.261 78.4446C157.048 78.2326 156.813 78.1423 156.538 78.1675C155.622 78.2531 154.527 79.5722 154.182 80.0731C154.095 80.1985 153.936 80.2505 153.792 80.1991C152.021 79.5651 151.469 78.111 150.935 76.7046C150.159 74.6622 149.357 72.5506 144.92 72.0738C142.207 71.7825 140.642 70.9144 139.747 69.9222C139.716 70.741 139.467 76.7564 138.784 79.6021C138.291 81.6549 137.75 86.6358 143.355 88.5469C145.461 89.2645 147.651 89.5118 149.705 89.3361C149.796 89.3283 150.063 89.3861 150.063 89.6465C150.063 89.9059 149.852 89.999 149.762 90.0067C149.471 90.0319 149.177 90.046 148.881 90.0547C149.192 90.9538 149.754 92.884 149.46 94.366C149.644 95.0789 150.165 96.7844 150.682 97.3421C151.032 97.3387 152.058 96.5263 153.26 95.4075C152.491 93.726 152.504 91.4904 152.791 89.4234C152.479 89.5198 152.162 89.6069 151.838 89.6814C151.735 89.7053 151.465 89.6462 151.44 89.4268ZM163.777 96.7578C162.435 97.4694 160.76 98.0265 158.918 98.1105C158.081 101.718 155.248 109.918 154.765 111.305C157.499 114.334 163.784 114.229 165.123 114.171C165.431 112.63 167.008 104.428 166.824 99.3788C166.682 98.9407 166.488 98.5221 166.222 98.1528C165.659 97.3717 164.835 96.9047 163.777 96.7578ZM166.66 97.6253C166.65 97.5605 166.64 97.4926 166.628 97.4301C166.469 96.5912 166.209 95.892 165.898 95.2933C165.548 95.6135 165.125 95.9431 164.634 96.2599C165.463 96.5082 166.142 96.9651 166.66 97.6253ZM166.685 109.173C166.24 112.086 165.774 114.348 165.73 114.56C165.7 114.707 165.576 114.816 165.427 114.827C165.377 114.831 165.151 114.847 164.797 114.857C164.636 118.62 164.566 122.541 164.673 126.182L168.854 124.737C169.163 124.615 169.554 124.503 169.984 124.43L166.685 109.173ZM170.655 124.356C171.241 124.325 171.859 124.385 172.432 124.603L167.339 103.831C167.24 104.977 167.107 106.14 166.958 107.258L170.655 124.356ZM164.01 117.6C163.43 119.737 162.252 122.416 159.924 123.178L160.642 127.575L163.987 126.419C163.896 123.573 163.917 120.566 164.01 117.6ZM158.229 98.1219C157.838 98.1138 157.44 98.0846 157.039 98.0285C155.931 100.425 155.913 103.672 156.015 105.495C156.88 102.854 157.798 99.9207 158.229 98.1219ZM156.356 97.9052C155.152 97.6381 154.227 97.0038 153.597 96.0183C152.458 97.0676 151.279 98.001 150.677 98.0134C150.672 98.0134 150.667 98.0134 150.661 98.0134C150.447 98.0134 150.311 97.923 150.234 97.8461C149.46 97.072 148.856 94.7208 148.789 94.455C148.777 94.4043 148.776 94.3515 148.787 94.3008C148.797 94.2544 148.802 94.2051 148.811 94.1577C148.339 94.3136 147.909 94.4594 147.547 94.5844C147.295 95.4868 146.911 96.3493 146.182 96.8129C145.365 97.3327 145.259 98.4575 145.047 100.698L145.019 100.992C144.999 101.197 144.974 101.497 144.942 101.875C144.404 108.303 143.715 113.05 142.846 116.249L155.309 115.49L155.854 113.038C155.201 112.644 154.61 112.171 154.127 111.595C154.051 111.504 154.028 111.38 154.067 111.268C154.084 111.221 154.717 109.406 155.498 107.061C155.487 107.034 155.475 107.008 155.47 106.978C155.431 106.699 154.753 101.548 156.356 97.9052ZM148.096 92.1979C148.009 92.4593 147.933 92.8386 147.853 93.2408C147.816 93.4236 147.778 93.6127 147.736 93.8046C148.076 93.6883 148.458 93.5596 148.868 93.4249C148.862 92.117 148.379 90.64 148.169 90.0594C147.993 90.0564 147.816 90.0517 147.639 90.043C147.721 90.1448 147.798 90.2523 147.865 90.3685C148.205 90.9531 148.289 91.6197 148.096 92.1979ZM140 95.3161C140.115 94.8911 140.185 94.5498 140.197 94.32C140.303 92.2016 140.338 91.152 140.345 90.9501C140.012 89.2007 139.832 88.0644 140.242 87.5833C140.083 87.4462 139.936 87.3051 139.796 87.1609C139.298 89.6636 138.969 92.9949 140 95.3161ZM138.668 101.227C137.077 105.544 135.098 110.916 134.96 113.671C134.809 116.692 135.399 118.94 136.62 120C136.683 120.055 136.749 120.104 136.815 120.151C137.165 118.256 137.906 116.998 139.019 116.414C140.259 115.763 141.533 116.179 141.866 116.308L142.132 116.292C142.918 113.465 143.676 108.94 144.272 101.819C144.304 101.438 144.33 101.135 144.349 100.929L144.377 100.635C144.602 98.2539 144.726 96.9423 145.821 96.2461C146.673 95.7035 146.962 94.2649 147.193 93.1088C147.282 92.6676 147.358 92.2866 147.459 91.9856C147.591 91.5905 147.527 91.1241 147.284 90.7058C147.054 90.3091 146.694 90.0161 146.335 89.926C145.265 89.7866 144.191 89.542 143.138 89.1828C142.248 88.8795 141.505 88.5001 140.88 88.0708C140.789 88.0278 140.74 88.0217 140.728 88.0217C140.725 88.0217 140.724 88.0217 140.724 88.0217C140.516 88.2576 140.838 89.9512 141.011 90.8611C141.016 90.8849 141.018 90.9095 141.017 90.9336C141.017 90.9437 140.986 91.9826 140.868 94.3536C140.816 95.3971 139.868 97.9697 138.668 101.227ZM138.095 124.159C138.845 125.212 139.978 125.65 140.548 125.813L140.876 121.77C140.883 121.677 140.929 121.592 141.003 121.534C141.076 121.476 141.17 121.451 141.262 121.465C141.409 121.488 155.957 123.714 159.673 122.555C162.937 121.534 163.734 115.891 163.852 114.865C162.012 114.846 158.92 114.605 156.467 113.375L155.91 115.882C155.877 116.029 155.751 116.136 155.602 116.145L141.83 116.983C141.776 116.985 141.721 116.976 141.672 116.954C141.66 116.949 140.443 116.42 139.326 117.011C138.403 117.499 137.778 118.606 137.47 120.3C137.184 121.876 137.394 123.174 138.095 124.159ZM139.78 138.698C146.264 141.036 153.562 140.361 158.749 139.31C158.605 138.635 158.474 137.96 158.364 137.301C157.526 132.275 157.87 129.983 157.885 129.888C157.894 129.832 157.92 129.784 157.952 129.742L156.93 123.549C151.907 123.673 143.587 122.491 141.587 122.194C141.038 128.239 139.986 137 139.78 138.698ZM165.316 85.3097C164.718 86.7228 163.354 90.7603 164.356 92.1398C164.621 92.504 165.05 92.6555 165.659 92.6018C166.317 92.543 166.751 92.6942 166.952 93.0473C167.098 93.303 167.161 93.7602 166.638 94.4859C166.569 94.5827 166.487 94.6832 166.398 94.786C166.783 95.4781 167.098 96.3076 167.289 97.3045C167.509 98.4643 167.55 99.9802 167.483 101.63C167.488 101.644 167.498 101.655 167.501 101.67L173.234 125.053C173.625 125.354 173.966 125.76 174.216 126.316C174.359 126.633 174.57 127.169 174.817 127.82C176.15 120.623 176.888 111.912 176.161 101.845C175.395 91.2518 171.809 82.1599 166.521 74.6084C167.63 80.8099 165.347 85.2502 165.316 85.3097ZM139.559 65.4406C139.4 65.7057 139.001 67.0328 139.567 68.3982C140.256 70.0583 142.132 71.0985 144.991 71.4056C149.839 71.9263 150.754 74.3383 151.563 76.4661C152.059 77.771 152.49 78.908 153.788 79.4751C154.197 78.9402 155.324 77.6064 156.476 77.4989C156.949 77.4545 157.376 77.6121 157.734 77.9679C158.66 78.8858 159.07 81.0969 158.232 82.682C157.854 83.399 156.906 84.5201 154.763 84.2131C154.285 85.5949 152.184 92.1324 154.032 95.4485C154.588 96.4464 155.433 97.0444 156.613 97.2769C161.006 98.1424 165.017 95.5873 166.093 94.0928C166.394 93.6752 166.404 93.4431 166.368 93.3789C166.334 93.3204 166.16 93.2317 165.717 93.2707C164.863 93.345 164.221 93.0973 163.812 92.5342C162.407 90.5993 164.47 85.5862 164.71 85.0207C164.762 84.9186 168.683 77.2674 163.39 68.075C157.051 57.066 140.323 65.067 139.559 65.4406ZM140.871 64.1259C142.64 63.4002 145.653 62.3261 148.975 61.8419C150.822 61.5728 152.538 61.5227 154.122 61.6753C149.965 58.4401 145.475 55.7473 140.871 53.6138V64.1259ZM123.706 40.4814H136.463C136.649 40.4814 136.799 40.6319 136.799 40.8174V96.5583C136.799 96.7437 136.649 96.8942 136.463 96.8942H94.8554C95.3345 97.965 95.7776 98.9736 96.1418 99.8089H109.546C109.587 99.7427 109.631 99.6738 109.669 99.6116C110.126 98.8715 110.487 98.2872 111.274 98.2872C112.215 98.2872 115.337 97.6435 115.369 97.6367C115.485 97.6142 115.604 97.6512 115.684 97.7386C115.733 97.793 116.171 98.2886 116.117 98.9272C116.09 99.2582 115.931 99.5525 115.659 99.8092H137.678C137.976 99.8092 138.262 99.7554 138.528 99.659C138.993 98.3897 139.417 97.2057 139.721 96.2495C138.114 93.5714 138.614 89.3545 139.235 86.5044C137.319 83.9318 137.836 80.6715 138.13 79.4455C138.832 76.5191 139.076 69.8785 139.079 69.812C139.08 69.7915 139.082 69.771 139.086 69.7512C139.126 69.5731 139.177 69.4008 139.233 69.2314C138.646 68.2507 138.577 67.2505 138.61 66.6259C138.611 66.6091 138.71 65.0529 139.255 64.8412C139.345 64.7969 139.676 64.6366 140.199 64.4095V40.387C140.199 38.9967 139.068 37.8658 137.678 37.8658H123.706V40.4814ZM112.383 100.459C112.43 100.341 112.54 100.259 112.666 100.248C112.681 100.246 114.213 100.102 115.107 99.4067C115.321 99.2411 115.432 99.066 115.449 98.8715C115.466 98.6655 115.372 98.4666 115.293 98.3383C114.557 98.4868 112.143 98.9595 111.275 98.9595C110.878 98.9595 110.683 99.2498 110.241 99.9651C109.949 100.438 109.585 101.027 109.009 101.692C107.559 103.365 98.0398 105.864 96.9593 106.143C96.8064 106.183 96.6455 106.11 96.5746 105.968C96.377 105.573 96.0182 104.672 95.6362 103.671C94.7116 104.321 93.2108 105.045 90.8088 105.552C90.4709 107.183 90.2615 108.614 90.2585 110.231C91.2268 112.005 92.5432 113.594 94.1811 113.672C98.6197 113.885 109.552 106.525 109.663 106.451C109.748 106.393 109.853 106.378 109.95 106.408C114.644 107.861 119.342 107.498 120.785 106.247C121.793 105.373 121.955 104.331 121.978 103.923C121.999 103.54 121.93 103.298 121.882 103.214C121.706 103.196 121.225 103.22 120.758 103.243C119.765 103.292 118.266 103.367 116.829 103.23C114.425 103.001 112.525 100.896 112.445 100.806C112.361 100.711 112.337 100.577 112.383 100.459ZM97.052 102.159C97.0359 102.201 96.8494 102.651 96.1895 103.236C96.5248 104.12 96.8474 104.942 97.0607 105.422C100.125 104.617 107.423 102.495 108.501 101.251C108.735 100.981 108.928 100.724 109.101 100.481H96.4341C96.7362 101.177 96.9552 101.689 97.048 101.906C97.0822 101.987 97.0839 102.078 97.052 102.159ZM104.864 42.7822H123.034V36.2689H104.864V42.7822ZM104.192 43.1182V41.1534H91.7711V90.3531C92.5905 91.9345 93.619 94.1469 94.5537 96.2223H136.127V41.1534H123.706V43.1182C123.706 43.3036 123.555 43.4542 123.37 43.4542H104.528C104.343 43.4542 104.192 43.304 104.192 43.1182ZM87.6994 86.6768C88.7117 87.0779 89.8768 87.6353 90.5095 88.2676C90.657 88.4151 90.8589 88.7135 91.0991 89.122V40.8174C91.0991 40.6319 91.2496 40.4814 91.4351 40.4814H104.192V37.8658H90.2206C88.8303 37.8658 87.6994 38.9967 87.6994 40.387V86.6768ZM86.0588 86.8055C85.9781 88.6134 85.4043 91.2357 82.9123 92.3609C81.5217 92.9888 80.0051 92.9126 78.5258 92.1388C77.1217 91.4047 75.842 90.0493 75.0474 88.5552C74.9701 89.8037 74.6523 91.365 73.6934 92.6223C72.7577 93.8496 71.3789 94.5632 69.5952 94.744C69.2585 94.7779 68.935 94.794 68.6245 94.794C64.2135 94.7944 62.4059 91.5216 61.7447 89.7187C60.9252 90.0739 56.9012 91.9627 55.2489 95.4741C53.9641 98.2042 55.0127 108.96 55.9403 114.023C57.4122 113.947 64.1308 113.459 66.1856 110.841C65.8077 109.738 63.821 103.769 63.7105 99.8912C63.7051 99.7057 63.8513 99.5508 64.0367 99.5458C64.2161 99.5354 64.3767 99.6862 64.3821 99.872C64.499 103.963 66.8546 110.72 66.8784 110.788C66.914 110.89 66.8986 111.004 66.8361 111.092C66.696 111.291 66.5327 111.479 66.352 111.657L67.5131 114.867C68.3618 114.854 70.3535 114.946 72.5803 115.07C72.5854 115.066 72.5881 115.06 72.5934 115.056C77.4729 111.577 85.7994 110.3 86.1515 110.247C86.3346 110.223 86.506 110.347 86.5335 110.53C86.5611 110.714 86.4347 110.885 86.251 110.912C86.1703 110.924 78.5201 112.099 73.6907 115.134C77.022 115.329 80.5387 115.568 81.4135 115.628C81.9313 114.958 82.7867 114.647 83.6885 114.319C84.3759 114.07 85.0868 113.811 85.6475 113.383L85.8286 113.244C87.0049 112.341 87.224 112.217 88.0726 113.125L88.1933 113.254C88.8558 113.957 87.905 114.914 87.066 115.759C86.7213 116.105 86.1529 116.678 86.1122 116.898C86.636 117.364 88.3754 117.617 90.4809 117.075C89.2513 111.504 89.4179 108.895 90.1833 105.261C90.1846 105.219 90.1927 105.18 90.2088 105.143C90.2525 104.938 90.2971 104.731 90.3445 104.519C91.2601 100.399 87.6385 95.0964 87.6019 95.043C87.4964 94.8905 87.5347 94.6811 87.6873 94.5757C87.8398 94.4705 88.0491 94.5081 88.1546 94.661C88.3112 94.8874 91.9791 100.261 91.0004 104.665C90.9883 104.72 90.9765 104.773 90.9644 104.828C94.9834 103.923 96.1247 102.439 96.3693 102.025C94.8634 98.5073 90.9674 89.6744 90.0354 88.7427C89.1558 87.8645 86.9821 87.1015 86.0588 86.8055ZM95.9476 117.573C95.9191 117.379 95.7998 117.213 95.5838 117.084C95.0274 116.749 93.7255 116.654 91.7385 117.386C89.0218 118.387 86.4502 118.155 85.626 117.365C85.5044 117.248 85.4389 117.097 85.4369 116.929C85.4312 116.474 85.871 116.008 86.5883 115.285C87.0536 114.817 87.9201 113.945 87.7034 113.715L87.5804 113.584C87.399 113.39 87.2045 113.176 87.1326 113.175C87.0062 113.187 86.6666 113.447 86.2365 113.777L86.0544 113.916C85.4117 114.408 84.6517 114.684 83.9166 114.951C83.0535 115.265 82.2384 115.561 81.8624 116.155C81.7966 116.26 81.6823 116.317 81.5553 116.311C81.429 116.302 68.8963 115.443 67.2998 115.546C67.1509 115.551 67.0138 115.465 66.9631 115.325L65.8046 112.122C63.5432 113.815 59.4782 114.406 57.2412 114.607C57.9646 116.692 59.1459 119.569 60.5775 121.087C62.8702 123.519 65.8836 123.239 70.5745 122.489C73.1932 122.07 75.1536 121.61 76.7287 121.24C78.5799 120.805 79.8039 120.518 80.8659 120.579C81.9501 120.642 83.3599 121.062 84.7233 121.469C85.7863 121.786 86.7902 122.086 87.4571 122.153C88.8225 122.303 95.8052 118.525 95.9476 117.573ZM87.3896 122.823C86.6592 122.748 85.6257 122.44 84.5314 122.114C83.2046 121.718 81.8328 121.309 80.8273 121.25C79.8613 121.197 78.676 121.473 76.8825 121.894C75.2967 122.267 73.3235 122.73 70.681 123.153C68.9615 123.428 67.2819 123.697 65.7123 123.697C65.4257 123.697 65.1431 123.687 64.8642 123.667C64.8626 124.149 64.8609 124.606 64.8609 125.031C64.8609 127.962 63.6248 136.63 63.135 139.951C63.6278 138.856 63.8825 137.225 63.9507 136.496L64.912 130.842C64.9412 130.67 65.0981 130.546 65.2715 130.564C65.4455 130.578 65.5792 130.724 65.5792 130.899C65.5792 130.919 65.5822 132.969 65.8181 136.625C66.0395 140.055 69.484 140.983 69.5189 140.992C86.3158 144.156 94.1911 137.147 95.2485 136.109C94.9246 134.857 93.0192 127.481 91.5137 121.386C89.7908 122.249 88.114 122.895 87.3896 122.823ZM69.6193 80.6829C70.1294 80.8959 70.6474 81.0626 71.1689 81.1859C71.2945 81.2155 71.564 81.3435 71.5438 81.583C71.524 81.8226 71.2462 81.8931 71.0963 81.8592C70.512 81.7261 69.9311 81.5417 69.3603 81.3031C69.2172 81.2433 69.0767 81.1775 68.9373 81.1096C69.1134 82.0917 69.3096 83.656 69.1278 85.1568C70.1206 85.6336 74.5394 87.4922 77.6351 84.507C77.3704 84.1109 77.074 83.2522 76.9605 81.417C75.8192 81.8837 74.5992 82.1202 73.3585 82.1202C73.3084 82.1202 72.961 82.0221 72.9808 81.7826C73.0074 81.4637 73.3097 81.4446 73.3601 81.4446C74.8636 81.4446 76.3346 81.0777 77.6492 80.3436C79.9124 79.0796 81.4485 76.8464 81.8631 74.2167C82.5149 70.0828 81.4996 64.7743 80.8592 62.0546C80.8474 62.0331 80.8326 62.0139 80.8256 61.9894C80.8148 61.9515 80.8145 61.9138 80.8168 61.8765C80.6959 61.3709 80.5907 60.9647 80.5165 60.6885C79.8425 61.0292 78.2748 61.6266 75.2991 61.8362C74.0932 61.9205 72.8901 61.7767 71.7263 61.637C69.3401 61.3504 67.2793 61.1028 65.6575 62.7376C64.2891 64.1172 65.4465 67.4356 66.2122 69.6312C66.5451 70.5861 66.8082 71.3404 66.8405 71.8154C66.8841 72.4575 66.606 72.9406 66.0771 73.1409C65.3057 73.4318 64.1402 73.0518 63.5821 72.3265C62.8437 71.3669 61.4984 70.7759 60.815 71.1099C60.2153 71.4029 60.1028 72.4051 60.4979 73.9321C61.2407 76.8044 64.0565 76.2141 64.1762 76.1879C64.2003 76.1825 64.2249 76.1798 64.2491 76.1798C64.3573 76.1798 64.4607 76.2319 64.5246 76.3223C64.5471 76.3542 66.783 79.4976 69.6193 80.6829ZM68.1699 80.6873C67.8632 80.5005 67.5682 80.2999 67.2863 80.0893C67.2809 80.0889 67.2759 80.0889 67.2705 80.0886C64.8562 79.8951 62.5346 78.7437 60.5926 76.9062C60.1236 77.8523 58.7091 81.0354 59.6337 83.3415C60.0648 84.4163 60.9662 85.1719 62.3135 85.5879C63.6231 85.9927 64.7571 85.894 65.6824 85.2942C67.4731 84.1351 68.046 81.4278 68.1709 80.6917C68.1706 80.69 68.1703 80.689 68.1699 80.6873ZM78.3484 84.7402C77.3324 85.8217 76.177 86.3956 75.0259 86.6563C75.4946 88.5929 77.0549 90.6114 78.8369 91.5431C79.736 92.0131 81.1253 92.4304 82.6358 91.7484C85.6381 90.3924 85.4453 86.3173 85.3445 85.2815L78.2231 84.1687C78.2416 84.1932 78.255 84.207 78.2617 84.2131C78.3461 84.2581 78.4082 84.3374 78.4307 84.4314C78.4566 84.542 78.426 84.6579 78.3484 84.7402ZM68.7539 85.7209L62.1223 88.6977C62.4062 89.8807 63.9023 94.6455 69.5273 94.0757C71.1185 93.9148 72.3404 93.2888 73.1589 92.2154C74.5737 90.3601 74.4302 87.6636 74.3368 86.7776C74.0103 86.8182 73.6864 86.8367 73.3685 86.8367C71.1833 86.8367 69.2874 85.9843 68.7539 85.7209ZM84.1659 54.8707C84.3658 55.2745 84.5129 55.7439 84.5993 56.2858C85.2256 60.2044 82.5226 61.6995 81.5661 62.1003C82.2229 64.9124 83.1885 70.1255 82.5266 74.3212C82.0795 77.1562 80.4211 79.5651 77.9768 80.9302C77.8589 80.9961 77.7383 81.0549 77.6183 81.1153C77.6758 82.2671 77.8024 83.0022 77.9294 83.4645C77.9641 83.4588 77.9993 83.4541 78.0359 83.4598L85.7003 84.6572C85.8448 84.6797 85.958 84.793 85.9805 84.9374C85.9902 84.9999 86.0558 85.4491 86.0682 86.1029C86.2859 86.1701 86.6222 86.278 87.0277 86.4231V53.5943C86.0601 54.0035 85.1066 54.4296 84.1659 54.8707ZM66.2861 79.2691C65.1811 78.273 64.3942 77.2741 64.0999 76.88C63.304 76.9828 60.6212 77.092 59.8474 74.1008C59.2275 71.7046 59.8709 70.8236 60.52 70.5065C61.611 69.9729 63.2593 70.8055 64.1147 71.9169C64.4903 72.4048 65.344 72.6997 65.8396 72.5126C65.9965 72.4531 66.2018 72.3211 66.1705 71.8615C66.1443 71.4764 65.8819 70.7242 65.5779 69.8527C64.708 67.3584 63.5166 63.9425 65.1807 62.2646C67.0333 60.3969 69.3519 60.6747 71.8066 60.9697C72.9388 61.1058 74.1094 61.2466 75.2517 61.1656C79.2166 60.8861 80.5054 59.9225 80.5182 59.9127C80.6062 59.8449 80.7211 59.825 80.8269 59.859C80.9324 59.8932 81.0144 59.9772 81.0456 60.0834C81.0688 60.1617 81.213 60.6586 81.4078 61.4438C82.2904 61.0641 84.475 59.7686 83.9354 56.3917C83.7671 55.3381 83.3636 54.6043 82.737 54.2105C81.595 53.4929 79.943 53.9871 79.0556 54.2525C78.7862 54.3331 78.6078 54.3862 78.4794 54.395C78.3195 54.4087 78.1475 54.3378 77.5733 54.1C75.0891 53.0722 67.5302 49.9456 60.1619 55.8867C55.7347 59.4565 55.5513 65.2464 56.8559 69.475C58.447 74.6303 62.1549 78.4292 66.2861 79.2691ZM27.8297 104.593H29.8939V103.341C29.7306 103.34 29.5042 103.338 29.2236 103.337C28.7455 103.743 28.2832 104.163 27.8297 104.593ZM22.5746 111.645C26.9336 111.667 32.2437 111.681 33.4049 111.652L33.4052 111.601C33.4039 111.579 33.2036 107.789 30.0817 106.254C29.9668 106.198 29.8939 106.081 29.8939 105.953V105.265H27.1409C25.332 107.09 23.769 109.16 22.5746 111.645ZM21.0849 115.409C21.0909 115.819 21.0977 116.23 21.105 116.64H33.381L33.4019 112.308C32.9288 112.333 31.986 112.345 30.0515 112.345C28.345 112.345 25.8618 112.335 22.2571 112.316C22.2494 112.333 22.2407 112.35 22.2329 112.367C21.8062 113.343 21.4215 114.359 21.0849 115.409ZM21.1178 117.312C21.1749 120.212 21.2559 123.469 21.2845 124.375H33.3468L33.3777 117.312H21.1178ZM19.5438 124.375H20.6182C20.5974 123.642 20.5137 120.649 20.4526 117.659C19.9311 119.801 19.612 122.056 19.5438 124.375ZM33.3777 147.154H28.2664C29.7437 148.776 31.4347 150.352 33.3552 151.865L33.3777 147.154ZM33.4015 142.151C32.9285 142.175 31.9857 142.188 30.0511 142.188C28.7163 142.188 26.9 142.181 24.4511 142.17C25.375 143.632 26.4444 145.073 27.6687 146.482H33.381L33.4015 142.151ZM33.4049 141.444C33.4035 141.421 33.2033 137.631 30.0814 136.096C29.9665 136.04 29.8936 135.923 29.8936 135.795V135.107H24.2572V135.795C24.2572 135.93 24.1766 136.052 24.0522 136.104C23.9817 136.135 22.9798 136.59 22.154 137.855C22.6899 139.076 23.3151 140.292 24.0358 141.494C28.048 141.512 32.3701 141.52 33.4052 141.494L33.4049 141.444ZM29.8939 134.435V133.183C29.1588 133.177 27.2209 133.167 24.2572 133.184V134.435H29.8939ZM38.122 154.507H37.0513C37.402 154.735 37.7588 154.961 38.122 155.186V154.507ZM38.122 127.293H19.6167C19.6076 127.293 19.6002 127.288 19.5915 127.288C19.7937 130.523 20.5016 133.842 21.8452 137.127C22.5162 136.244 23.2378 135.774 23.5852 135.587V132.851C23.5852 132.666 23.7344 132.516 23.9189 132.515C27.9661 132.487 30.2114 132.514 30.2339 132.515C30.418 132.517 30.5659 132.667 30.5659 132.851V135.589C33.8712 137.354 34.0698 141.263 34.0765 141.432L34.0244 152.385C34.6709 152.876 35.3452 153.359 36.0423 153.835H38.122V127.293ZM38.122 125.047H19.531C19.5266 125.573 19.5354 126.101 19.5572 126.632C19.5774 126.629 19.5955 126.62 19.6167 126.62H38.122V125.047ZM38.122 99.2699H34.689C33.0753 100.37 31.5069 101.481 30.033 102.67C30.1613 102.672 30.2302 102.672 30.2339 102.672C30.418 102.675 30.5659 102.824 30.5659 103.008V105.747C33.8712 107.512 34.0698 111.42 34.0765 111.589L34.018 124.375H38.122V99.2699ZM38.122 97.0246H38.0159C37.5331 97.3515 37.0506 97.6757 36.5695 97.9993C36.2718 98.1995 35.9755 98.3987 35.6798 98.598H38.1217L38.122 97.0246ZM43.5511 93.0345C41.9898 94.2699 40.3932 95.4025 38.7943 96.4954V155.594C38.9946 155.714 39.1948 155.834 39.3987 155.952C40.7836 155.95 42.1655 155.948 43.5511 155.947V93.0345ZM61.7564 155.929C61.6593 152.543 62.5675 145.022 63.0567 141.266C62.9717 141.348 62.883 141.421 62.7889 141.481C62.6777 141.552 62.5352 141.552 62.425 141.479C62.3145 141.407 62.2564 141.277 62.2762 141.147C62.2953 141.022 64.1883 128.557 64.1883 125.031C64.1883 124.605 64.1899 124.145 64.1916 123.662C64.1916 123.641 64.1916 123.619 64.192 123.598C62.6592 123.386 61.2666 122.799 60.0883 121.549C58.522 119.887 57.2772 116.811 56.5437 114.663C56.0542 114.696 55.735 114.707 55.6719 114.708C55.6688 114.708 55.6655 114.708 55.6625 114.708C55.5015 114.708 55.3628 114.594 55.3325 114.435C54.506 110.095 53.1325 98.3924 54.6401 95.1881C56.452 91.3378 60.7643 89.3979 61.5337 89.077C61.445 88.7662 61.4077 88.571 61.406 88.56C61.3795 88.4084 61.4591 88.2586 61.5992 88.1958L68.4528 85.1195C68.5701 84.1916 68.5301 83.2169 68.4401 82.3863C68.0503 83.5616 67.333 85.0251 66.0496 85.857C65.383 86.2891 64.6348 86.5054 63.8126 86.5054C63.2771 86.5054 62.7106 86.4137 62.1149 86.2299C60.5641 85.7512 59.5188 84.8632 59.0091 83.5902C57.8887 80.7925 59.7345 77.0809 60.092 76.4066C59.5044 75.7931 58.9571 75.1151 58.4581 74.3796C56.6966 76.5574 55.2022 78.7521 54.0182 80.9148C51.2648 85.943 47.855 89.5279 44.2224 92.4953V155.946C50.061 155.939 55.9064 155.933 61.7564 155.929ZM100.52 155.913C98.1638 148.413 95.3405 139.126 94.809 137.375C92.6628 139.073 87.19 142.471 77.7709 142.471C75.2564 142.471 72.4611 142.229 69.3724 141.647C69.3113 141.632 65.3995 140.578 65.1471 136.668C65.089 135.767 65.045 134.962 65.0114 134.26L64.616 136.583C64.5934 136.83 64.4271 138.412 63.9363 139.75C63.5942 142.277 62.3115 152.069 62.4287 155.928C75.1123 155.918 87.8159 155.913 100.52 155.913ZM126.787 135.785H102.47V155.711H126.787V135.785ZM127.123 135.113H129.561V133.869H99.6958V135.113H102.134H127.123ZM111.016 113.088V113.87C111.016 114.005 110.935 114.127 110.811 114.18C110.682 114.235 107.743 115.554 107.536 120.106C112.528 120.134 119.702 120.158 121.062 120.121L121.062 120.036C121.061 120.01 120.843 115.856 117.418 114.172C117.303 114.115 117.23 113.998 117.23 113.871V113.089L111.016 113.088ZM117.23 112.416V110.99C116.449 110.983 114.31 110.97 111.016 110.991V112.416H117.23ZM107.523 120.778C107.522 122.19 107.509 123.87 107.493 125.566H121.037L121.059 120.775C120.555 120.802 119.514 120.816 117.3 120.816C115.234 120.816 112.145 120.804 107.523 120.778ZM107.486 126.238C107.459 128.952 107.427 131.616 107.426 133.197H121.004L121.034 126.238H107.486ZM137.733 155.926L139.893 139.441C139.695 139.372 139.494 139.311 139.297 139.237C139.151 139.183 139.062 139.036 139.081 138.881C139.095 138.77 139.867 132.416 140.487 126.492C139.869 126.334 138.476 125.851 137.548 124.548C136.848 123.565 136.569 122.333 136.712 120.881C136.526 120.772 136.346 120.652 136.179 120.506C134.779 119.291 134.126 116.916 134.289 113.637C134.432 110.779 136.431 105.354 138.037 100.994C138.108 100.802 138.178 100.611 138.248 100.421C138.063 100.456 137.873 100.48 137.678 100.48H114.532C114.131 100.639 113.731 100.744 113.409 100.81C114.079 101.412 115.401 102.417 116.893 102.56C118.282 102.692 119.694 102.622 120.724 102.571C121.5 102.533 121.881 102.516 122.09 102.568C122.258 102.61 122.482 102.757 122.593 103.221C122.78 104.002 122.57 105.588 121.225 106.754C119.442 108.299 114.391 108.445 109.906 107.096C108.592 107.974 98.8995 114.347 94.3638 114.347C94.2909 114.347 94.2194 114.345 94.1491 114.342C92.5781 114.267 91.299 113.081 90.3025 111.598C90.3996 113.073 90.6593 114.758 91.1267 116.885C91.2527 116.844 91.3787 116.802 91.5063 116.755C93.4107 116.053 95.0227 115.962 95.9295 116.507C96.3199 116.74 96.5564 117.084 96.6139 117.498C96.6498 117.759 96.5117 118.041 96.1791 118.386C95.479 119.112 93.834 120.168 92.1279 121.069C93.7732 127.737 95.9218 136.028 95.9463 136.123C95.9745 136.232 95.9463 136.348 95.8704 136.432C95.8596 136.444 95.6923 136.623 95.3698 136.907C95.4937 137.316 98.6261 147.645 101.191 155.806C101.202 155.841 101.203 155.877 101.202 155.912C101.401 155.912 101.599 155.912 101.798 155.912V135.784H99.3598C99.1744 135.784 99.0239 135.634 99.0239 135.448V133.532C99.0239 133.347 99.1744 133.196 99.3598 133.196H106.786C106.807 130.429 106.851 124.516 106.851 120.616C106.851 115.871 109.56 114.079 110.344 113.661V110.656C110.344 110.471 110.493 110.322 110.678 110.32C115.095 110.291 117.545 110.32 117.57 110.32C117.754 110.323 117.902 110.472 117.902 110.656V113.664C121.51 115.578 121.726 119.84 121.734 120.023L121.675 133.197H129.897C130.083 133.197 130.233 133.347 130.233 133.533V135.449C130.233 135.635 130.083 135.785 129.897 135.785H127.459V155.92C130.884 155.923 134.311 155.924 137.733 155.926ZM168.546 155.96L166.865 148.709C166.498 148.762 166.054 148.782 165.581 148.782C163.819 148.782 161.653 148.494 161.524 148.476C161.399 148.459 161.293 148.373 161.252 148.254C161.235 148.205 159.846 144.18 158.893 139.964C156.235 140.502 153.032 140.944 149.656 140.944C146.661 140.944 143.535 140.596 140.542 139.662L138.41 155.927C148.477 155.934 158.522 155.946 168.546 155.96ZM179.001 155.974L177.356 155.971C177.17 155.971 177.02 156.122 177.02 156.307C177.019 156.492 177.169 156.643 177.355 156.643L179 156.646C179.185 156.646 179.336 156.495 179.336 156.31C179.337 156.125 179.186 155.974 179.001 155.974ZM182.946 155.974H181.648C181.462 155.974 181.312 156.124 181.312 156.31C181.312 156.495 181.462 156.646 181.648 156.646H182.946C183.131 156.646 183.282 156.495 183.282 156.31C183.282 156.124 183.131 155.974 182.946 155.974ZM165.723 143.782C165.723 143.782 165.891 144.055 166.13 143.975C166.478 143.859 166.343 143.478 166.343 143.478L166.078 142.337C166.078 142.337 165.971 141.94 165.611 142.079C165.345 142.183 165.453 142.618 165.453 142.618L165.723 143.782ZM26.8204 90.5832C22.9996 84.6162 26.6188 68.6794 33.3837 61.6813C37.9739 56.9326 44.4381 55.4244 49.1031 58.0134C53.2182 60.2974 54.8087 65.1258 53.358 70.9295C49.1361 87.8168 34.2445 92.2745 33.7268 92.4234C32.7077 92.7792 31.8167 92.9297 31.0389 92.9297C28.8621 92.9297 27.5679 91.7511 26.8204 90.5832ZM33.3777 89.2894H26.9003C27.0458 89.6216 27.2044 89.9371 27.3858 90.2207C28.6501 92.1952 30.6626 92.7352 33.3652 91.8334L33.3777 89.2894ZM32.5418 63.6995H39.7189C39.9296 63.6797 41.5571 63.5736 42.8123 64.7307C43.8048 65.6455 44.2792 67.0802 44.2227 68.9952C44.0652 74.3518 44.221 79.3041 44.2227 79.3535V85.3433C47.6746 82.1169 51.0391 77.4333 52.7058 70.7665C54.0783 65.2763 52.6098 60.7288 48.7769 58.6014C47.3507 57.8098 45.742 57.4278 44.0705 57.4278C40.5858 57.4278 36.8262 59.0866 33.8665 62.1483C33.4096 62.6207 32.9688 63.1432 32.5418 63.6995ZM29.6466 68.5064H36.3823C36.3978 68.5047 37.3903 68.4362 38.1035 69.0967C38.5618 69.5211 38.7943 70.1339 38.7943 70.918V89.3851C40.2599 88.5274 41.9031 87.4022 43.5511 85.9531V79.3642C43.5498 79.3256 43.3932 74.3528 43.5511 68.9758C43.6015 67.2639 43.1997 66.002 42.3567 65.2249C41.2638 64.2173 39.7871 64.3681 39.7724 64.3698C39.7599 64.3712 39.7478 64.3718 39.7354 64.3718H32.0448C31.1676 65.6113 30.3629 67.0096 29.6466 68.5064ZM27.3472 74.6377C29.2109 74.6377 30.2191 74.6498 30.2339 74.6498C30.418 74.6521 30.5659 74.802 30.5659 74.9857V77.7246C33.8712 79.4892 34.0698 83.398 34.0765 83.5666L34.0382 91.6174C34.7767 91.363 36.2701 90.7895 38.122 89.7675V70.918C38.122 70.3311 37.9634 69.8856 37.6506 69.5936C37.1561 69.1316 36.4129 69.1763 36.4065 69.1777L29.3365 69.1784C28.5493 70.9174 27.8777 72.7676 27.3472 74.6377ZM26.8486 76.5699H29.8939V75.3184C29.4366 75.3147 28.5093 75.3093 27.1637 75.3096C27.0522 75.7299 26.9454 76.1502 26.8486 76.5699ZM25.9589 83.6369C29.3375 83.6486 32.5317 83.651 33.4049 83.6295L33.4052 83.5791C33.4039 83.5569 33.2036 79.7671 30.0817 78.2316C29.9668 78.1752 29.8939 78.0583 29.8939 77.9303V77.2422H26.7028C26.2301 79.4657 25.969 81.6499 25.9589 83.6369ZM26.64 88.6174H33.381L33.4019 84.2856C32.9288 84.3102 31.986 84.3226 30.0515 84.3226C29.0076 84.3226 27.6677 84.3189 25.9646 84.3115C26.0036 85.9319 26.2237 87.3955 26.64 88.6174ZM146.711 111.421C146.622 111.416 146.31 111.402 146.31 111.761C146.31 111.987 146.657 112.098 146.751 112.104C148.143 112.199 149.684 112.562 150.809 113.548C150.873 113.603 150.952 113.631 151.031 113.631C151.124 113.631 151.217 113.592 151.283 113.516C151.406 113.377 151.391 113.165 151.252 113.042C149.962 111.911 148.237 111.514 146.711 111.421ZM104.314 67.6927C104.451 67.818 104.46 68.0303 104.335 68.1674L103.531 69.047C103.819 69.5725 103.984 70.1745 103.984 70.8149C103.984 72.8489 102.329 74.5039 100.295 74.5039C98.2609 74.5039 96.6058 72.8489 96.6058 70.8149C96.6058 68.7806 98.2609 67.1259 100.295 67.1259C101.441 67.1259 102.467 67.6517 103.144 68.4748L103.839 67.7145C103.964 67.5767 104.176 67.5677 104.314 67.6927ZM103.312 70.8149C103.312 70.3748 103.215 69.9575 103.045 69.5798L100.542 72.3187C100.479 72.3886 100.389 72.4283 100.295 72.4283C100.289 72.4283 100.284 72.4283 100.279 72.4279C100.179 72.4232 100.087 72.3745 100.027 72.2949L98.6694 70.4984C98.5575 70.3502 98.5868 70.1396 98.7349 70.0277C98.8831 69.9158 99.0938 69.9451 99.2056 70.0932L100.319 71.5672L102.683 68.9788C102.131 68.2621 101.267 67.7975 100.295 67.7975C98.6308 67.7975 97.2774 69.1511 97.2774 70.8146C97.2774 72.478 98.6308 73.8317 100.295 73.8317C101.959 73.832 103.312 72.4787 103.312 70.8149ZM117.234 49.5696H115.574V48.9276H117.015V48.3292H115.574V47.709H117.212V47.1106H114.906V50.1683H117.234L117.234 49.5696ZM112.077 48.2244L113.557 50.168H114.129V47.1103H113.465V48.9931L112.033 47.1103H111.412V50.168H112.076L112.077 48.2244ZM121.485 47.1103H120.812V50.168H121.485V47.1103ZM118.546 48.9844H120.005V48.3729H118.546V47.7221H120.202V47.1106H117.874V50.1683H118.546V48.9844ZM110.772 49.5696H109.112V48.9276H110.554V48.3292H109.112V47.709H110.75V47.1106H108.444V50.1683H110.772L110.772 49.5696ZM106.703 50.168H105.249V47.1103H106.668C107.018 47.1103 107.293 47.2064 107.468 47.3811C107.607 47.5208 107.677 47.6912 107.677 47.9008V47.9096C107.677 48.2546 107.494 48.4468 107.275 48.5691C107.63 48.7045 107.848 48.9098 107.848 49.3203V49.3291C107.847 49.8885 107.393 50.168 106.703 50.168ZM105.904 48.3463H106.524C106.821 48.3463 107.009 48.2502 107.009 48.0231V48.0144C107.009 47.8135 106.851 47.6999 106.568 47.6999H105.903L105.904 48.3463ZM105.904 49.5784H106.703C107 49.5784 107.179 49.4735 107.179 49.2464V49.2377C107.179 49.0324 107.026 48.9057 106.681 48.9057H105.904L105.904 49.5784ZM72.7493 99.0368L73.1619 101.848C73.1888 102.031 73.0618 102.202 72.8783 102.229L66.4464 103.173C66.4302 103.175 66.4138 103.177 66.3976 103.177C66.3257 103.177 66.2555 103.154 66.1971 103.111C66.1258 103.057 66.0781 102.977 66.0654 102.89L65.6528 100.078C65.6259 99.8949 65.7529 99.7242 65.9364 99.6973L72.3683 98.7535C72.5508 98.7257 72.7228 98.853 72.7493 99.0368ZM72.4483 101.613L72.1335 99.4665L66.3664 100.312L66.6812 102.459L72.4483 101.613ZM104.314 53.5584C104.451 53.6837 104.46 53.896 104.335 54.0331L103.531 54.9127C103.819 55.4382 103.984 56.0402 103.984 56.6806C103.984 58.7146 102.329 60.3697 100.295 60.3697C98.2609 60.3697 96.6058 58.7146 96.6058 56.6806C96.6058 54.6463 98.2609 52.9916 100.295 52.9916C101.441 52.9916 102.467 53.5174 103.144 54.3405L103.839 53.5802C103.964 53.4421 104.176 53.4337 104.314 53.5584ZM103.312 56.6806C103.312 56.2405 103.215 55.8232 103.045 55.4456L100.542 58.1845C100.479 58.2543 100.389 58.294 100.295 58.294C100.289 58.294 100.284 58.294 100.279 58.2937C100.179 58.2889 100.087 58.2402 100.027 58.1606L98.6694 56.3641C98.5575 56.216 98.5868 56.0053 98.7349 55.8934C98.8831 55.7815 99.0938 55.8108 99.2056 55.9589L100.319 57.4329L102.683 54.8445C102.131 54.1279 101.267 53.6632 100.295 53.6632C98.6308 53.6632 97.2774 55.0169 97.2774 56.6803C97.2774 58.3437 98.6308 59.6974 100.295 59.6974C101.959 59.6977 103.312 58.3444 103.312 56.6806ZM104.314 81.4913C104.451 81.6166 104.46 81.829 104.335 81.966L103.531 82.8456C103.819 83.3711 103.984 83.9732 103.984 84.6135C103.984 86.6476 102.329 88.3026 100.295 88.3026C98.2609 88.3026 96.6058 86.6476 96.6058 84.6135C96.6058 82.5792 98.2609 80.9245 100.295 80.9245C101.441 80.9245 102.467 81.4503 103.144 82.2735L103.839 81.5131C103.964 81.375 104.176 81.3663 104.314 81.4913ZM103.312 84.6135C103.312 84.1734 103.215 83.7561 103.045 83.3785L100.542 86.1174C100.479 86.1873 100.389 86.2269 100.295 86.2269C100.289 86.2269 100.284 86.2269 100.279 86.2266C100.179 86.2219 100.087 86.1732 100.027 86.0935L98.6694 84.2971C98.5575 84.1489 98.5868 83.9382 98.7349 83.8263C98.8831 83.7145 99.0938 83.7437 99.2056 83.8919L100.319 85.3658L102.683 82.7774C102.131 82.0608 101.267 81.5961 100.295 81.5961C98.6308 81.5961 97.2774 82.9498 97.2774 84.6132C97.2774 86.2766 98.6308 87.6303 100.295 87.6303C101.959 87.6306 103.312 86.277 103.312 84.6135ZM123.003 50.168H123.676V47.7308H124.607V47.1106H122.073V47.7308H123.004V50.168H123.003ZM76.6067 96.0039C75.9267 95.9757 75.3965 95.3995 75.4251 94.7194C75.4388 94.3902 75.5799 94.0858 75.8229 93.8627C76.0654 93.6393 76.3826 93.524 76.7098 93.5381C77.0391 93.5519 77.3435 93.693 77.5666 93.9356C77.79 94.1782 77.9053 94.4933 77.8911 94.8226C77.8774 95.1519 77.7363 95.4563 77.4937 95.6793C77.2639 95.8907 76.9696 96.0052 76.6594 96.0052C76.6416 96.0052 76.6242 96.0049 76.6067 96.0039ZM76.2442 95.1515C76.346 95.2621 76.4844 95.3266 76.6346 95.3326C76.945 95.3454 77.2068 95.1038 77.2199 94.7944C77.2262 94.6445 77.1735 94.5007 77.072 94.3905C76.9702 94.28 76.8318 94.2155 76.6816 94.2094C76.6736 94.2091 76.6655 94.2091 76.6574 94.2091C76.5163 94.2091 76.3823 94.2612 76.2774 94.3573C76.1669 94.4591 76.1024 94.5975 76.0963 94.7477C76.09 94.8975 76.1424 95.041 76.2442 95.1515ZM131.128 84.3673C131.128 84.8386 130.745 85.222 130.273 85.222H107.041C106.57 85.222 106.186 84.8383 106.186 84.3673C106.186 83.8962 106.57 83.5125 107.041 83.5125H130.273C130.745 83.5122 131.128 83.8959 131.128 84.3673ZM130.456 84.3673C130.456 84.2682 130.372 84.1845 130.273 84.1845H107.041C106.942 84.1845 106.858 84.2685 106.858 84.3673C106.858 84.466 106.942 84.55 107.041 84.55H130.273C130.372 84.55 130.456 84.4664 130.456 84.3673ZM106.186 75.4057C106.186 74.9343 106.57 74.551 107.041 74.551H119.097C119.568 74.551 119.951 74.9347 119.951 75.4057C119.951 75.8768 119.568 76.2604 119.097 76.2604H107.041C106.57 76.2604 106.186 75.8768 106.186 75.4057ZM106.858 75.4057C106.858 75.5048 106.942 75.5885 107.041 75.5885H119.097C119.196 75.5885 119.279 75.5045 119.279 75.4057C119.279 75.3069 119.196 75.2229 119.097 75.2229H107.041C106.942 75.2226 106.858 75.3066 106.858 75.4057ZM107.041 54.0126H130.273C130.745 54.0126 131.128 54.3963 131.128 54.8677C131.128 55.3391 130.745 55.7224 130.273 55.7224H107.041C106.57 55.7224 106.186 55.3387 106.186 54.8677C106.186 54.3963 106.57 54.0126 107.041 54.0126ZM130.273 54.6846H107.041C106.942 54.6846 106.858 54.7686 106.858 54.8677C106.858 54.9668 106.942 55.0505 107.041 55.0505H130.273C130.372 55.0505 130.456 54.9665 130.456 54.8677C130.456 54.7686 130.372 54.6846 130.273 54.6846ZM131.128 82.052C131.128 82.5234 130.745 82.9068 130.273 82.9068H107.041C106.57 82.9068 106.186 82.5231 106.186 82.052C106.186 81.581 106.57 81.1973 107.041 81.1973H130.273C130.745 81.197 131.128 81.5807 131.128 82.052ZM130.456 82.052C130.456 81.9529 130.372 81.8693 130.273 81.8693H107.041C106.942 81.8693 106.858 81.9533 106.858 82.052C106.858 82.1508 106.942 82.2348 107.041 82.2348H130.273C130.372 82.2348 130.456 82.1512 130.456 82.052ZM118.255 86.6825C118.255 87.1539 117.871 87.5372 117.4 87.5372H107.041C106.57 87.5372 106.186 87.1535 106.186 86.6825C106.186 86.2115 106.57 85.8278 107.041 85.8278H117.4C117.871 85.8278 118.255 86.2111 118.255 86.6825ZM117.583 86.6825C117.583 86.5834 117.499 86.4997 117.4 86.4997H107.041C106.942 86.4997 106.858 86.5837 106.858 86.6825C106.858 86.7813 106.942 86.8653 107.041 86.8653H117.4C117.499 86.8653 117.583 86.7816 117.583 86.6825ZM131.128 70.7749C131.128 71.2463 130.745 71.63 130.273 71.63H107.041C106.57 71.63 106.186 71.2463 106.186 70.7749C106.186 70.3035 106.57 69.9202 107.041 69.9202H130.273C130.745 69.9202 131.128 70.3035 131.128 70.7749ZM130.456 70.7749C130.456 70.6758 130.372 70.5921 130.273 70.5921H107.041C106.942 70.5921 106.858 70.6761 106.858 70.7749C106.858 70.874 106.942 70.958 107.041 70.958H130.273C130.372 70.958 130.456 70.8744 130.456 70.7749ZM131.128 73.0902C131.128 73.5615 130.745 73.9449 130.273 73.9449H107.041C106.57 73.9449 106.186 73.5612 106.186 73.0902C106.186 72.6191 106.57 72.2354 107.041 72.2354H130.273C130.745 72.2354 131.128 72.6191 131.128 73.0902ZM130.456 73.0902C130.456 72.991 130.372 72.9074 130.273 72.9074H107.041C106.942 72.9074 106.858 72.9914 106.858 73.0902C106.858 73.1889 106.942 73.2729 107.041 73.2729H130.273C130.372 73.2733 130.456 73.1893 130.456 73.0902ZM131.128 68.4597C131.128 68.9311 130.745 69.3148 130.273 69.3148H107.041C106.57 69.3148 106.186 68.9311 106.186 68.4597C106.186 67.9883 106.57 67.605 107.041 67.605H130.273C130.745 67.605 131.128 67.9883 131.128 68.4597ZM130.456 68.4597C130.456 68.3606 130.372 68.2769 130.273 68.2769H107.041C106.942 68.2769 106.858 68.3609 106.858 68.4597C106.858 68.5588 106.942 68.6428 107.041 68.6428H130.273C130.372 68.6428 130.456 68.5591 130.456 68.4597ZM131.128 57.1829C131.128 57.6543 130.745 58.0376 130.273 58.0376H107.041C106.57 58.0376 106.186 57.6539 106.186 57.1829C106.186 56.7115 106.57 56.3278 107.041 56.3278H130.273C130.745 56.3278 131.128 56.7115 131.128 57.1829ZM130.456 57.1829C130.456 57.0838 130.372 56.9998 130.273 56.9998H107.041C106.942 56.9998 106.858 57.0838 106.858 57.1829C106.858 57.282 106.942 57.3657 107.041 57.3657H130.273C130.372 57.366 130.456 57.282 130.456 57.1829ZM78.8329 99.536C78.8191 99.8653 78.678 100.17 78.4354 100.393C78.206 100.604 77.9113 100.719 77.6015 100.719C77.5837 100.719 77.5663 100.718 77.5484 100.718C77.2192 100.704 76.9148 100.562 76.6917 100.32C76.4683 100.077 76.353 99.7622 76.3668 99.4329C76.395 98.7532 76.9682 98.216 77.6513 98.2513C78.3313 98.2802 78.8611 98.856 78.8329 99.536ZM78.1616 99.5082C78.1747 99.1984 77.9331 98.9356 77.6234 98.9229C77.6153 98.9225 77.6072 98.9225 77.5992 98.9225C77.4581 98.9225 77.3237 98.9749 77.2192 99.071C77.1086 99.1728 77.0441 99.3113 77.0381 99.4615C77.025 99.7712 77.2666 100.034 77.5763 100.047C77.7309 100.054 77.87 100.001 77.9805 99.8989C78.091 99.7968 78.1552 99.6583 78.1616 99.5082ZM106.186 59.4981C106.186 59.0268 106.57 58.6434 107.041 58.6434H127.19C127.661 58.6434 128.045 59.0271 128.045 59.4981C128.045 59.9695 127.661 60.3532 127.19 60.3532H107.041C106.57 60.3532 106.186 59.9695 106.186 59.4981ZM106.858 59.4981C106.858 59.5973 106.942 59.6812 107.041 59.6812H127.19C127.289 59.6812 127.373 59.5973 127.373 59.4981C127.373 59.399 127.289 59.3154 127.19 59.3154H107.041C106.942 59.315 106.858 59.399 106.858 59.4981ZM106.186 61.8134C106.186 61.342 106.57 60.9586 107.041 60.9586H116.143C116.614 60.9586 116.997 61.3423 116.997 61.8134C116.997 62.2847 116.614 62.6684 116.143 62.6684H107.041C106.57 62.6684 106.186 62.2847 106.186 61.8134ZM106.858 61.8134C106.858 61.9125 106.942 61.9965 107.041 61.9965H116.143C116.242 61.9965 116.325 61.9125 116.325 61.8134C116.325 61.7143 116.242 61.6306 116.143 61.6306H107.041C106.942 61.6306 106.858 61.7143 106.858 61.8134Z" fill="#828282"/>
</svg>
