<svg width="200" height="200" viewBox="0 0 200 200" fill="none" xmlns="http://www.w3.org/2000/svg">
<path fill-rule="evenodd" clip-rule="evenodd" d="M177.393 129.48V134.769C177.396 135.131 177.324 135.49 177.184 135.824C177.045 136.159 176.841 136.463 176.584 136.719C176.327 136.973 176.024 137.177 175.691 137.318C175.355 137.456 174.997 137.526 174.634 137.527H170.563C170.201 137.525 169.843 137.453 169.507 137.318C169.175 137.174 168.872 136.971 168.613 136.719L168.594 136.7C168.347 136.447 168.151 136.15 168.014 135.824C167.878 135.489 167.807 135.131 167.804 134.769V132.6C167.805 132.238 167.876 131.879 168.014 131.544C168.154 131.207 168.357 130.9 168.613 130.64L169.774 129.48H177.393ZM49.7658 103.189C49.628 103.189 49.491 103.208 49.3582 103.245L20.755 110.902C19.9289 111.134 19.439 111.983 19.6517 112.814L24.5408 131.049C24.644 131.451 24.9047 131.794 25.2639 132.001L25.2827 132.01C25.5162 132.14 25.7786 132.208 26.0457 132.209H26.0504C26.1868 132.208 26.3222 132.189 26.4536 132.152L55.0571 124.486C55.4539 124.379 55.7922 124.119 55.9979 123.763C56.2035 123.406 56.2616 122.983 56.1598 122.583L51.2703 104.349C51.1638 103.946 50.8997 103.603 50.5379 103.397L50.5285 103.388C50.297 103.259 50.0362 103.19 49.7708 103.189H49.7658ZM24.0654 122.155C24.0171 121.979 24.1212 121.796 24.2979 121.748C24.2996 121.747 24.3016 121.747 24.3033 121.746C24.4817 121.7 24.6642 121.806 24.7122 121.984L25.0069 123.087C25.0717 123.261 24.9833 123.455 24.8093 123.519C24.6353 123.584 24.4421 123.496 24.3772 123.322C24.3695 123.301 24.3638 123.28 24.3604 123.258L24.0654 122.155ZM29.7727 110.246C29.9538 110.199 30.1393 110.307 30.1863 110.488C30.2337 110.669 30.1251 110.855 29.9441 110.902L23.799 112.548C23.6015 112.598 23.417 112.689 23.2571 112.815C23.0935 112.941 22.9544 113.095 22.8465 113.271C22.7424 113.449 22.6775 113.646 22.6563 113.851C22.6261 114.055 22.6392 114.262 22.6943 114.46L24.3779 120.757C24.4263 120.934 24.3225 121.116 24.1457 121.165C24.1441 121.165 24.142 121.166 24.1404 121.166C23.9616 121.213 23.7792 121.106 23.7311 120.928L22.0476 114.631C21.9716 114.349 21.9521 114.055 21.9904 113.766C22.0301 113.475 22.1238 113.194 22.2663 112.938C22.4178 112.685 22.6147 112.463 22.8465 112.281C23.0797 112.106 23.3444 111.977 23.6263 111.901L29.7727 110.246ZM73.5954 113.87C73.2786 113.783 73.0088 113.574 72.8442 113.29C72.6752 113.007 72.6305 112.666 72.7205 112.349L78.4658 90.9087C78.5501 90.5878 78.7591 90.3137 79.0463 90.1474C79.3329 89.978 79.6766 89.9334 79.9971 90.0241L101.438 95.7693C101.757 95.8513 102.029 96.0613 102.19 96.3495C102.359 96.6365 102.403 96.9802 102.313 97.301L96.577 118.74C96.4883 119.059 96.276 119.33 95.9874 119.492C95.7041 119.661 95.3638 119.706 95.0466 119.616L73.6058 113.87L73.5954 113.87ZM92.4808 114.563C92.5087 114.563 92.5362 114.567 92.5631 114.574L94.6078 115.126C94.7826 115.177 94.884 115.359 94.8366 115.535L94.294 117.58C94.2534 117.725 94.122 117.826 93.9715 117.828H93.9695C93.9409 117.829 93.9127 117.825 93.8852 117.818L91.8401 117.266C91.6627 117.221 91.5555 117.04 91.6008 116.863C91.6012 116.861 91.6018 116.859 91.6022 116.857L92.1539 114.812C92.1952 114.666 92.3276 114.565 92.4788 114.563H92.4808ZM88.3996 113.469C88.4275 113.469 88.4554 113.473 88.4823 113.48L90.5176 114.032C90.695 114.077 90.8022 114.258 90.7569 114.435C90.7565 114.437 90.7558 114.439 90.7555 114.441L90.2132 116.486C90.1699 116.631 90.0382 116.731 89.8874 116.735H89.8853C89.8581 116.735 89.8306 116.731 89.8044 116.724L87.7593 116.172C87.5815 116.127 87.4747 115.945 87.52 115.768C87.5204 115.766 87.5211 115.765 87.5214 115.763L88.0637 113.718C88.1083 113.571 88.2437 113.47 88.3973 113.469H88.3996ZM84.3131 112.375C84.3397 112.375 84.3662 112.379 84.3917 112.386L86.4372 112.938C86.6146 112.984 86.7218 113.165 86.6761 113.342C86.6757 113.344 86.6754 113.345 86.6747 113.347L86.123 115.392C86.0821 115.537 85.951 115.638 85.8005 115.641H85.7981C85.7699 115.641 85.7414 115.637 85.7142 115.63L83.6785 115.078C83.5011 115.033 83.3942 114.852 83.4396 114.674C83.4399 114.673 83.4406 114.671 83.4409 114.669L83.9829 112.624C84.0265 112.479 84.1592 112.378 84.3111 112.375H84.3131ZM80.2249 111.281C80.2542 111.281 80.2831 111.285 80.3113 111.292L82.3564 111.844C82.5331 111.894 82.6386 112.075 82.5943 112.253L82.0426 114.3C82.0013 114.445 81.8702 114.545 81.7197 114.548H81.7177C81.6891 114.548 81.6609 114.545 81.6334 114.538L79.5883 113.986C79.4115 113.936 79.306 113.755 79.3507 113.577L79.9024 111.532C79.9397 111.385 80.0714 111.282 80.2226 111.282L80.2249 111.281ZM76.1441 110.187C76.1734 110.187 76.2023 110.191 76.2305 110.199L78.2662 110.75C78.4439 110.796 78.5508 110.977 78.5054 111.154C78.5051 111.156 78.5044 111.157 78.5041 111.159L77.9618 113.204C77.9181 113.349 77.7867 113.449 77.6359 113.453H77.6339C77.6063 113.453 77.5791 113.45 77.5526 113.442L75.5078 112.89C75.3301 112.845 75.2229 112.664 75.2682 112.487C75.2686 112.485 75.2693 112.483 75.2696 112.482L75.8213 110.436C75.8589 110.29 75.9909 110.187 76.1421 110.187H76.1441ZM33.749 109.181C33.9321 109.138 34.1152 109.251 34.1579 109.435C34.1986 109.608 34.0988 109.783 33.9294 109.837L31.6371 110.446C31.4543 110.477 31.2806 110.354 31.2493 110.171C31.2218 110.011 31.3132 109.854 31.466 109.799L33.749 109.181ZM85.2324 98.4225C85.3083 98.4229 85.3836 98.4323 85.4571 98.4508L85.4857 98.4602C85.6466 98.5011 85.7945 98.5831 85.9141 98.6984L92.6965 105.356C92.8171 105.466 92.9027 105.608 92.9437 105.766C92.9894 105.924 92.9928 106.091 92.9532 106.251C92.9071 106.409 92.8221 106.553 92.7059 106.669C92.5866 106.785 92.4388 106.867 92.2778 106.907L83.0794 109.276C83.0001 109.294 82.9188 109.304 82.8372 109.304H82.8335C82.7528 109.305 82.6729 109.295 82.5946 109.276C82.4431 109.236 82.3026 109.161 82.1854 109.057L82.1662 109.038C82.048 108.921 81.9599 108.778 81.9095 108.619C81.8618 108.458 81.8618 108.286 81.9095 108.125L84.3259 99.1073C84.3719 98.949 84.4569 98.8052 84.5732 98.6886C84.7489 98.5179 84.9844 98.4225 85.2293 98.4225H85.2324ZM33.1782 100.021C34.6468 99.5894 36.1902 99.4758 37.7058 99.6878C38.6741 99.8585 39.3857 100.2 39.7012 100.702L27.8526 103.877C27.8741 103.289 28.3206 102.625 29.0698 101.999C30.2841 101.062 31.6801 100.388 33.1688 100.02L33.1782 100.021ZM97.4032 96.195C97.4324 96.195 97.462 96.1987 97.4902 96.2064L99.5259 96.7487C99.7033 96.794 99.8105 96.9745 99.7651 97.1519C99.7648 97.1539 99.7641 97.1556 99.7638 97.1576L99.2215 99.2027C99.1809 99.3498 99.0468 99.4516 98.8943 99.452H98.8923C98.862 99.452 98.8321 99.4483 98.8029 99.4405L96.7675 98.8889C96.5894 98.8432 96.4826 98.6618 96.5283 98.484C96.5286 98.4827 96.529 98.4813 96.5293 98.4796L97.0716 96.4443C97.1122 96.2961 97.2476 96.194 97.4012 96.195H97.4032ZM93.3137 95.101C93.3429 95.101 93.3718 95.1047 93.4 95.1121L95.4451 95.6547C95.6228 95.7001 95.7297 95.8812 95.6843 96.0586C95.684 96.0603 95.6833 96.0619 95.683 96.0636L95.131 98.1087C95.094 98.2545 94.9633 98.357 94.8128 98.358H94.8108C94.7809 98.358 94.7513 98.3543 94.7224 98.3466L92.6864 97.7949C92.5087 97.7492 92.4018 97.5685 92.4475 97.3907C92.4478 97.3891 92.4485 97.3874 92.4488 97.3857L92.9908 95.3503C93.0284 95.2039 93.1604 95.1014 93.3116 95.101H93.3137ZM89.2332 94.0068C89.2621 94.0071 89.291 94.0108 89.3192 94.0179L91.3643 94.5605C91.541 94.6098 91.6465 94.7913 91.6022 94.9693L91.0502 97.0145C91.0129 97.1603 90.8818 97.2627 90.7313 97.2637H90.7293C90.6997 97.2637 90.6702 97.2597 90.6413 97.2523L88.5958 96.7006C88.4181 96.6549 88.3113 96.4742 88.357 96.2965C88.3573 96.2948 88.358 96.2931 88.3583 96.2914L88.91 94.2561C88.9473 94.1096 89.0793 94.0068 89.2305 94.0068H89.2332ZM85.1524 92.9125C85.1813 92.9128 85.2102 92.9168 85.2384 92.9239L87.2741 93.4662C87.4518 93.5119 87.559 93.693 87.5133 93.8707C87.513 93.8724 87.5126 93.8737 87.512 93.8754L86.9697 95.9208C86.9307 96.0667 86.799 96.1685 86.6478 96.1698H86.6458C86.6169 96.1701 86.5884 96.1661 86.5605 96.1584L84.5157 95.6067C84.338 95.5613 84.2311 95.3806 84.2765 95.2028C84.2768 95.2012 84.2775 95.1992 84.2778 95.1975L84.8295 93.1527C84.8705 93.0096 85.0015 92.9115 85.1504 92.9125H85.1524ZM81.0588 91.8152C81.0891 91.8155 81.1193 91.8205 81.1482 91.8303L83.1936 92.3722C83.3714 92.4179 83.4782 92.5994 83.4325 92.7771C83.4322 92.7784 83.4319 92.7801 83.4312 92.7815L82.8795 94.8269C82.8422 94.9727 82.7115 95.0748 82.561 95.0762H82.559C82.5291 95.0762 82.4992 95.0722 82.4703 95.0644L80.4349 94.5127C80.2572 94.4671 80.15 94.286 80.1957 94.1082C80.196 94.1065 80.1964 94.1052 80.1971 94.1035L80.7393 92.0581C80.78 91.916 80.909 91.8169 81.0568 91.8145L81.0588 91.8152ZM128.919 82.3372C129.048 82.3392 129.177 82.3621 129.299 82.4044H129.318C129.506 82.4733 129.678 82.5801 129.822 82.7182C130.07 82.9652 130.211 83.3005 130.212 83.6506V89.471C130.213 89.724 130.14 89.9717 130.003 90.1843C129.866 90.3963 129.671 90.5647 129.442 90.6695C129.381 90.6917 129.33 90.7357 129.299 90.7931L128.709 91.7063H123.211V87.5499C123.209 86.8975 123.296 86.248 123.468 85.6187C123.642 84.9888 123.898 84.3843 124.229 83.8209C124.239 83.8018 124.248 83.7927 124.258 83.7735C124.334 83.6116 124.942 82.3376 125.589 82.3372H128.919ZM141.675 80.7581C138.115 80.7514 135.231 77.8674 135.224 74.3073V62.2188C137.773 63.1317 140.495 63.4535 143.187 63.1596C145.701 62.8404 148.113 61.9631 150.245 60.5917C149.808 62.6462 149.103 68.0504 152.452 72.2629L152.509 72.3301L152.512 72.3338C152.573 72.4101 152.666 72.4544 152.763 72.4541H154.353C154.545 72.4544 154.737 72.4789 154.924 72.527C155.021 72.5528 155.117 72.5854 155.21 72.6251C155.484 72.7356 155.733 72.9006 155.942 73.1102C155.962 73.1344 155.985 73.1569 156.009 73.1774C156.04 73.211 156.07 73.2446 156.098 73.2809L156.132 73.3276C156.138 73.3343 156.143 73.3414 156.149 73.3478C156.625 73.9895 156.731 74.8338 156.427 75.5726C156.316 75.8441 156.151 76.09 155.942 76.2957C155.507 76.7126 154.931 76.9501 154.329 76.9612H152.766C152.583 76.9599 152.434 77.107 152.433 77.2898C152.433 77.2912 152.433 77.2928 152.433 77.2942V84.7233C152.433 84.7774 152.433 84.8312 152.429 84.8846C152.426 84.9004 152.424 84.9162 152.423 84.9323C152.373 85.8542 151.983 86.7251 151.329 87.3772C151.273 87.4347 151.214 87.4905 151.154 87.5452C150.488 88.1335 149.634 88.4655 148.746 88.4813H148.662C147.668 88.4792 146.714 88.0821 146.012 87.3776C145.972 87.3379 145.933 87.2969 145.895 87.2549C145.629 86.9613 145.411 86.628 145.247 86.2672C145.03 85.7817 144.918 85.2555 144.918 84.7237V81.0907C144.915 80.9046 144.762 80.7558 144.576 80.7578L141.675 80.7581ZM143.827 74.2331C144.015 74.2338 144.167 74.3866 144.167 74.5751C144.163 76.3551 142.721 77.7975 140.941 77.8008H140.931C139.148 77.8025 137.7 76.3588 137.697 74.5754C137.695 74.3893 137.844 74.2364 138.03 74.2331H143.825H143.827Z" fill="#FFC5A7"/>
<path fill-rule="evenodd" clip-rule="evenodd" d="M157.931 95.9679L164.105 104.044L164.276 105.128H139.839C139.705 104.006 139.546 102.812 139.382 101.595V101.58C139.367 101.47 139.351 101.36 139.336 101.251C139.316 101.107 139.297 100.963 139.278 100.819C139.04 99.1453 138.802 97.5 138.572 95.9679H157.931ZM95.9493 89.7567C96.035 89.8403 96.1348 89.9079 96.2443 89.9562C96.3565 90.0016 96.4755 90.0275 96.5964 90.0325C96.7177 90.0312 96.8377 90.005 96.9485 89.9562C97.0597 89.9112 97.1602 89.843 97.2432 89.7567L97.2815 89.7281C97.4512 89.5544 97.5496 89.3236 97.5573 89.081C97.5577 88.8388 97.4619 88.6063 97.2909 88.4346C95.6691 86.7567 94.384 84.7839 93.5048 82.6222C91.7546 78.2733 91.7546 73.4164 93.5048 69.0675C94.3837 66.9058 95.6691 64.9329 97.2909 63.255C97.4569 63.0807 97.5489 62.8488 97.5476 62.6079C97.5483 62.368 97.4522 62.1379 97.2815 61.9696C97.2717 61.9602 97.2623 61.941 97.2432 61.9316C97.1575 61.8476 97.0577 61.7794 96.9485 61.73C96.8383 61.68 96.7174 61.6568 96.5964 61.6628C96.4758 61.6605 96.3559 61.6833 96.2443 61.73C96.1335 61.7771 96.0333 61.8456 95.9493 61.9316C94.1559 63.7875 92.7354 65.9704 91.7644 68.3616C88.7987 75.6919 90.44 84.082 95.9493 89.7547V89.7567ZM99.5443 86.1516C99.63 86.235 99.7301 86.3025 99.8393 86.3512C99.9502 86.4003 100.07 86.4261 100.191 86.4275C100.312 86.4302 100.432 86.4073 100.544 86.3603C100.656 86.3119 100.759 86.2444 100.848 86.1607L100.876 86.1321L100.886 86.1227C101.053 85.9517 101.148 85.7233 101.152 85.4844C101.154 85.2462 101.062 85.0167 100.895 84.846V84.8366C99.7519 83.6341 98.8451 82.2271 98.2222 80.6893C96.9794 77.5812 96.9794 74.1138 98.2222 71.0057C98.8354 69.4599 99.7432 68.0481 100.895 66.849V66.8392C101.062 66.6686 101.154 66.4391 101.152 66.2009C101.145 65.9657 101.05 65.7416 100.886 65.5729C100.867 65.5545 100.857 65.5447 100.848 65.5353V65.5259C100.759 65.4416 100.656 65.3734 100.544 65.3243C100.431 65.283 100.312 65.2605 100.191 65.2571C99.9482 65.2618 99.7163 65.3609 99.5443 65.533C98.229 66.9152 97.1894 68.5359 96.4819 70.3079C95.7709 72.0687 95.4098 73.9509 95.4182 75.8498C95.4168 77.7461 95.7787 79.6252 96.4839 81.3858C97.1935 83.1537 98.232 84.7711 99.545 86.1516H99.5443ZM116.79 83.4215V68.6203L110.864 66.4136V85.6285L116.79 83.4215ZM44.0601 71.6169C44.2973 70.7349 44.1777 69.7952 43.7275 69.0009C43.2803 68.2685 38.4103 59.8119 38.4103 59.8025C37.9561 59.0079 37.2021 58.4287 36.3172 58.1952C35.4315 57.9563 34.4871 58.0793 33.6922 58.5375L17.2739 68.0121C15.6306 68.9673 15.0622 71.0672 15.9992 72.7209C16.4464 73.4627 21.3077 81.919 21.3077 81.9284C22.2649 83.5683 24.3587 84.1395 26.0161 83.2128L42.4626 73.7194C43.2528 73.2581 43.8276 72.5018 44.0601 71.6169ZM103.772 68.8588C103.653 68.8686 103.536 68.8974 103.426 68.9438C103.314 68.9912 103.213 69.0627 103.131 69.1535C99.6414 72.9322 99.6414 78.7581 103.131 82.5368C103.217 82.6232 103.316 82.6941 103.426 82.7461C103.538 82.7935 103.657 82.8224 103.778 82.8318C103.901 82.8288 104.024 82.8063 104.14 82.7646C104.253 82.7139 104.356 82.643 104.444 82.5556C104.454 82.5459 104.473 82.5365 104.482 82.5173L104.501 82.4985C104.665 82.3379 104.757 82.1189 104.758 81.8897C104.765 81.6539 104.679 81.4251 104.52 81.2514H104.51C101.692 78.197 101.692 73.4903 104.51 70.4359C104.67 70.2622 104.756 70.0334 104.749 69.7975C104.749 69.5637 104.652 69.3399 104.482 69.1793C104.472 69.1625 104.46 69.1471 104.446 69.134V69.132C104.361 69.0402 104.257 68.9687 104.141 68.9223C104.025 68.881 103.903 68.8581 103.78 68.8551L103.772 68.8588ZM153.318 77.6383C153.568 77.6446 153.816 77.651 154.061 77.6467C153.703 78.4379 153.364 79.125 153.099 79.6736V77.6383H153.318ZM130.108 72.9201C130.304 72.9194 130.498 72.9581 130.679 73.034C130.856 73.1083 131.017 73.2144 131.155 73.3478C131.291 73.4852 131.4 73.6465 131.478 73.8239V73.8333C131.548 74.0124 131.583 74.2029 131.583 74.3947V77.6477C131.583 77.8395 131.547 78.0297 131.478 78.2088C131.405 78.3885 131.295 78.5508 131.155 78.6845C131.017 78.8206 130.856 78.9304 130.679 79.0081C130.498 79.084 130.304 79.1226 130.108 79.1219H127.578V72.9201H130.108ZM33.7587 68.4301L29.3927 75.2407C29.3617 75.2827 29.3228 75.3183 29.2784 75.3456C29.1195 75.4379 28.9159 75.3842 28.8235 75.2253C28.8228 75.2243 28.8222 75.2233 28.8218 75.2222L25.0925 68.7631C25.0666 68.716 25.0505 68.6643 25.0451 68.6109C25.0417 68.4261 25.1842 68.2712 25.3686 68.2591L33.4446 67.9167C33.5175 67.9093 33.591 67.9258 33.6535 67.9641C33.8061 68.0672 33.8521 68.2715 33.7587 68.4301ZM152.928 71.7785C148.999 66.7559 151.092 59.955 151.092 59.9359C151.145 59.7578 151.043 59.571 150.865 59.5186C150.806 59.5011 150.743 59.5005 150.684 59.5163C150.646 59.5263 150.611 59.5425 150.578 59.5646C148.373 61.1384 145.814 62.1439 143.127 62.492L143.113 62.4937C140.487 62.7729 137.832 62.451 135.349 61.553C135.241 61.5153 135.134 61.4767 135.027 61.4377C135.01 61.429 134.99 61.4223 134.971 61.4179C132.33 60.4264 130.994 57.4822 131.985 54.8418C132.079 54.5905 132.193 54.3469 132.326 54.1134C132.814 53.2523 133.546 52.5541 134.428 52.1062C135.738 51.4101 137.118 50.8581 138.547 50.4599C140.11 50.0161 141.727 49.789 143.352 49.7846C152.521 49.7846 154.072 55.121 154.072 55.1398C154.119 55.2816 154.255 55.3746 154.405 55.3683C154.799 55.3763 155.191 55.4274 155.575 55.5205C156.722 55.7939 157.671 56.5953 158.133 57.6798C158.656 58.7926 158.847 60.2195 158.828 61.7787C158.765 63.6454 158.494 65.499 158.019 67.3052C157.81 68.1788 157.515 69.1226 157.182 70.0831C156.906 70.8915 156.602 71.7096 156.288 72.5085L156.269 72.4921C155.901 72.1763 155.462 71.9552 154.99 71.8477C154.782 71.8006 154.571 71.7768 154.358 71.7761H152.93L152.928 71.7785ZM91.3192 14.6708C91.5094 14.6732 91.6992 14.688 91.8877 14.7149C92.4955 14.7878 93.0818 14.9853 93.6096 15.2951C96.3871 17.0069 99.374 18.5578 102.19 20.2414C102.721 20.5545 103.189 20.9641 103.569 21.4492C103.943 21.9404 104.217 22.4995 104.377 23.0955C104.536 23.6939 104.578 24.3175 104.501 24.9316C104.416 25.5364 104.22 26.1203 103.921 26.6532C102.199 29.4307 100.658 32.4082 98.9651 35.2237C98.6597 35.7602 98.2481 36.2289 97.7556 36.6012C96.7627 37.3578 95.5122 37.6928 94.2741 37.5335C93.6637 37.4542 93.075 37.2536 92.5428 36.9439C89.7367 35.2599 86.7405 33.7286 83.9818 32.007C83.4489 31.6929 82.9812 31.2793 82.6043 30.7891C82.2283 30.2992 81.9538 29.7398 81.7959 29.1428C81.4697 27.9393 81.6377 26.6552 82.2619 25.576C83.0011 24.3443 83.718 23.0921 84.43 21.8379L85.0401 20.7628C85.752 19.5083 86.4673 18.2567 87.2082 17.0247C87.5136 16.4875 87.9252 16.0184 88.4177 15.6455C88.9072 15.2669 89.4666 14.989 90.064 14.8274C90.4554 14.7219 90.8589 14.6688 91.2641 14.6688L91.3192 14.6708ZM95.7689 21.4778C98.3271 22.9709 99.1905 26.255 97.6974 28.8132C96.2161 31.3512 92.9682 32.2247 90.4138 30.7716L90.404 30.7619C87.8499 29.2621 86.9955 25.9758 88.4953 23.4217C89.9776 20.8972 93.2108 20.0284 95.7592 21.469L95.7689 21.4778ZM102.275 22.5529C102.598 22.7457 102.833 23.0562 102.932 23.4187C103.13 24.1743 102.685 24.9494 101.933 25.1594C101.567 25.2548 101.177 25.2038 100.849 25.0166L100.829 24.9975C100.167 24.5997 99.9471 23.7439 100.335 23.076L100.344 23.0478C100.746 22.3842 101.605 22.1642 102.275 22.5529Z" fill="#E46D2F"/>
<path fill-rule="evenodd" clip-rule="evenodd" d="M152.434 179.809V181.348L148.372 184.089C148.097 184.272 147.871 184.521 147.716 184.812C147.559 185.105 147.478 185.432 147.478 185.764C147.478 185.952 147.524 186.138 147.61 186.306H134.81C134.666 186.305 134.529 186.246 134.429 186.144C134.328 186.043 134.27 185.906 134.267 185.764C134.271 185.316 134.491 184.898 134.857 184.641L142.039 179.809H152.434ZM166.322 179.809V184.736C166.323 185.152 166.154 185.551 165.855 185.84L165.846 185.859C165.554 186.145 165.161 186.306 164.752 186.306H148.695C148.551 186.305 148.415 186.246 148.314 186.144C148.21 186.045 148.151 185.907 148.153 185.764C148.152 185.541 148.207 185.321 148.314 185.125C148.414 184.93 148.561 184.763 148.742 184.64L155.925 179.808L166.322 179.809ZM66.1856 171.752L88.882 158.644C89.2328 158.439 89.4891 158.105 89.5953 157.712C89.6957 157.324 89.645 156.913 89.4528 156.561L76.3446 133.865C76.3446 133.855 76.3356 133.846 76.3258 133.827C75.8991 133.116 74.9859 132.872 74.2616 133.275L74.2044 133.304L51.5464 146.393C51.1906 146.594 50.9302 146.93 50.8237 147.325C50.7236 147.712 50.7743 148.124 50.9661 148.476L64.0838 171.181C64.2853 171.537 64.621 171.797 65.0161 171.904C65.4109 172.006 65.8298 171.951 66.1856 171.752ZM52.9924 147.658L74.6137 135.177C74.7743 135.088 74.9765 135.143 75.0703 135.301L85.0488 152.594C85.1416 152.751 85.0895 152.954 84.9326 153.047C84.9302 153.048 84.9275 153.05 84.9252 153.051L63.3137 165.531C63.1561 165.624 62.9529 165.571 62.8601 165.413C62.8591 165.411 62.8578 165.409 62.8568 165.407L52.8691 148.115C52.7848 147.953 52.8386 147.754 52.9924 147.658ZM70.1142 146.107L69.9053 154.402C69.9049 154.451 69.8952 154.499 69.8767 154.544C69.8051 154.714 69.6106 154.795 69.4399 154.725L65.464 153.023L64.4745 161.203L80.674 151.852L70.1142 146.107ZM61.5532 147.315C60.8476 147.127 60.0967 147.223 59.4607 147.581L59.4419 147.591C58.8012 147.959 58.3352 148.569 58.1477 149.284C57.9501 149.989 58.0462 150.744 58.4141 151.377L58.4235 151.396C59.1926 152.728 60.8953 153.184 62.2271 152.415C62.8645 152.047 63.3305 151.441 63.5223 150.73C63.7145 150.022 63.6188 149.266 63.2559 148.628L63.2465 148.609C62.8803 147.966 62.2695 147.5 61.5532 147.315ZM27.6193 104.633L17.2457 107.412C16.3157 107.659 15.5241 108.269 15.048 109.106C14.5622 109.933 14.4318 110.921 14.6865 111.845L20.7173 134.379C21.2327 136.309 23.2147 137.455 25.1442 136.94C25.1462 136.939 25.1482 136.939 25.1502 136.938L58.5667 127.978C60.4958 127.463 61.6422 125.481 61.1271 123.552C61.1265 123.549 61.1261 123.547 61.1255 123.545L55.0943 101.02C54.842 100.093 54.2335 99.3036 53.4017 98.8228C52.5735 98.3413 51.587 98.2113 50.6621 98.4613L35.8589 102.426L27.6707 104.624C27.6539 104.628 27.6365 104.631 27.6193 104.633ZM49.7707 102.52C50.1497 102.521 50.5223 102.62 50.8519 102.807L50.8805 102.817C51.3935 103.114 51.7664 103.604 51.917 104.177C53.5246 110.17 55.3796 116.391 56.7967 122.403C57.1186 123.587 56.4204 124.809 55.2368 125.133C45.953 127.922 36.041 130.279 26.6242 132.8C26.438 132.851 26.2462 132.878 26.053 132.879H26.0463C25.6629 132.877 25.2863 132.778 24.9517 132.59L24.9328 132.571C24.4198 132.279 24.0459 131.792 23.8957 131.221C22.288 125.218 20.4351 119.007 19.0065 112.995C18.8577 112.423 18.9397 111.815 19.2347 111.302C19.5266 110.792 20.0091 110.419 20.5759 110.265C29.86 107.478 39.7717 105.119 49.1794 102.598C49.3703 102.546 49.5675 102.519 49.7654 102.52H49.7707Z" fill="#3F3F3F"/>
<path d="M185.535 186.972H182.568C182.385 186.973 182.236 186.826 182.235 186.643C182.235 186.642 182.235 186.64 182.235 186.639C182.23 186.46 182.372 186.311 182.551 186.306C182.557 186.306 182.562 186.306 182.568 186.306H185.535C185.715 186.302 185.864 186.444 185.868 186.623C185.868 186.629 185.868 186.634 185.868 186.639C185.869 186.822 185.722 186.971 185.539 186.972C185.538 186.972 185.536 186.972 185.535 186.972ZM172.6 186.972H27.5183C27.3321 186.974 27.1793 186.825 27.1759 186.639C27.1759 186.455 27.3254 186.306 27.5095 186.306C27.5126 186.306 27.5156 186.306 27.5183 186.306H133.725C133.642 186.138 133.598 185.952 133.599 185.764C133.588 185.091 133.922 184.46 134.483 184.09L141.548 179.322L136.358 159.062C135.765 156.763 135.461 154.398 135.454 152.023C135.452 149.647 135.743 147.28 136.32 144.975L139.889 130.745C139.071 130.577 138.62 130.461 138.612 130.459C138.437 130.42 138.326 130.246 138.365 130.07C138.365 130.07 138.365 130.069 138.365 130.069C138.441 129.575 140.163 118.236 139.849 111.901C139.811 111.121 139.725 110.151 139.621 109.066C139.518 108.029 139.378 106.844 139.229 105.566C139.22 105.541 139.215 105.515 139.212 105.49C139.1 104.569 138.976 103.627 138.852 102.681C138.691 102.965 138.526 103.248 138.365 103.53C137.737 104.624 136.777 106.327 135.912 107.858C135.37 108.819 134.837 109.751 134.428 110.493L133.601 111.948L133.582 111.967C133.138 112.653 132.55 113.234 131.86 113.67C130.424 114.581 128.659 114.811 127.037 114.298C126.211 114.043 125.452 113.604 124.82 113.014L124.391 112.614C123.213 111.506 122.542 109.961 122.537 108.343V87.5496C122.536 86.836 122.632 86.1258 122.822 85.438C123.012 84.7553 123.29 84.1001 123.649 83.4893C123.735 83.3082 124.373 82.0053 125.257 81.7197V80.6473L117.256 83.9637C117.238 83.9711 117.218 83.9768 117.198 83.9809L110.864 86.3364C110.864 86.8142 110.673 87.2721 110.332 87.6071C109.621 88.319 108.468 88.3197 107.756 87.6091C107.414 87.2681 107.222 86.8054 107.221 86.3226V65.7194C107.222 65.2376 107.413 64.776 107.754 64.4353V64.4256C108.467 63.7153 109.619 63.7153 110.332 64.4256C110.669 64.7626 110.86 65.2185 110.864 65.6952L117.201 68.0609C117.226 68.0686 117.251 68.0773 117.276 68.0877L127.3 72.2445H130.108C130.676 72.2525 131.221 72.477 131.63 72.8724C131.829 73.0753 131.987 73.3149 132.096 73.578C132.202 73.8377 132.257 74.1155 132.258 74.3961V77.649C132.256 77.9296 132.201 78.2071 132.096 78.4671C131.984 78.7252 131.827 78.9607 131.63 79.1613C131.431 79.3608 131.195 79.5194 130.935 79.6269C130.672 79.7324 130.391 79.7872 130.108 79.7885H129.755V81.8622C130.438 82.1978 130.872 82.8899 130.877 83.6506V89.4711C130.879 90.2109 130.468 90.8899 129.812 91.2309L129.508 91.7064H130.012C130.17 91.7047 130.306 91.8172 130.335 91.9728L131.182 95.9867L136.551 86.8841C136.59 86.8078 136.659 86.7507 136.741 86.7265C136.755 86.7218 136.77 86.7178 136.785 86.7147L144.243 84.6965V81.4241H141.675C137.747 81.4261 134.561 78.2437 134.559 74.3158C134.559 74.3134 134.559 74.3111 134.559 74.3087V61.9749C133.597 61.5741 132.759 60.9223 132.134 60.0877C130.23 57.5242 130.764 53.9027 133.327 51.9987C133.575 51.8146 133.838 51.6503 134.112 51.5079C135.47 50.7966 136.898 50.2295 138.374 49.8149C139.993 49.36 141.667 49.1264 143.349 49.1204C151.881 49.1204 154.201 53.639 154.63 54.7138C155.003 54.7299 155.373 54.784 155.734 54.8754C157.074 55.1956 158.185 56.1296 158.73 57.3952C159.301 58.6047 159.52 60.1348 159.491 61.7898C159.432 63.7072 159.158 65.6119 158.673 67.4679C158.444 68.3713 158.15 69.3228 157.817 70.3025C157.503 71.2167 157.147 72.148 156.781 73.0797C157.102 73.5615 157.274 74.1273 157.275 74.7065C157.275 75.0892 157.198 75.4678 157.046 75.8196C156.903 76.1754 156.69 76.499 156.418 76.7708C155.992 77.2038 155.437 77.4871 154.836 77.5788C153.959 79.4788 153.265 80.8569 153.099 81.1738V84.6679L159.948 85.6937C160.187 85.7266 160.421 85.7938 160.642 85.8933C160.842 85.9863 161.031 86.1016 161.206 86.237C161.315 86.2793 161.422 86.3263 161.527 86.3784C162.109 86.6721 162.619 87.091 163.02 87.6057L175.376 103.776C176.246 104.906 176.921 106.173 177.374 107.524C177.833 108.879 178.068 110.299 178.069 111.73V134.769C178.063 135.678 177.701 136.549 177.061 137.194C176.418 137.837 175.544 138.197 174.635 138.193H170.563C170.113 138.193 169.667 138.106 169.251 137.936C168.837 137.76 168.459 137.509 168.137 137.194L168.119 137.175C167.813 136.858 167.567 136.487 167.396 136.081C167.226 135.664 167.139 135.219 167.139 134.769V132.6C167.137 132.15 167.224 131.703 167.396 131.287C167.566 130.87 167.818 130.492 168.137 130.174L169.298 129.004V115.049C169.302 113.694 169.08 112.347 168.642 111.064C168.208 109.783 167.569 108.582 166.749 107.507L164.961 105.166L164.998 105.404C165.001 105.419 165.002 105.433 165.002 105.448C165.079 105.932 165.834 110.911 166.197 113.556C166.968 119.279 166.968 125.079 166.197 130.802C166.175 130.941 166.069 131.051 165.931 131.078C165.5 131.164 165.071 131.245 164.642 131.319L161.66 145.955C161.258 147.945 161.073 149.974 161.108 152.004C161.138 154.037 161.393 156.06 161.869 158.036L166.974 179.377C166.982 179.406 166.987 179.436 166.987 179.467V184.736C166.99 185.325 166.757 185.89 166.34 186.306H172.599C172.783 186.301 172.936 186.446 172.941 186.63C172.941 186.633 172.941 186.636 172.941 186.639C172.938 186.825 172.785 186.974 172.599 186.972H172.6ZM25.3794 186.972H19.9181C19.735 186.97 19.5868 186.822 19.5851 186.639C19.5841 186.456 19.7313 186.307 19.9141 186.306C19.9154 186.306 19.9168 186.306 19.9181 186.306H25.3781C25.5622 186.301 25.7154 186.446 25.7205 186.63C25.7205 186.633 25.7205 186.636 25.7205 186.639C25.7171 186.825 25.5642 186.974 25.3781 186.972H25.3794ZM180.315 186.972H174.853C174.67 186.97 174.522 186.822 174.52 186.639C174.519 186.456 174.666 186.307 174.849 186.306C174.851 186.306 174.852 186.306 174.853 186.306H180.313C180.496 186.305 180.645 186.452 180.646 186.635C180.646 186.636 180.646 186.638 180.646 186.639C180.645 186.822 180.496 186.97 180.313 186.972H180.315ZM17.6724 186.972H14.696C14.5129 186.97 14.3647 186.822 14.363 186.639C14.3617 186.457 14.5085 186.308 14.6913 186.306C14.693 186.306 14.6943 186.306 14.696 186.306H17.6724C17.8552 186.305 18.0044 186.452 18.0054 186.635C18.0054 186.636 18.0054 186.638 18.0054 186.639C18.0037 186.822 17.8555 186.97 17.6724 186.972ZM152.433 181.348V179.809H142.036L134.854 184.641C134.488 184.898 134.269 185.316 134.265 185.764C134.268 185.906 134.326 186.043 134.426 186.144C134.527 186.246 134.664 186.305 134.807 186.306H147.608C147.521 186.138 147.476 185.952 147.475 185.764C147.475 185.432 147.557 185.105 147.713 184.812C147.869 184.521 148.094 184.272 148.37 184.089L152.433 181.348ZM166.321 179.809H155.925L148.742 184.641C148.561 184.764 148.414 184.931 148.314 185.126C148.207 185.322 148.152 185.541 148.152 185.765C148.151 185.908 148.21 186.046 148.314 186.145C148.414 186.247 148.551 186.305 148.694 186.307H164.751C165.16 186.307 165.553 186.146 165.845 185.86L165.854 185.841C166.153 185.552 166.322 185.153 166.321 184.737L166.321 179.809ZM155.436 179.321L150.302 158.548C149.987 157.272 149.761 155.975 149.627 154.667C149.484 153.363 149.437 152.05 149.484 150.738L149.836 140.037L148.305 145.954C147.138 150.439 147.112 155.144 148.228 159.642L153.086 179.374C153.089 179.385 153.092 179.396 153.093 179.407C153.1 179.438 153.101 179.469 153.099 179.501V180.892L155.436 179.321ZM146.789 131.79C144.135 131.521 141.976 131.158 140.542 130.878L136.965 145.137C135.824 149.655 135.837 154.389 137.004 158.901L142.187 179.133H152.337L147.571 159.805C147.012 157.51 146.734 155.156 146.744 152.794C146.758 150.432 147.065 148.08 147.657 145.793L149.942 136.947C149.979 136.794 150.117 136.687 150.275 136.69C150.458 136.694 150.602 136.845 150.598 137.028C150.598 137.03 150.598 137.031 150.598 137.033L150.149 150.759C150.111 152.041 150.159 153.325 150.292 154.602C150.425 155.877 150.644 157.142 150.948 158.387L156.075 179.133H166.225L161.221 158.197C160.239 154.138 160.168 149.912 161.012 145.822L163.94 131.436C158.262 132.288 152.498 132.407 146.789 131.79ZM89.1855 159.243L66.5183 172.323C66.012 172.617 65.4106 172.699 64.8442 172.552C64.2807 172.397 63.7996 172.028 63.5029 171.524L50.3857 148.8C50.1028 148.3 50.0275 147.709 50.1763 147.154C50.3289 146.588 50.6981 146.107 51.2038 145.812C58.8325 141.713 66.3094 136.909 73.9092 132.704C74.9628 132.099 76.3074 132.461 76.9152 133.513L90.0137 156.191C90.0231 156.21 90.0328 156.22 90.0328 156.239C90.6184 157.279 90.2683 158.596 89.2433 159.207C89.2241 159.215 89.2053 159.234 89.1861 159.243H89.1855ZM66.1854 171.752L88.8817 158.644C89.2325 158.439 89.4889 158.104 89.595 157.712C89.6955 157.324 89.6447 156.913 89.4526 156.561L76.3444 133.865C76.3444 133.855 76.3353 133.846 76.3256 133.827C75.8989 133.116 74.9857 132.872 74.2613 133.275L74.2042 133.304L51.5461 146.393C51.1903 146.594 50.9299 146.93 50.8234 147.325C50.7233 147.712 50.774 148.124 50.9659 148.476L64.0835 171.181C64.2851 171.537 64.6207 171.797 65.0158 171.904C65.4106 172.006 65.8296 171.951 66.1854 171.752ZM52.9922 147.658L74.6134 135.177C74.774 135.088 74.9763 135.143 75.07 135.301L85.0486 152.594C85.1413 152.751 85.0892 152.954 84.9323 153.047C84.93 153.048 84.9273 153.05 84.9249 153.051L63.3134 165.531C63.1559 165.624 62.9526 165.571 62.8599 165.413C62.8589 165.411 62.8575 165.409 62.8565 165.407L52.8689 148.114C52.7845 147.953 52.8383 147.754 52.9922 147.658ZM74.6517 135.929L53.6194 148.067L63.2647 164.789L84.3057 152.642L74.6517 135.929ZM69.2485 153.917L69.4575 145.546C69.4585 145.366 69.6046 145.221 69.7847 145.222C69.7898 145.222 69.7951 145.222 69.8002 145.222C69.8566 145.22 69.9127 145.233 69.9621 145.261L81.5097 151.558C81.6727 151.653 81.7267 151.863 81.631 152.026C81.6014 152.076 81.5598 152.118 81.5097 152.147L64.226 162.126C64.0654 162.215 63.8628 162.16 63.7694 162.002C63.7341 161.938 63.7206 161.865 63.7314 161.793L64.8438 152.501C64.8697 152.32 65.0316 152.191 65.2134 152.206C65.253 152.213 65.2917 152.226 65.3273 152.244L69.2485 153.917ZM70.114 146.107L69.905 154.402C69.9047 154.451 69.8949 154.499 69.8764 154.544C69.8049 154.714 69.6103 154.795 69.4397 154.725L65.4637 153.022L64.4742 161.203L80.6738 151.852L70.114 146.107ZM59.1275 147.001C60.7785 146.066 62.8743 146.634 63.8265 148.276L63.8362 148.295C64.7844 149.95 64.2115 152.06 62.5565 153.008C60.9014 153.956 58.7912 153.384 57.843 151.729L57.834 151.71C56.8986 150.059 57.4671 147.963 59.1083 147.011L59.1275 147.001ZM61.5529 147.315C60.8474 147.127 60.0964 147.223 59.4604 147.581L59.4416 147.591C58.8009 147.959 58.3349 148.569 58.1474 149.284C57.9499 149.989 58.046 150.744 58.4139 151.377L58.4233 151.396C59.1923 152.727 60.8951 153.184 62.2269 152.415C62.8642 152.046 63.3302 151.441 63.5221 150.73C63.7143 150.021 63.6185 149.266 63.2556 148.628L63.2462 148.609C62.88 147.966 62.2692 147.5 61.5529 147.315ZM36.4476 98.904L42.4428 88.5304C42.5305 88.3714 42.7307 88.3136 42.8896 88.4013C42.893 88.4034 42.8964 88.405 42.8997 88.4071C43.0576 88.5008 43.1124 88.703 43.0234 88.8636L37.1988 98.943C37.4139 98.9625 37.6215 98.989 37.8201 99.0236C39.0632 99.2437 39.9922 99.7578 40.3695 100.525L50.4824 97.8158C51.5834 97.5188 52.7577 97.6727 53.7451 98.2435C54.7258 98.8184 55.4428 99.7537 55.7428 100.85L61.7716 123.371C62.3851 125.657 61.0294 128.007 58.7438 128.621C58.7418 128.621 58.7394 128.622 58.7374 128.622L25.321 137.583C23.0346 138.196 20.6841 136.839 20.0713 134.553C20.071 134.552 20.0706 134.55 20.0703 134.549L14.0395 112.024C13.423 109.736 14.7776 107.382 17.065 106.766C17.068 106.765 17.0707 106.764 17.0737 106.764L27.183 104.055C27.1222 103.202 27.6664 102.297 28.6408 101.484C28.7963 101.353 28.9633 101.224 29.1414 101.098L19.062 95.2822C18.893 95.2052 18.8184 95.0063 18.8954 94.8373C18.9723 94.6684 19.1712 94.5938 19.3402 94.6707C19.3594 94.6794 19.3778 94.6898 19.395 94.7023L29.7724 100.69C30.7796 100.107 31.8615 99.6643 32.988 99.3727H32.9971C34.1206 99.0606 35.2814 98.903 36.4476 98.904ZM177.393 129.48H169.774L168.613 130.64C168.357 130.9 168.154 131.207 168.014 131.544C167.876 131.879 167.805 132.238 167.804 132.6V134.769C167.807 135.131 167.878 135.489 168.014 135.824C168.151 136.15 168.347 136.447 168.594 136.7L168.613 136.719C168.872 136.971 169.175 137.174 169.507 137.318C169.843 137.454 170.201 137.525 170.563 137.527H174.634C174.996 137.526 175.355 137.456 175.691 137.318C176.024 137.177 176.327 136.973 176.584 136.719C176.841 136.463 177.045 136.159 177.184 135.824C177.324 135.49 177.396 135.131 177.393 134.769V129.48ZM27.6194 104.632L17.2454 107.412C16.3154 107.659 15.5238 108.269 15.0478 109.106C14.5619 109.933 14.4316 110.921 14.6862 111.845L20.7171 134.379C21.2325 136.309 23.2144 137.455 25.1439 136.94C25.1459 136.939 25.1479 136.939 25.15 136.938L58.5664 127.978C60.4956 127.463 61.6419 125.481 61.1269 123.552C61.1262 123.549 61.1259 123.547 61.1252 123.545L55.0941 101.02C54.8417 100.093 54.2333 99.3035 53.4014 98.8227C52.5732 98.3413 51.5868 98.2113 50.6618 98.4612L35.8586 102.426L27.6705 104.624C27.6537 104.628 27.6365 104.631 27.6194 104.632ZM49.7708 102.519C50.1498 102.521 50.5224 102.62 50.852 102.807L50.8805 102.817C51.3936 103.114 51.7665 103.604 51.917 104.177C53.5247 110.17 55.3796 116.391 56.7968 122.403C57.1187 123.587 56.4205 124.809 55.2368 125.133C45.9531 127.921 36.041 130.279 26.6242 132.8C26.4381 132.851 26.2463 132.878 26.0531 132.879H26.0464C25.663 132.877 25.2864 132.778 24.9517 132.59L24.9329 132.571C24.4199 132.278 24.0459 131.792 23.8958 131.22C22.2881 125.218 20.4352 119.007 19.0066 112.995C18.8578 112.422 18.9397 111.815 19.2347 111.302C19.5267 110.792 20.0092 110.419 20.5759 110.265C29.86 107.478 39.7718 105.119 49.1795 102.598C49.3703 102.546 49.5675 102.519 49.7654 102.519H49.7708ZM49.7658 103.189C49.628 103.189 49.4909 103.208 49.3582 103.245L20.755 110.902C19.9289 111.134 19.439 111.983 19.6517 112.814L24.5408 131.049C24.644 131.451 24.9047 131.794 25.2639 132.001L25.2827 132.01C25.5162 132.14 25.7786 132.208 26.0457 132.209H26.0504C26.1868 132.208 26.3222 132.189 26.4536 132.152L55.0571 124.486C55.4539 124.379 55.7922 124.119 55.9978 123.763C56.2035 123.406 56.2616 122.983 56.1598 122.583L51.2703 104.349C51.1638 103.946 50.8997 103.603 50.5378 103.397L50.5284 103.388C50.297 103.259 50.0362 103.19 49.7708 103.189H49.7658ZM164.381 105.794H139.924C140.067 106.917 140.191 108.001 140.286 109.009C140.4 110.103 140.476 111.074 140.514 111.873C140.809 117.789 139.344 127.996 139.069 129.879C141.076 130.345 153.062 132.903 165.57 130.459C166.298 124.876 166.286 119.222 165.532 113.642C165.217 111.34 164.552 106.955 164.381 105.794ZM159.652 86.6079H159.643C159.151 86.6099 158.663 86.7067 158.207 86.8935C157.295 87.2728 156.57 87.9975 156.191 88.9093C156.006 89.3656 155.909 89.8534 155.906 90.346V90.8977C155.907 91.3186 155.978 91.7363 156.115 92.1341V92.1529C156.25 92.5473 156.45 92.9169 156.705 93.2468L158.37 95.4253L158.376 95.4351L167.282 107.097C169.024 109.383 169.969 112.175 169.974 115.049V128.804H177.393V111.73C177.404 109.002 176.507 106.348 174.843 104.187L162.487 88.016C162.154 87.5779 161.724 87.2227 161.231 86.9791C161.146 86.9381 161.06 86.9005 160.973 86.8659C160.95 86.8615 160.927 86.8548 160.906 86.8458C160.797 86.8044 160.684 86.7655 160.57 86.7329C160.272 86.6516 159.964 86.6096 159.656 86.6082H159.649L159.652 86.6079ZM24.0654 122.155C24.017 121.979 24.1212 121.796 24.2979 121.748C24.2996 121.747 24.3016 121.747 24.3033 121.746C24.4817 121.7 24.6641 121.806 24.7122 121.984L25.0068 123.087C25.0717 123.261 24.9833 123.455 24.8093 123.519C24.6352 123.584 24.4421 123.496 24.3772 123.322C24.3695 123.301 24.3638 123.28 24.3604 123.258L24.0654 122.155ZM29.7727 110.246C29.9538 110.199 30.1392 110.307 30.1863 110.488C30.2337 110.669 30.1251 110.855 29.944 110.902L23.799 112.548C23.6014 112.598 23.417 112.689 23.2571 112.815C23.0934 112.941 22.9543 113.095 22.8465 113.271C22.7423 113.449 22.6775 113.646 22.6563 113.851C22.6261 114.055 22.6392 114.262 22.6943 114.46L24.3779 120.757C24.4263 120.934 24.3224 121.116 24.1457 121.165C24.144 121.165 24.142 121.166 24.1403 121.166C23.9616 121.213 23.7792 121.106 23.7311 120.928L22.0475 114.631C21.9716 114.349 21.9521 114.055 21.9904 113.766C22.0301 113.475 22.1238 113.194 22.2663 112.938C22.4178 112.685 22.6147 112.463 22.8465 112.281C23.0797 112.106 23.3444 111.977 23.6263 111.901L29.7727 110.246ZM79.6716 89.3071C79.8395 89.3071 80.0065 89.3296 80.1685 89.3743L101.628 95.1196C102.112 95.256 102.522 95.5772 102.77 96.0139C103.027 96.4467 103.099 96.9641 102.97 97.4503L97.2248 118.91C97.086 119.399 96.7618 119.816 96.321 120.07C95.8819 120.329 95.3564 120.398 94.8655 120.261L73.4059 114.515C72.9204 114.383 72.5088 114.06 72.2636 113.621C72.0116 113.19 71.9397 112.677 72.0637 112.194C72.064 112.187 72.0653 112.18 72.0677 112.173V112.168C72.07 112.161 72.0714 112.154 72.0717 112.147L77.817 90.725C78.0451 89.8911 78.8004 89.3108 79.6648 89.3055L79.6716 89.3071ZM73.6048 113.87L95.0456 119.615C95.3628 119.705 95.7031 119.661 95.9863 119.491C96.2749 119.33 96.4873 119.059 96.576 118.74L102.313 97.2994C102.403 96.9785 102.359 96.6348 102.19 96.3479C102.029 96.0596 101.757 95.8496 101.438 95.7677L79.9971 90.0224C79.6766 89.9317 79.3329 89.9764 79.0463 90.1457C78.759 90.3121 78.5501 90.5862 78.4657 90.9071L72.7205 112.348C72.6305 112.665 72.6751 113.005 72.8441 113.288C73.0088 113.573 73.2786 113.781 73.5954 113.869L73.6048 113.87ZM92.4807 114.563C92.5086 114.563 92.5362 114.567 92.5631 114.574L94.6078 115.126C94.7825 115.177 94.884 115.359 94.8366 115.535L94.294 117.58C94.2534 117.725 94.122 117.826 93.9715 117.828H93.9695C93.9409 117.829 93.9127 117.825 93.8851 117.818L91.84 117.266C91.6626 117.221 91.5555 117.04 91.6008 116.863C91.6012 116.861 91.6018 116.859 91.6022 116.857L92.1538 114.812C92.1952 114.666 92.3275 114.565 92.4787 114.563H92.4807ZM92.7159 115.316L92.3359 116.705L93.7343 117.074L94.1039 115.686L92.7159 115.316ZM88.4006 113.468C88.4285 113.468 88.4564 113.472 88.4833 113.479L90.5186 114.03C90.696 114.076 90.8032 114.256 90.7579 114.434C90.7575 114.436 90.7568 114.437 90.7565 114.439L90.2142 116.485C90.1709 116.63 90.0392 116.73 89.8883 116.733H89.8863C89.8591 116.733 89.8316 116.73 89.8054 116.722L87.7602 116.171C87.5825 116.125 87.4757 115.944 87.521 115.767C87.5214 115.765 87.522 115.763 87.5224 115.762L88.0646 113.717C88.1093 113.569 88.2447 113.469 88.3983 113.468H88.4006ZM88.6257 114.221L88.2561 115.61L89.6545 115.979L90.0241 114.591L88.6257 114.221ZM84.3141 112.373C84.3407 112.373 84.3672 112.376 84.3927 112.383L86.4382 112.935C86.6156 112.981 86.7227 113.162 86.6771 113.339C86.6767 113.341 86.6764 113.342 86.6757 113.344L86.124 115.389C86.083 115.534 85.952 115.635 85.8015 115.638H85.7991C85.7709 115.638 85.7424 115.634 85.7151 115.627L83.6795 115.075C83.5021 115.03 83.3952 114.849 83.4406 114.672C83.4409 114.67 83.4416 114.668 83.4419 114.666L83.9838 112.621C84.0275 112.476 84.1602 112.375 84.3121 112.373H84.3141ZM84.5453 113.125L84.1757 114.514L85.5646 114.884L85.9453 113.495L84.5453 113.125ZM80.2259 111.277C80.2552 111.278 80.284 111.282 80.3123 111.289L82.3574 111.841C82.5341 111.89 82.6396 112.071 82.5952 112.249L82.0426 114.3C82.0012 114.445 81.8702 114.546 81.7197 114.549H81.7177C81.6891 114.549 81.6609 114.545 81.6333 114.538L79.5882 113.986C79.4115 113.936 79.306 113.755 79.3507 113.577L79.9024 111.532C79.9397 111.385 80.0714 111.282 80.2226 111.282L80.2259 111.277ZM129.738 92.3689H123.211V108.34C123.215 109.771 123.807 111.136 124.848 112.117L125.275 112.516C125.835 113.039 126.504 113.429 127.235 113.658C128.669 114.109 130.228 113.903 131.497 113.097C132.102 112.714 132.62 112.208 133.018 111.613L133.565 110.641L130.72 97.0306C130.71 97.0074 130.703 96.9829 130.698 96.958L129.738 92.3689ZM80.4635 112.034L80.0939 113.423L81.4825 113.794L81.8521 112.405L80.4635 112.034ZM76.1441 110.186C76.1734 110.187 76.2022 110.191 76.2305 110.198L78.2662 110.75C78.4439 110.795 78.5507 110.976 78.5054 111.153C78.505 111.155 78.5044 111.157 78.504 111.159L77.9618 113.204C77.9181 113.348 77.7867 113.449 77.6359 113.452H77.6339C77.6063 113.452 77.5791 113.449 77.5525 113.441L75.5078 112.89C75.33 112.844 75.2229 112.664 75.2682 112.486C75.2686 112.484 75.2692 112.483 75.2696 112.481L75.8212 110.435C75.8589 110.289 75.9909 110.187 76.1421 110.186H76.1441ZM76.3827 110.94L76.0023 112.328L77.4007 112.7L77.7703 111.311L76.3827 110.94ZM33.749 109.181C33.9321 109.138 34.1152 109.251 34.1579 109.435C34.1985 109.608 34.0988 109.783 33.9294 109.837L31.637 110.446C31.4543 110.477 31.2806 110.354 31.2493 110.171C31.2218 110.011 31.3132 109.854 31.466 109.799L33.749 109.181ZM131.381 96.9634L134.063 109.76C134.378 109.204 134.831 108.407 135.33 107.527C136.196 106.005 137.156 104.302 137.783 103.199L138.601 101.754L138.696 101.574C138.607 100.916 138.513 100.243 138.417 99.5578C138.349 99.0804 138.28 98.6037 138.211 98.1272C138.091 97.3209 137.97 96.4998 137.849 95.6857L137.84 95.6481C137.355 92.3659 136.888 89.4361 136.66 88.019L131.381 96.9634ZM85.2323 98.4243C85.3083 98.4246 85.3835 98.434 85.4571 98.4525L85.4857 98.4619C85.6466 98.5029 85.7944 98.5849 85.914 98.7001L92.6964 105.356C92.8171 105.466 92.9027 105.608 92.9437 105.766C92.9894 105.924 92.9928 106.091 92.9531 106.251C92.9071 106.409 92.8221 106.553 92.7059 106.67C92.5866 106.785 92.4387 106.867 92.2778 106.907L83.0794 109.276C83.0001 109.295 82.9188 109.304 82.8372 109.304H82.8335C82.7528 109.305 82.6729 109.295 82.5946 109.276C82.443 109.236 82.3026 109.161 82.1854 109.057L82.1662 109.038C82.0479 108.921 81.9599 108.778 81.9095 108.62C81.8618 108.458 81.8618 108.286 81.9095 108.125L84.3259 99.1073C84.3719 98.949 84.4569 98.8052 84.5732 98.6887C84.7489 98.518 84.9844 98.4226 85.2293 98.4226L85.2323 98.4243ZM85.2431 99.0932C85.1702 99.1009 85.1 99.1258 85.0388 99.1661C85.0076 99.198 84.9847 99.2373 84.9716 99.28L82.5556 108.307C82.5462 108.348 82.5462 108.39 82.5556 108.431C82.568 108.479 82.5946 108.522 82.6319 108.555L82.6416 108.564C82.6725 108.597 82.7118 108.62 82.7555 108.631C82.781 108.636 82.8069 108.639 82.8328 108.639H82.8355C82.863 108.638 82.8902 108.636 82.9174 108.631L92.1155 106.263C92.1622 106.252 92.2049 106.229 92.2392 106.195C92.2691 106.163 92.2919 106.124 92.3064 106.082C92.3158 106.037 92.3158 105.991 92.3064 105.947C92.2879 105.905 92.262 105.867 92.2301 105.833L85.448 99.1839C85.4114 99.1463 85.3647 99.1197 85.3136 99.108L85.2945 99.0982C85.278 99.0942 85.2612 99.0922 85.2441 99.0922L85.2431 99.0932ZM139.382 101.597C139.546 102.814 139.705 104.007 139.839 105.13H164.276L164.105 104.046L157.931 95.9696H138.574C138.802 97.5013 139.04 99.1469 139.279 100.821C139.298 100.965 139.318 101.109 139.337 101.252C139.352 101.362 139.368 101.472 139.384 101.582L139.382 101.597ZM39.7012 100.704C39.386 100.201 38.6741 99.8599 37.7058 99.6892C36.1902 99.4772 34.6467 99.5908 33.1782 100.022H33.1688C31.68 100.39 30.284 101.064 29.0698 102.001C28.3206 102.626 27.8741 103.29 27.8526 103.879L39.7012 100.704ZM97.4032 96.1964C97.4324 96.1964 97.462 96.2001 97.4902 96.2078L99.5259 96.7501C99.7033 96.7954 99.8105 96.9759 99.7651 97.1533C99.7648 97.1553 99.7641 97.1569 99.7638 97.159L99.2215 99.2041C99.1808 99.3512 99.0468 99.453 98.8942 99.4533H98.8922C98.862 99.4533 98.8321 99.4497 98.8029 99.4419L96.7675 98.8902C96.5894 98.8446 96.4826 98.6631 96.5283 98.4854C96.5286 98.4841 96.529 98.4827 96.5293 98.481L97.0716 96.4457C97.1122 96.2975 97.2476 96.1954 97.4012 96.1964H97.4032ZM97.633 96.9402L97.2634 98.3288L98.6617 98.7092L99.0313 97.3112L97.633 96.9402ZM93.3136 95.1024C93.3429 95.1024 93.3718 95.1061 93.4 95.1135L95.4451 95.6561C95.6228 95.7015 95.7297 95.8826 95.6843 96.06C95.684 96.0617 95.6833 96.0633 95.683 96.065L95.1309 98.1101C95.094 98.2559 94.9633 98.3584 94.8128 98.3594H94.8108C94.7809 98.3594 94.7513 98.3557 94.7224 98.348L92.6864 97.7963C92.5086 97.7506 92.4018 97.5699 92.4475 97.3921C92.4478 97.3904 92.4485 97.3888 92.4488 97.3871L92.9908 95.3517C93.0284 95.2052 93.1604 95.1028 93.3116 95.1024H93.3136ZM93.5522 95.8463L93.1809 97.2349L94.5699 97.6152L94.9505 96.2169L93.5522 95.8463ZM89.2332 94.0085C89.2621 94.0088 89.291 94.0125 89.3192 94.0196L91.3643 94.5622C91.541 94.6116 91.6465 94.793 91.6022 94.9711L91.0501 97.0145C91.0129 97.1603 90.8818 97.2628 90.7313 97.2638H90.7293C90.6997 97.2638 90.6702 97.2598 90.6413 97.2524L88.5958 96.7007C88.4181 96.655 88.3113 96.4742 88.3569 96.2965C88.3573 96.2948 88.358 96.2931 88.3583 96.2915L88.91 94.2561C88.9473 94.1096 89.0793 94.0068 89.2305 94.0068L89.2332 94.0085ZM89.4714 94.7523L89.0907 96.1413L90.4891 96.5213L90.8603 95.1229L89.4714 94.7523ZM85.1524 92.9142C85.1813 92.9145 85.2102 92.9186 85.2384 92.9256L87.2741 93.4679C87.4518 93.5136 87.559 93.6947 87.5133 93.8724C87.513 93.8741 87.5126 93.8754 87.512 93.8771L86.9697 95.9226C86.9307 96.0684 86.799 96.1702 86.6478 96.1715H86.6458C86.6169 96.1719 86.5883 96.1678 86.5605 96.1601L84.5157 95.6084C84.338 95.5631 84.2311 95.3823 84.2765 95.2046C84.2768 95.2029 84.2775 95.2009 84.2778 95.1992L84.8295 93.1544C84.8705 93.0113 85.0015 92.9132 85.1504 92.9142H85.1524ZM85.3812 93.6584L85.0116 95.0473L86.4099 95.4277L86.7795 94.0293L85.3812 93.6584ZM158.356 86.1325L153.059 85.3339C152.998 85.7807 152.867 86.2151 152.672 86.6217C152.012 88.017 150.671 88.9661 149.135 89.1244H149.049L148.964 89.1307H148.894L148.824 89.1334H148.581C147.725 89.118 146.892 88.8536 146.184 88.3728C145.951 88.2159 145.734 88.0378 145.535 87.8409C144.932 87.2368 144.516 86.4711 144.338 85.6359C144.319 85.5462 144.303 85.4568 144.289 85.3671L137.222 87.2694C137.383 88.2394 137.897 91.4453 138.477 95.2788H157.416L156.17 93.6426C155.874 93.2546 155.642 92.8205 155.485 92.3582L155.475 92.3393C155.315 91.871 155.236 91.3791 155.238 90.8842V90.3326C155.237 89.7547 155.35 89.1825 155.571 88.6486C156.01 87.5621 156.872 86.7003 157.958 86.2612C158.073 86.2101 158.191 86.1667 158.311 86.1321L158.356 86.1325ZM81.0588 91.8152C81.0891 91.8156 81.1193 91.8206 81.1482 91.8303L83.1936 92.3723C83.3714 92.418 83.4782 92.5994 83.4325 92.7771C83.4322 92.7785 83.4318 92.7802 83.4312 92.7815L82.8795 94.8269C82.8422 94.9727 82.7115 95.0749 82.561 95.0762H82.559C82.5291 95.0762 82.4992 95.0722 82.4703 95.0645L80.4349 94.5128C80.2572 94.4671 80.15 94.286 80.1957 94.1083C80.196 94.1066 80.1964 94.1053 80.197 94.1036L80.7393 92.0581C80.78 91.916 80.909 91.8169 81.0568 91.8145L81.0588 91.8152ZM81.3007 92.5628L80.9311 93.9517L82.3201 94.332L82.7004 92.9337L81.3007 92.5628ZM128.919 82.3373H125.589C124.942 82.3373 124.333 83.6116 124.257 83.7736C124.248 83.7927 124.238 83.8018 124.228 83.8209C123.897 84.3844 123.641 84.9888 123.468 85.6188C123.295 86.2481 123.208 86.8975 123.211 87.55V91.7067H128.709L129.299 90.7935C129.329 90.7361 129.38 90.692 129.441 90.6699C129.671 90.565 129.865 90.3967 130.003 90.1847C130.14 89.972 130.212 89.7244 130.211 89.4714V83.6499C130.21 83.2998 130.07 82.9645 129.822 82.7176C129.677 82.5795 129.506 82.4727 129.318 82.4038H129.299C129.176 82.3618 129.048 82.3393 128.919 82.3373ZM95.989 90.5748C95.7962 90.4925 95.6218 90.3725 95.4753 90.2227H95.4659C93.614 88.3066 92.1478 86.0525 91.1472 83.5831C89.1435 78.619 89.1435 73.071 91.1472 68.1069C92.1501 65.6385 93.616 63.3847 95.4659 61.4673C95.6141 61.3194 95.7881 61.2002 95.9793 61.1155C96.1725 61.0362 96.3791 60.9942 96.5881 60.9915C97.0121 60.9919 97.419 61.1595 97.7203 61.4575L97.7775 61.5247C98.3772 62.1359 98.3728 63.1159 97.7677 63.722C96.2081 65.3391 94.9744 67.2414 94.1341 69.3248C92.4475 73.5114 92.4475 78.1889 94.1341 82.3756C94.9747 84.4559 96.2084 86.3549 97.7677 87.9686H97.7775C98.0644 88.272 98.2243 88.6735 98.2243 89.0911C98.2213 89.506 98.0536 89.9028 97.7583 90.1945C97.7539 90.2082 97.7435 90.2186 97.7297 90.223L97.7106 90.2422C97.5644 90.3873 97.3894 90.5009 97.1972 90.5751C97.0054 90.6598 96.7977 90.7018 96.5881 90.6984C96.3825 90.6961 96.1789 90.6541 95.989 90.5748ZM95.9507 89.7567C96.0364 89.8403 96.1362 89.9079 96.2457 89.9562C96.3579 90.0016 96.4769 90.0275 96.5978 90.0325C96.7191 90.0312 96.8391 90.005 96.9499 89.9562C97.0611 89.9112 97.1616 89.843 97.2446 89.7567L97.2829 89.7281C97.4526 89.5544 97.551 89.3236 97.5587 89.081C97.5591 88.8388 97.4633 88.6063 97.2923 88.4346C95.6705 86.7567 94.3854 84.7839 93.5061 82.6222C91.756 78.2733 91.756 73.4164 93.5061 69.0675C94.3851 66.9058 95.6705 64.9329 97.2923 63.255C97.4583 63.0806 97.5503 62.8488 97.549 62.6079C97.5497 62.368 97.4536 62.1379 97.2829 61.9696C97.2731 61.9602 97.2637 61.941 97.2446 61.9316C97.1589 61.8476 97.0591 61.7794 96.9499 61.73C96.8397 61.68 96.7188 61.6568 96.5978 61.6628C96.4772 61.6605 96.3573 61.6833 96.2457 61.73C96.1348 61.7771 96.0347 61.8456 95.9507 61.9316C94.1573 63.7875 92.7368 65.9704 91.7658 68.3616C88.8001 75.6919 90.4414 84.082 95.9507 89.7547V89.7567ZM152.514 72.3338L152.511 72.3301L152.454 72.2629C149.105 68.0491 149.809 62.6462 150.247 60.5917C148.115 61.9632 145.703 62.8404 143.189 63.1596C140.497 63.4536 137.775 63.1317 135.226 62.2189V74.3074C135.233 77.8674 138.117 80.7514 141.677 80.7582H144.578C144.764 80.7561 144.917 80.905 144.92 81.0911V84.7251C144.92 85.2569 145.032 85.7831 145.249 86.2685C145.412 86.6294 145.631 86.9627 145.897 87.2563C145.935 87.2983 145.974 87.3393 146.014 87.379C146.716 88.0835 147.67 88.4806 148.664 88.4826H148.748C149.636 88.4669 150.49 88.1349 151.156 87.5466C151.216 87.4929 151.275 87.4371 151.331 87.3786C151.985 86.7265 152.375 85.8556 152.425 84.9337C152.426 84.9176 152.428 84.9018 152.431 84.886C152.434 84.8326 152.435 84.7788 152.435 84.7247V77.2956C152.434 77.1128 152.581 76.9636 152.764 76.9626C152.765 76.9626 152.767 76.9626 152.768 76.9626H154.331C154.933 76.9515 155.509 76.714 155.944 76.297C156.153 76.0914 156.318 75.8455 156.429 75.574C156.733 74.8352 156.627 73.9909 156.151 73.3492C156.145 73.3428 156.14 73.3357 156.134 73.329L156.1 73.2823C156.072 73.2467 156.042 73.2124 156.011 73.1788C155.987 73.1583 155.964 73.1358 155.944 73.1116C155.735 72.902 155.486 72.737 155.212 72.6265C155.119 72.5868 155.023 72.5542 154.926 72.5284C154.739 72.4803 154.547 72.4558 154.355 72.4555H152.765C152.667 72.4558 152.573 72.4111 152.512 72.3338H152.514ZM110.189 65.7194C110.189 65.0864 109.676 64.5731 109.043 64.5731C108.41 64.5731 107.896 65.0864 107.896 65.7194V86.3226C107.893 86.626 108.014 86.918 108.23 87.131V87.1408C108.449 87.3534 108.742 87.4727 109.048 87.4737C109.352 87.4717 109.643 87.3484 109.856 87.131C110.072 86.9177 110.192 86.626 110.189 86.3226V65.7194ZM99.5722 86.9697C99.3841 86.8844 99.2131 86.7651 99.0683 86.6176L99.0589 86.6079C97.6851 85.1675 96.5972 83.4792 95.8533 81.633C94.3693 77.9171 94.3693 73.7728 95.8533 70.0569C96.5995 68.2117 97.6871 66.5241 99.0589 65.0817C99.2067 64.9312 99.3807 64.8089 99.5722 64.7206C99.9647 64.559 100.404 64.5556 100.8 64.7112C100.994 64.7955 101.171 64.9148 101.323 65.0629C101.342 65.0817 101.361 65.1009 101.38 65.12C101.963 65.7325 101.963 66.6951 101.38 67.3076C98.0469 70.8142 97.0554 75.9382 98.8401 80.435C99.4332 81.8975 100.295 83.236 101.38 84.382C101.666 84.681 101.823 85.0812 101.817 85.4951C101.817 85.909 101.653 86.3062 101.36 86.5985L101.322 86.627L101.303 86.6462C101.156 86.7859 100.985 86.8988 100.799 86.9791C100.602 87.0554 100.392 87.0944 100.18 87.0934C99.9721 87.0907 99.7661 87.0487 99.5733 86.9697H99.5722ZM99.5437 86.1516C99.6294 86.235 99.7295 86.3025 99.8387 86.3512C99.9495 86.4003 100.069 86.4261 100.191 86.4275C100.312 86.4302 100.432 86.4073 100.543 86.3603C100.655 86.3119 100.758 86.2444 100.847 86.1607L100.876 86.1321L100.885 86.1227C101.052 85.9517 101.148 85.7233 101.152 85.4844C101.153 85.2462 101.061 85.0167 100.895 84.846V84.8366C99.7513 83.6341 98.8445 82.2271 98.2216 80.6893C96.9788 77.5811 96.9788 74.1138 98.2216 71.0057C98.8348 69.4599 99.7426 68.0481 100.895 66.849V66.8392C101.061 66.6686 101.153 66.4391 101.152 66.2009C101.145 65.9657 101.05 65.7416 100.885 65.5729C100.866 65.5545 100.857 65.5447 100.847 65.5353V65.5259C100.758 65.4416 100.655 65.3734 100.543 65.3243C100.43 65.283 100.311 65.2605 100.191 65.2571C99.9475 65.2618 99.7157 65.3609 99.5437 65.533C98.2283 66.9152 97.1888 68.5359 96.4812 70.3079C95.7707 72.0687 95.4095 73.9509 95.4179 75.8498C95.4165 77.7461 95.7784 79.6252 96.4836 81.3858C97.1932 83.1537 98.2317 84.7711 99.5447 86.1516H99.5437ZM116.789 83.4215V68.6203L110.863 66.4136V85.6285L116.789 83.4215ZM44.3075 68.6774C44.8494 69.6198 44.9932 70.7393 44.7069 71.7882C44.4277 72.8455 43.74 73.7486 42.7949 74.2993C37.3349 77.3903 31.8463 80.8435 26.3484 83.7927C25.4033 84.3273 24.2855 84.4674 23.2379 84.1825C22.1809 83.8969 21.2785 83.2068 20.7265 82.261L15.4093 73.0532C14.3005 71.081 14.9779 68.584 16.9313 67.4423L33.3606 57.9587C35.3335 56.8224 37.8536 57.499 38.9919 59.4706L44.3075 68.6774ZM44.0598 71.6169C44.297 70.7349 44.1774 69.7952 43.7272 69.0009C43.28 68.2685 38.41 59.8119 38.41 59.8025C37.9558 59.0079 37.2019 58.4287 36.3169 58.1952C35.4312 57.9563 34.4868 58.0793 33.6919 58.5375L17.2736 68.0121C15.6303 68.9673 15.0619 71.0672 15.9989 72.7209C16.4461 73.4627 21.3074 81.919 21.3074 81.9284C22.2646 83.5683 24.3584 84.1395 26.0158 83.2128L42.4623 73.7194C43.2525 73.2581 43.8274 72.5018 44.0598 71.6169ZM103.15 83.3563C102.96 83.2699 102.788 83.1473 102.646 82.9948C98.9141 78.961 98.91 72.7363 102.636 68.6979C102.784 68.5474 102.958 68.4247 103.15 68.3364C103.345 68.25 103.555 68.202 103.768 68.1939C103.98 68.1922 104.19 68.2309 104.387 68.3081C104.587 68.3868 104.768 68.5064 104.919 68.6599C104.939 68.6875 104.962 68.713 104.987 68.7358C105.256 69.0228 105.412 69.3984 105.423 69.7918C105.431 70.1997 105.281 70.5948 105.005 70.8952C103.748 72.2381 103.054 74.0117 103.064 75.8512C103.06 76.7593 103.228 77.6598 103.559 78.5054C103.895 79.3521 104.385 80.1292 105.004 80.7978C105.284 81.0958 105.434 81.4926 105.422 81.9012C105.419 82.3023 105.263 82.687 104.985 82.9763L104.966 82.9954L104.899 83.0526C104.596 83.3459 104.189 83.5068 103.767 83.4997C103.554 83.4917 103.345 83.443 103.15 83.3563ZM126.911 79.2348V72.8066L117.466 68.8874V83.1463L125.419 79.8537C125.44 79.8416 125.462 79.8322 125.485 79.8255L126.911 79.2348ZM103.772 68.8588C103.653 68.8685 103.536 68.8974 103.426 68.9438C103.313 68.9912 103.213 69.0627 103.131 69.1535C99.6411 72.9322 99.6411 78.7581 103.131 82.5368C103.216 82.6232 103.316 82.6941 103.426 82.7461C103.538 82.7935 103.657 82.8224 103.778 82.8318C103.901 82.8288 104.023 82.8063 104.14 82.7646C104.253 82.7139 104.356 82.643 104.444 82.5556C104.453 82.5459 104.472 82.5365 104.482 82.5173L104.501 82.4985C104.664 82.3379 104.757 82.1189 104.758 81.8897C104.765 81.6539 104.679 81.4251 104.52 81.2514H104.51C101.692 78.197 101.692 73.4903 104.51 70.4359C104.67 70.2622 104.755 70.0334 104.748 69.7975C104.748 69.5637 104.652 69.3399 104.482 69.1793C104.472 69.1625 104.46 69.1471 104.446 69.134V69.132C104.361 69.0402 104.257 68.9687 104.141 68.9223C104.025 68.881 103.903 68.8581 103.779 68.8551L103.772 68.8588ZM129.08 79.7879H127.326L126.264 80.228L125.932 80.3681V81.6616H128.949V81.6714H129.083L129.08 79.7879ZM153.318 77.6376H153.099V79.673C153.363 79.1253 153.703 78.4372 154.061 77.646C153.816 77.651 153.567 77.6446 153.318 77.6383V77.6376ZM127.577 79.123H130.108C130.304 79.1236 130.498 79.085 130.679 79.0091C130.856 78.9314 131.017 78.8216 131.154 78.6855C131.295 78.5518 131.405 78.3895 131.478 78.2098C131.547 78.0307 131.583 77.8405 131.582 77.6487V74.3957C131.583 74.2036 131.547 74.0134 131.478 73.8343V73.8249C131.4 73.6475 131.291 73.4862 131.154 73.3488C131.016 73.2154 130.856 73.1093 130.679 73.035C130.498 72.9591 130.304 72.9205 130.108 72.9211H127.577V79.123ZM143.827 74.2338C144.015 74.2345 144.167 74.3873 144.167 74.5758C144.163 76.3558 142.721 77.7982 140.941 77.8016H140.931C139.148 77.8032 137.7 76.3595 137.697 74.5762C137.695 74.39 137.844 74.2372 138.03 74.2338H143.825H143.827ZM143.472 74.9091H138.393C138.468 75.4675 138.726 75.9859 139.125 76.3834C139.602 76.8665 140.254 77.1373 140.933 77.135H140.941C141.617 77.1353 142.265 76.8645 142.74 76.3834C143.14 75.9856 143.397 75.4672 143.472 74.9081V74.9091ZM33.7584 68.4311L29.3924 75.2407C29.3615 75.2827 29.3225 75.3183 29.2781 75.3455C29.1192 75.4379 28.9156 75.3842 28.8232 75.2253C28.8225 75.2243 28.8219 75.2233 28.8215 75.2222L25.0922 68.7631C25.0663 68.716 25.0502 68.6643 25.0448 68.6109C25.0414 68.4261 25.1839 68.2712 25.3683 68.2591L33.4443 67.9167C33.5172 67.9093 33.5908 67.9258 33.6532 67.9641C33.8058 68.0672 33.8518 68.2712 33.7584 68.4301V68.4311ZM29.1259 74.4132L32.8452 68.6109L25.9489 68.9058L29.1259 74.4132ZM156.266 72.4944L156.285 72.5109C156.599 71.7119 156.904 70.8938 157.179 70.0855C157.512 69.1249 157.807 68.1828 158.017 67.3076C158.491 65.5014 158.763 63.6478 158.825 61.7811C158.844 60.2211 158.654 58.7942 158.131 57.6821C157.668 56.5976 156.719 55.7963 155.572 55.5228C155.189 55.4297 154.796 55.3787 154.402 55.3706C154.252 55.377 154.117 55.2839 154.069 55.1421C154.069 55.1233 152.519 49.787 143.349 49.787C141.724 49.7914 140.107 50.0185 138.544 50.4623C137.116 50.8604 135.735 51.4124 134.426 52.1086C133.543 52.5565 132.812 53.2546 132.323 54.1157C130.929 56.565 131.784 59.6812 134.233 61.0759C134.469 61.2099 134.715 61.3252 134.968 61.4202C134.988 61.4246 135.007 61.4313 135.025 61.4401C135.132 61.479 135.238 61.5177 135.347 61.5553C137.83 62.4534 140.485 62.7752 143.11 62.496L143.127 62.492C145.814 62.1439 148.374 61.138 150.58 59.5636C150.612 59.5414 150.648 59.5253 150.685 59.5152C150.865 59.4679 151.049 59.5747 151.096 59.7541C151.112 59.8136 151.111 59.8761 151.094 59.9349C151.094 59.954 149 66.7552 152.929 71.7775H154.357C154.57 71.7781 154.781 71.802 154.989 71.849C155.461 71.9572 155.899 72.1786 156.266 72.4944ZM81.0067 59.1178V59.1369C80.1258 62.41 77.9802 65.1987 75.0424 66.8893L75.0233 66.899C68.8957 70.4208 61.0735 68.3085 57.5517 62.1812C55.8658 59.2478 55.4102 55.7661 56.2844 52.4973V52.4879C57.1627 49.2135 59.3089 46.4235 62.2487 44.7352L62.2672 44.7164C65.2023 43.0254 68.6894 42.5705 71.9602 43.4514H71.9699C78.7799 45.2939 82.8197 52.2941 81.0078 59.1121V59.1158L81.0067 59.1178ZM71.4609 64.3564C71.1763 64.7817 70.8699 65.1919 70.5434 65.586C69.7871 66.56 68.8228 67.353 67.7211 67.907C70.1274 68.0921 72.5337 67.5508 74.6292 66.3534C73.6478 65.5753 72.5851 64.9057 71.4599 64.3564H71.4609ZM62.6089 61.8573C62.6425 62.3314 62.6983 62.786 62.7718 63.2174C63.171 65.5293 64.1131 67.1463 65.5017 67.5263C66.9 67.8959 68.5255 66.9652 70.0293 65.158C70.3088 64.822 70.5823 64.4575 70.8501 64.0647C69.5495 63.4737 68.2029 62.9899 66.8237 62.6183C65.4425 62.2461 64.0321 61.9914 62.6079 61.8573H62.6089ZM61.9369 61.8059C60.6868 61.7149 59.4305 61.7623 58.1908 61.9477C59.4104 64.0295 61.2226 65.7003 63.3964 66.7468C62.7208 65.7181 62.2833 64.5512 62.116 63.332C62.0297 62.8266 61.9695 62.3173 61.9353 61.8059H61.9369ZM74.4326 57.704C73.848 59.8435 72.9708 61.8923 71.8255 63.7916C73.0434 64.3889 74.1881 65.1257 75.2363 65.9869C77.6627 64.4195 79.4485 62.0361 80.2716 59.2673L74.4326 57.704ZM63.3339 54.7309C62.7823 56.8355 62.5259 59.0066 62.5723 61.1817C64.066 61.3164 65.5457 61.5805 66.9941 61.9702C68.4425 62.361 69.8553 62.8727 71.2177 63.5C72.3452 61.639 73.2087 59.6305 73.7842 57.532L63.3339 54.7309ZM56.8495 52.9939C56.1762 55.8013 56.5307 58.7573 57.8487 61.3262C59.1876 61.1021 60.548 61.0379 61.902 61.135C61.8583 58.9169 62.1224 56.7034 62.6865 54.5579L56.8495 52.9939ZM79.4401 50.2977C78.1009 50.5177 76.7405 50.5816 75.3865 50.4885C75.4295 52.7036 75.1661 54.914 74.604 57.0572L80.441 58.6209C81.1116 55.8161 80.7564 52.8639 79.4404 50.298L79.4401 50.2977ZM66.0681 48.1236C64.9443 49.9832 64.0828 51.9893 63.508 54.0848L73.9569 56.8842C74.5072 54.7813 74.7629 52.6119 74.7159 50.4384C73.2214 50.3041 71.7418 50.0376 70.2941 49.6432C68.844 49.2602 67.4298 48.7518 66.0675 48.1239L66.0681 48.1236ZM62.0485 45.6323C59.6274 47.2013 57.8444 49.581 57.0189 52.3455L62.8602 53.9104C63.4448 51.7743 64.3214 49.7289 65.465 47.8319C64.2448 47.2335 63.0977 46.4954 62.0478 45.6326L62.0485 45.6323ZM73.8924 44.8743C74.5697 45.9037 75.0082 47.0716 75.1755 48.2925C75.2605 48.7975 75.3203 49.3069 75.3546 49.8179C76.6044 49.9005 77.8593 49.8525 79.0991 49.6741C77.8798 47.5914 76.0668 45.9202 73.8917 44.8746L73.8924 44.8743ZM74.6813 49.7638C74.6477 49.2904 74.5922 48.8372 74.519 48.4068C74.1195 46.0855 73.1778 44.4688 71.7794 44.0975C70.3905 43.7279 68.764 44.6589 67.2608 46.4568C66.9803 46.7927 66.7058 47.159 66.437 47.5554C69.0459 48.7367 71.8312 49.4829 74.6813 49.7638ZM69.5683 43.7162C67.1607 43.5307 64.7528 44.0696 62.6542 45.2637C63.6397 46.0408 64.704 46.7121 65.8299 47.2665C66.1142 46.8408 66.4206 46.4306 66.7475 46.0368C67.5034 45.0638 68.467 44.2716 69.5677 43.7179L69.5683 43.7162ZM36.7261 19.0715C35.2814 19.4616 34.1767 20.2222 33.5585 21.2889C32.9309 22.3543 32.7784 23.7433 33.2161 25.3697L34.0057 28.328C34.0541 28.5048 33.9499 28.6875 33.7732 28.7359C33.7715 28.7362 33.7695 28.7369 33.7678 28.7373L30.6194 29.5836L31.5231 32.9702L34.6713 32.1236C34.8527 32.0742 35.0398 32.1804 35.0902 32.3615L37.8486 42.6817C37.897 42.8584 37.7932 43.0409 37.6168 43.0892C37.6148 43.0899 37.6128 43.0903 37.6107 43.0909L24.8358 46.5142C24.3641 46.6395 23.8618 46.5744 23.4375 46.3331C23.0094 46.0912 22.697 45.6864 22.572 45.211L16.2082 21.4778C15.9499 20.4883 16.5351 19.475 17.5212 19.2042L41.2447 12.8502C41.7194 12.7201 42.2261 12.7853 42.6524 13.0313C43.0761 13.2782 43.3865 13.6807 43.5179 14.1534L49.8813 37.896C50.008 38.3687 49.9395 38.8727 49.6912 39.2944C49.4426 39.7207 49.0357 40.0318 48.5593 40.1602L41.7678 41.9768C41.5891 42.0235 41.4066 41.917 41.3586 41.739L38.5999 31.418C38.5528 31.2406 38.6583 31.0589 38.8357 31.0115C38.8367 31.0112 38.8377 31.0108 38.8391 31.0108L42.0164 30.1547L41.5407 26.6542L37.9262 27.6245C37.7495 27.6729 37.5667 27.5687 37.5183 27.392C37.518 27.3903 37.5173 27.3883 37.517 27.3866L36.8323 24.8278C36.6246 24.2624 36.628 23.6408 36.8417 23.0774C37.0796 22.564 37.5933 22.1739 38.5253 21.9266L40.3422 21.4317L39.5419 18.4452C39.2564 18.4926 38.8364 18.5796 38.3324 18.6828C37.8567 18.7876 37.305 18.9206 36.7345 19.0732L36.7261 19.0715ZM41.4157 13.4973L17.6922 19.8513C17.3919 19.9353 17.1359 20.1332 16.979 20.403C16.8184 20.6754 16.774 21.001 16.855 21.3067L23.2188 45.0396C23.2994 45.3416 23.4983 45.5987 23.7704 45.7529C24.0422 45.9058 24.3631 45.9471 24.6648 45.8675L37.1162 42.5285L34.5291 32.8547L31.3709 33.701C31.1942 33.7494 31.0114 33.6449 30.9634 33.4682C30.9631 33.4665 30.9624 33.4651 30.9621 33.4635L29.8779 29.4317C29.8359 29.254 29.9403 29.0746 30.1154 29.0228L33.2736 28.1762L32.57 25.5411C32.0849 23.7339 32.2656 22.1739 32.9793 20.9469C33.6926 19.7293 34.9279 18.8638 36.5464 18.4271H36.5652C37.1548 18.2655 37.7075 18.1321 38.192 18.0276C38.9338 17.8754 39.5043 17.7709 39.7422 17.7424C39.9088 17.7145 40.0694 17.8173 40.1134 17.9802L41.074 21.5853C41.1224 21.762 41.0179 21.9448 40.8412 21.9928C40.8395 21.9932 40.8378 21.9938 40.8361 21.9942L38.7047 22.5717C37.9817 22.7622 37.6013 23.0286 37.4491 23.3613C37.3063 23.7826 37.3168 24.2405 37.4777 24.6551L38.0767 26.8904L41.7389 25.9107C41.9156 25.8623 42.0981 25.9661 42.1464 26.1428C42.1468 26.1445 42.1475 26.1465 42.1478 26.1482C42.1555 26.1663 42.1585 26.1858 42.1572 26.2053L42.7183 30.3526C42.7418 30.5213 42.6356 30.6806 42.471 30.7239L39.3323 31.5706L41.9193 41.2444L48.3879 39.5131C49.0186 39.3451 49.3962 38.7007 49.2346 38.0684L42.8708 14.3342C42.7062 13.7046 42.0621 13.3279 41.4325 13.4926C41.4268 13.4942 41.4211 13.4956 41.4157 13.4973ZM105.157 25.0163C105.066 25.7084 104.843 26.377 104.501 26.9855L99.5447 35.5559C99.1933 36.1678 98.7246 36.7043 98.1655 37.135C97.6058 37.5654 96.9654 37.8792 96.282 38.0576C95.6006 38.2421 94.8897 38.2908 94.1895 38.2004C93.49 38.104 92.815 37.8749 92.2015 37.5251L83.6499 32.5899C81.0911 31.0962 80.2128 27.82 81.681 25.2464L86.6273 16.6857C87.7129 14.8022 89.8285 13.7613 91.9828 14.0506C92.6739 14.1393 93.3402 14.3658 93.9423 14.7165L102.522 19.6628C104.406 20.7484 105.446 22.8637 105.157 25.018V25.0163ZM103.921 26.6525C104.22 26.1196 104.416 25.5357 104.501 24.931C104.578 24.3168 104.536 23.6932 104.377 23.0948C104.217 22.4988 103.942 21.9397 103.569 21.4485C103.188 20.9634 102.721 20.5538 102.19 20.2407C99.3737 18.5571 96.3868 17.0062 93.6093 15.2944C93.0815 14.9846 92.4952 14.7871 91.8874 14.7142C91.2773 14.6285 90.656 14.6675 90.0614 14.8281C89.464 14.9897 88.9046 15.2675 88.4151 15.6462C87.9225 16.0191 87.5109 16.4881 87.2056 17.0254C85.5122 19.8412 83.9523 22.7615 82.2593 25.577C81.635 26.6562 81.467 27.9403 81.7933 29.1438C81.9512 29.7408 82.2257 30.3002 82.6016 30.7901C82.9786 31.2803 83.4463 31.6939 83.9791 32.008C86.7379 33.7296 89.7341 35.2609 92.5402 36.9449C93.0724 37.2546 93.661 37.4552 94.2715 37.5345C95.5096 37.6938 96.7601 37.3588 97.7529 36.6022C98.2455 36.2299 98.657 35.7612 98.9624 35.2247C100.659 32.4075 102.199 29.4317 103.921 26.6525ZM95.7686 21.4784C98.3268 22.9715 99.1902 26.2557 97.6972 28.8139C96.2158 31.3518 92.9679 32.2254 90.4135 30.7723L90.4037 30.7625C87.8375 29.2839 86.9559 26.0044 88.4346 23.4382C89.9132 20.872 93.1927 19.9904 95.7589 21.469L95.7686 21.4784ZM97.6138 24.9125C96.9456 22.4098 94.375 20.9227 91.8723 21.591C90.6718 21.9115 89.6474 22.6953 89.0245 23.7701V23.7796C87.7253 26.0172 88.4863 28.8847 90.7239 30.184C90.7279 30.1863 90.7323 30.1887 90.7364 30.191C91.8175 30.8102 93.0993 30.9779 94.3034 30.657C96.8031 29.9834 98.2848 27.4122 97.6138 24.9118V24.9125ZM101.562 22.3658C102.345 22.3658 102.981 23.0014 102.981 23.7853C102.981 24.5691 102.345 25.2048 101.562 25.2048C100.778 25.2048 100.142 24.5691 100.142 23.7853C100.142 23.0014 100.778 22.3658 101.562 22.3651V22.3658ZM102.301 23.4832C102.134 23.0757 101.668 22.8805 101.261 23.0471C100.853 23.2141 100.658 23.6798 100.824 24.0873C100.991 24.4949 101.457 24.6901 101.865 24.5234C102.03 24.4559 102.167 24.3349 102.256 24.18C102.368 23.9643 102.384 23.7107 102.3 23.4825L102.301 23.4832Z" fill="#686868"/>
<path fill-rule="evenodd" clip-rule="evenodd" d="M146.789 131.79C144.135 131.521 141.976 131.158 140.542 130.878L136.965 145.137C135.824 149.655 135.837 154.388 137.004 158.901L142.187 179.133H152.337L147.572 159.804C147.012 157.51 146.734 155.156 146.744 152.794C146.758 150.432 147.065 148.08 147.657 145.793L149.942 136.947C149.979 136.794 150.117 136.687 150.275 136.69C150.458 136.694 150.602 136.845 150.598 137.028C150.598 137.029 150.598 137.031 150.598 137.033L150.149 150.759C150.111 152.041 150.159 153.325 150.292 154.602C150.425 155.877 150.644 157.142 150.948 158.387L156.075 179.133H166.225L161.221 158.197C160.239 154.138 160.168 149.912 161.012 145.822L163.94 131.436C158.262 132.288 152.498 132.407 146.789 131.79ZM159.651 86.6078H159.643C159.15 86.6098 158.662 86.7066 158.206 86.8934C157.294 87.2727 156.57 87.9974 156.19 88.9093C156.005 89.3655 155.908 89.8534 155.905 90.3459V90.8976C155.906 91.3186 155.977 91.7362 156.115 92.134V92.1528C156.25 92.5473 156.449 92.9168 156.704 93.2468L158.369 95.4252L158.375 95.435L167.282 107.097C169.023 109.382 169.969 112.175 169.974 115.049V128.804H177.393V111.73C177.404 109.002 176.507 106.348 174.843 104.187L162.487 88.0159C162.154 87.5778 161.724 87.2227 161.231 86.9791C161.146 86.9381 161.06 86.9005 160.973 86.8659C160.95 86.8615 160.927 86.8548 160.906 86.8457C160.797 86.8044 160.684 86.7654 160.57 86.7328C160.272 86.6515 159.964 86.6095 159.656 86.6082H159.649L159.651 86.6078ZM129.736 92.3722L130.697 96.9573C130.702 96.9822 130.709 97.0067 130.719 97.0299L133.564 110.643L133.018 111.616C132.619 112.211 132.101 112.716 131.496 113.099C129.532 114.345 126.974 114.107 125.275 112.519L124.847 112.12C123.806 111.139 123.214 109.774 123.211 108.344V92.3722H129.736ZM131.38 96.9617L134.063 109.758C134.377 109.202 134.83 108.405 135.329 107.526C136.195 106.004 137.155 104.3 137.782 103.197L138.6 101.753L138.695 101.572C138.606 100.914 138.512 100.241 138.417 99.5561C138.348 99.0787 138.279 98.6019 138.21 98.1255C138.09 97.3192 137.969 96.498 137.849 95.684L137.839 95.6463C137.354 92.3641 136.888 89.4344 136.66 88.0173L131.38 96.9617ZM129.08 79.7878V81.6713H128.945V81.6615H125.93V80.368L126.262 80.2279L127.324 79.7878H129.08ZM41.4157 13.4972L17.6922 19.8512C17.3919 19.9352 17.1359 20.1331 16.979 20.4029C16.8184 20.6754 16.774 21.0009 16.855 21.3067L23.2188 45.0395C23.2994 45.3416 23.4983 45.5986 23.7704 45.7528C24.0422 45.9057 24.3631 45.947 24.6648 45.8674L37.1162 42.5284L34.5291 32.8546L31.3709 33.7009C31.1942 33.7493 31.0114 33.6448 30.9634 33.4681C30.9631 33.4664 30.9624 33.4651 30.962 33.4634L29.8778 29.4317C29.8358 29.2539 29.9403 29.0745 30.1154 29.0228L33.2736 28.1761L32.57 25.541C32.0849 23.7338 32.2656 22.1738 32.9793 20.9469C33.6925 19.7293 34.9279 18.8638 36.5463 18.427H36.5652C37.1548 18.2654 37.7075 18.132 38.192 18.0275C38.9338 17.8753 39.5043 17.7708 39.7422 17.7423C39.9088 17.7144 40.0694 17.8172 40.1134 17.9802L41.074 21.5852C41.1224 21.7619 41.0179 21.9447 40.8412 21.9928C40.8395 21.9931 40.8378 21.9938 40.8361 21.9941L38.7047 22.5716C37.9816 22.7621 37.6013 23.0286 37.4491 23.3612C37.3063 23.7825 37.3167 24.2404 37.4777 24.655L38.0767 26.8903L41.7389 25.9106C41.9156 25.8622 42.0981 25.966 42.1464 26.1428C42.1468 26.1444 42.1474 26.1465 42.1478 26.1481C42.1555 26.1663 42.1585 26.1858 42.1572 26.2053L42.7183 30.3526C42.7418 30.5212 42.6356 30.6805 42.471 30.7238L39.3323 31.5705L41.9193 41.2443L48.3879 39.513C49.0185 39.345 49.3962 38.7006 49.2346 38.0683L42.8708 14.3341C42.7062 13.7045 42.0621 13.3279 41.4325 13.4925C41.4268 13.4942 41.4211 13.4955 41.4157 13.4972Z" fill="#F48850"/>
<path fill-rule="evenodd" clip-rule="evenodd" d="M164.381 105.794C164.552 106.956 165.218 111.34 165.531 113.642C166.285 119.222 166.298 124.877 165.57 130.46C153.062 132.905 141.078 130.346 139.069 129.88C139.345 127.997 140.81 117.79 140.514 111.874C140.476 111.075 140.4 110.104 140.286 109.01C140.191 108.002 140.067 106.918 139.924 105.795L164.381 105.794ZM92.7164 115.316L92.3364 116.705L93.7348 117.074L94.1044 115.686L92.7164 115.316ZM88.6262 114.222L88.2567 115.611L89.655 115.98L90.0246 114.592L88.6262 114.222ZM84.5458 113.128L84.1762 114.517L85.5651 114.887L85.9458 113.498L84.5458 113.128ZM80.465 112.034L80.0954 113.423L81.484 113.794L81.8536 112.405L80.465 112.034ZM76.3828 110.94L76.0025 112.329L77.4008 112.7L77.7704 111.311L76.3828 110.94ZM85.2433 99.0912C85.1704 99.0989 85.1001 99.1238 85.039 99.1641C85.0077 99.196 84.9849 99.2353 84.9718 99.278L82.5558 108.305C82.5464 108.346 82.5464 108.388 82.5558 108.429C82.5682 108.477 82.5947 108.52 82.632 108.553L82.6418 108.562C82.6727 108.595 82.712 108.618 82.7557 108.629C82.7812 108.634 82.8071 108.637 82.833 108.637H82.8356C82.8632 108.636 82.8904 108.634 82.9176 108.629L92.1157 106.261C92.1624 106.25 92.2051 106.227 92.2393 106.193C92.2692 106.16 92.2921 106.122 92.3065 106.08C92.316 106.035 92.316 105.989 92.3065 105.945C92.2881 105.903 92.2622 105.864 92.2303 105.831L85.4482 99.1819C85.4116 99.1443 85.3649 99.1177 85.3138 99.1059L85.2947 99.0962C85.2782 99.0922 85.2614 99.0902 85.2443 99.0902L85.2433 99.0912ZM97.6331 96.9382L97.2636 98.3268L98.6619 98.7071L99.0315 97.3091L97.6331 96.9382ZM93.5523 95.8443L93.1811 97.2329L94.57 97.6132L94.9507 96.2149L93.5523 95.8443ZM89.4712 94.7507L89.0905 96.1396L90.4889 96.5196L90.8601 95.1212L89.4712 94.7507ZM85.381 93.6567L85.0114 95.0457L86.4098 95.426L86.7794 94.0276L85.381 93.6567ZM158.356 86.1308L153.059 85.3322C152.997 85.779 152.867 86.2134 152.672 86.62C152.012 88.0153 150.671 88.9644 149.135 89.1227H149.049L148.964 89.1291H148.894L148.824 89.1318H148.581C147.725 89.1163 146.892 88.8519 146.183 88.3711C145.951 88.2142 145.734 88.0361 145.535 87.8392C144.932 87.2352 144.516 86.4695 144.338 85.6342C144.319 85.5445 144.303 85.4551 144.289 85.3654L137.222 87.2677C137.383 88.2377 137.897 91.4436 138.477 95.2771H157.416L156.17 93.6409C155.873 93.2529 155.642 92.8188 155.485 92.3565L155.475 92.3377C155.315 91.8693 155.235 91.3774 155.238 90.8825V90.3309C155.237 89.753 155.35 89.1808 155.571 88.6469C156.01 87.5604 156.872 86.6986 157.958 86.2595C158.073 86.2084 158.191 86.1651 158.311 86.1305L158.356 86.1308ZM81.3009 92.5621L80.9313 93.951L82.3203 94.3314L82.7006 92.933L81.3009 92.5621ZM110.189 65.7174C110.189 65.0844 109.676 64.571 109.043 64.571C108.41 64.571 107.897 65.0844 107.897 65.7174V86.3206C107.894 86.624 108.014 86.916 108.23 87.129V87.1387C108.449 87.3514 108.742 87.4707 109.048 87.4717C109.352 87.4697 109.643 87.3464 109.856 87.129C110.072 86.9156 110.192 86.624 110.189 86.3206V65.7174ZM126.912 79.2315V72.8066L117.466 68.8874V83.1463L125.42 79.8537C125.44 79.8416 125.462 79.8322 125.485 79.8255L126.912 79.2315ZM143.472 74.9061C143.397 75.4648 143.139 75.9829 142.74 76.3804C142.265 76.8615 141.617 77.1323 140.941 77.1319H140.933C140.254 77.1343 139.603 76.8635 139.125 76.3804C138.726 75.9829 138.469 75.4645 138.393 74.9061H143.472ZM71.4601 64.3564C71.1755 64.7817 70.8691 65.1919 70.5425 65.586C69.7862 66.56 68.822 67.3529 67.7203 67.907C70.1266 68.0921 72.5329 67.5508 74.6284 66.3534C73.6473 65.5756 72.5849 64.906 71.4601 64.3564ZM62.608 61.8573C62.6416 62.3314 62.6974 62.786 62.771 63.2174C63.1701 65.5293 64.1122 67.1463 65.5008 67.5263C66.8992 67.8959 68.5246 66.9652 70.0285 65.158C70.308 64.822 70.5815 64.4575 70.8493 64.0647C69.5487 63.4737 68.2021 62.9899 66.8229 62.6183C65.442 62.2461 64.0319 61.9914 62.608 61.8573ZM61.9361 61.8059C60.6859 61.7149 59.4297 61.7623 58.1899 61.9477C59.4095 64.0294 61.2218 65.7003 63.3956 66.7468C62.7199 65.7181 62.2825 64.5512 62.1152 63.332C62.0292 62.8266 61.9694 62.3173 61.9354 61.8059H61.9361ZM74.4318 57.704C73.8472 59.8435 72.97 61.8923 71.8246 63.7916C73.0425 64.3889 74.1872 65.1257 75.2355 65.9869C77.6619 64.4195 79.4476 62.0361 80.2708 59.2673L74.4318 57.704ZM63.3341 54.7309C62.7824 56.8355 62.5261 59.0066 62.5724 61.1817C64.0662 61.3164 65.5458 61.5805 66.9942 61.9702C68.4427 62.361 69.8554 62.8727 71.2178 63.4999C72.3454 61.639 73.2088 59.6305 73.7844 57.532L63.3341 54.7309ZM56.8497 52.9939C56.1764 55.8013 56.5309 58.7573 57.8489 61.3262C59.1878 61.1021 60.5482 61.0379 61.9022 61.135C61.8585 58.9169 62.1226 56.7034 62.6867 54.5579L56.8497 52.9939ZM79.4402 50.2977C78.101 50.5177 76.7407 50.5816 75.3867 50.4885C75.4297 52.7036 75.1663 54.914 74.6042 57.0572L80.4411 58.6209C81.1117 55.8161 80.7566 52.8639 79.4406 50.298L79.4402 50.2977ZM66.0683 48.1235C64.9444 49.9832 64.083 51.9893 63.5081 54.0848L73.9571 56.8842C74.5074 54.7813 74.7631 52.6119 74.716 50.4384C73.2216 50.304 71.742 50.0376 70.2942 49.6432C68.8441 49.2602 67.43 48.7518 66.0676 48.1239L66.0683 48.1235ZM62.0486 45.6323C59.6276 47.2013 57.8445 49.581 57.019 52.3455L62.8604 53.9104C63.445 51.7743 64.3215 49.7289 65.4652 47.8319C64.2449 47.2335 63.0979 46.4954 62.048 45.6326L62.0486 45.6323ZM73.8926 44.8743C74.5699 45.9037 75.0084 47.0716 75.1757 48.2925C75.2607 48.7975 75.3205 49.3069 75.3547 49.8179C76.6046 49.9005 77.8595 49.8525 79.0992 49.6741C77.88 47.5914 76.067 45.9202 73.8919 44.8746L73.8926 44.8743ZM74.6814 49.7638C74.6478 49.2904 74.5924 48.8372 74.5192 48.4068C74.1197 46.0855 73.1779 44.4688 71.7796 44.0975C70.3907 43.7279 68.7642 44.6589 67.261 46.4568C66.9805 46.7927 66.706 47.159 66.4372 47.5554C69.0461 48.7367 71.8313 49.4829 74.6814 49.7638ZM69.5685 43.7162C67.1609 43.5307 64.7529 44.0696 62.6544 45.2637C63.6398 46.0408 64.7042 46.7121 65.8301 47.2665C66.1143 46.8408 66.4207 46.4305 66.7476 46.0368C67.5036 45.0638 68.4672 44.2716 69.5678 43.7179L69.5685 43.7162Z" fill="white"/>
</svg>
